<svg xmlns="http://www.w3.org/2000/svg" viewBox="0 0 200 40"><defs><style>.cls-1{fill:none;}.cls-2{fill:#fff;}</style></defs><title>Ativo 3</title><g id="Camada_2" data-name="Camada 2"><g id="Camada_1-2" data-name="Camada 1"><rect class="cls-1" x="40" width="40" height="40"/><path class="cls-2" d="M77.35,18.42l-2.68,2c0,2-.06,4.46,0,6.88,0,1.1-.29,2-1.28,2.25A2.81,2.81,0,0,1,71.34,29c-3.84-2.93-7.93-5.32-12.74-6.24-1.24-.24-2.48-.44-3.41.77a3,3,0,0,0-.37,3.59c.1.16.22.41.16.54-1,2.44.72,3.67,2.19,5a2.61,2.61,0,0,1,.25.34c-.73,1.48-2.21,1.68-3.59,1.83-2.77.31-4-.61-5-3.27a14.55,14.55,0,0,1-.69-9.19c-.87,0-1.58,0-2.29,0a3,3,0,0,1-3.18-3c-.06-1.19-.05-2.39,0-3.58A3.1,3.1,0,0,1,46,12.46c2,0,4.09-.13,6.12,0,7.37.49,13.64-2.13,19.26-6.66,1.18-1,2.14-.93,2.89.15a2.88,2.88,0,0,1,.37,1.53c0,2.39,0,4.78,0,6.91l2.68,2.23ZM72.21,8.49c-2.39,1.39-4.57,2.9-6.94,4s-5,1.78-7.55,2.66v4.6c2.64.9,5.2,1.56,7.57,2.65s4.6,2.62,6.93,4Z"/><rect class="cls-1" x="80" width="40" height="40"/><path class="cls-2" d="M104.57,31.16c-.53,3-2.08,4.56-4.42,4.61s-4-1.44-4.72-4.62c-2.55,0-5.12,0-7.69,0a1.88,1.88,0,0,1-2-1.25,1.48,1.48,0,0,1,.2-1.29c3.66-3.44,4.9-7.85,5-12.65.08-2.83.56-5.48,2.94-7.27a36.92,36.92,0,0,1,4.47-2.48c0-1.22.6-2,1.65-2s1.64.8,1.69,2.37a9.2,9.2,0,0,1,5.6,3.25A9,9,0,0,1,109,15.58a19.37,19.37,0,0,0,2.34,9.52c.66,1.12,1.61,2.06,2.35,3.13a2.47,2.47,0,0,1,.6,1.57,1.74,1.74,0,0,1-1.92,1.37C109.83,31.14,107.25,31.16,104.57,31.16ZM100.24,34a3.48,3.48,0,0,1-3-2.95A2.36,2.36,0,0,0,100.24,34Z"/><rect class="cls-1" x="120" width="40" height="40"/><rect class="cls-1" x="160" width="40" height="40"/><path class="cls-2" d="M152.57,32.84c-1.84-.83-3.67-1.69-5.54-2.45a3.42,3.42,0,0,0-1.54,0,16.88,16.88,0,0,1-10.21-2c2-.24,3.76-.37,5.49-.7a15.23,15.23,0,0,0,7.14-3.34A9.91,9.91,0,0,0,151.54,14a8.19,8.19,0,0,1,5,7.22c0,2.62-1,4.15-4.94,7.48.65.84,1.36,1.65,1.93,2.55a5.7,5.7,0,0,1,.45,1.6Z"/><path class="cls-2" d="M128.35,24.11a34.85,34.85,0,0,1-3.26-3.19,6.92,6.92,0,0,1,.45-9.47c3.53-3.72,8.05-4.65,12.93-4.18a13.4,13.4,0,0,1,8.86,4.09,7.16,7.16,0,0,1,0,10.26c-3.1,3.26-7.08,4.32-11.42,4.14a8.2,8.2,0,0,0-4.86,1A16,16,0,0,1,127,28c-.3.08-.68-.14-1-.22a3.77,3.77,0,0,1,.35-1.11C127,25.79,127.71,24.93,128.35,24.11Z"/><rect class="cls-1" width="40" height="40"/><path class="cls-2" d="M19.92,37.56h-8.7c-3.35,0-5.46-1.63-5.81-5A17.08,17.08,0,0,1,7.34,21.9a9.19,9.19,0,0,1,3.08-2.81,2.9,2.9,0,0,1,3.63.37,10.25,10.25,0,0,0,11.86.16c1.76-1.27,3.08-1.25,4.9,0A8.21,8.21,0,0,1,34,25.11,36.83,36.83,0,0,1,34.73,32c0,3.49-2.33,5.58-5.81,5.58Z"/><path class="cls-2" d="M20.06,20a8.82,8.82,0,0,1-8.87-8.74,8.85,8.85,0,0,1,17.69,0A8.76,8.76,0,0,1,20.06,20Z"/><path d="M196.34,32l-10-9.77a12.68,12.68,0,1,0-4.14,4.17l10,9.8A2.94,2.94,0,0,0,196.34,32Zm-20.83-7.73a8.63,8.63,0,1,1,8.63-8.63A8.63,8.63,0,0,1,175.51,24.29Z"/></g></g></svg>