<svg xmlns="http://www.w3.org/2000/svg" viewBox="0 0 720 120.14"><defs><style>.cls-1,.cls-10,.cls-6{fill:none;}.cls-2,.cls-4,.cls-5{fill:#fff;}.cls-3{fill:#f7f7f7;}.cls-4,.cls-5,.cls-6,.cls-9{stroke:#fff;}.cls-10,.cls-4,.cls-5,.cls-6,.cls-8,.cls-9{stroke-miterlimit:10;}.cls-5,.cls-9{stroke-width:2px;}.cls-7{fill:#141414;}.cls-10,.cls-8{stroke:#000;}</style></defs><title>categoriasfinaaasd</title><g id="Camada_2" data-name="Camada 2"><g id="Camada_3" data-name="Camada 3"><rect class="cls-1" y="60.14" width="60" height="60"/><rect class="cls-1" x="60" y="60.14" width="60" height="60"/><rect class="cls-1" x="120" y="60.14" width="60" height="60"/><rect class="cls-1" x="180" y="60.14" width="60" height="60"/><rect class="cls-1" x="240" y="60.14" width="60" height="60"/><rect class="cls-1" x="300" y="60.14" width="60" height="60"/><rect class="cls-1" x="360" y="60.14" width="60" height="60"/><rect class="cls-1" x="420" y="60.14" width="60" height="60"/><rect class="cls-1" x="480" y="60.14" width="60" height="60"/><rect class="cls-1" x="540" y="60.14" width="60" height="60"/><rect class="cls-1" x="600" y="60.14" width="60" height="60"/><path class="cls-2" d="M230.35,74.23a6.66,6.66,0,0,0-6.66-6.66l-.38,0a6.65,6.65,0,0,0-11.16-2.32,6.66,6.66,0,0,0-11.84,1.81,6.65,6.65,0,0,0-7.82,9.21,9.62,9.62,0,0,0,6.78,16.44c.19,0,.37,0,.55,0A6.43,6.43,0,0,0,203,97.17a50.1,50.1,0,0,0,4.44,2.67v8.43c0,1.48-3,9.62-3,9.62h13.32s-2.22-10.36-2.22-11.1,1.48-5.92,1.48-6.66a15,15,0,0,0-.87-2.84l.13-.12c.74-.74,1.48-.74,2.22-1.48s4.32-5.91,4.32-5.91H223A7.4,7.4,0,0,0,229,78.17,6.62,6.62,0,0,0,230.35,74.23ZM205.19,94.95c-.5-1-2.37-1.33-3.29-2.6a9.6,9.6,0,0,0,4.42-2.72,6,6,0,0,1,3.32,6.77C208.34,96.33,205.74,96,205.19,94.95Zm13.32-3.7c-1.48,1.48,0,1.48-2.22,2.22-.7.23-1.48,2.22-1.48,2.22v0l-1.06.07-1.3-1.3c-.59-.59-.7-.08-1.36-1.78A21.57,21.57,0,0,0,210,90.25a6.62,6.62,0,0,0,7.46-2.89,7.43,7.43,0,0,0,2.94,2Z"/><circle class="cls-2" cx="329.94" cy="99.33" r="4.17"/><circle class="cls-2" cx="329.94" cy="76.52" r="2.7"/><path class="cls-2" d="M341.22,61.81H318.78a5,5,0,0,0-5,5v43.78a5,5,0,0,0,2.64,4.36v2.62a.94.94,0,0,0,.94.94h3.28a.94.94,0,0,0,.94-.94v-2h16.92V117a1.5,1.5,0,0,0,1.5,1.5h2.15a1.5,1.5,0,0,0,1.5-1.5v-2.12a5,5,0,0,0,2.51-4.29V66.77A5,5,0,0,0,341.22,61.81Zm-11.28,9.07a5.64,5.64,0,1,1-5.64,5.64A5.64,5.64,0,0,1,329.94,70.88Zm0,37.53A9.07,9.07,0,1,1,339,99.33,9.07,9.07,0,0,1,329.94,108.41Zm9.69-40a1.1,1.1,0,1,1,1.1-1.1A1.1,1.1,0,0,1,339.63,68.43Z"/><path class="cls-2" d="M446.36,113.86c-.06-.19-.24-.15-.37-.21a2.9,2.9,0,0,1-1.89-2.48c0-.21,0-.28.25-.28h11.29c.25,0,.29.07.27.3a3,3,0,0,1-2.23,2.58c-.07,0-.16,0-.19.09Z"/><path class="cls-2" d="M450,109.4h-7.39a1.44,1.44,0,0,1-1.42-1.94,1.39,1.39,0,0,1,1.15-1,2.11,2.11,0,0,1,.42,0h14.51a1.47,1.47,0,0,1,1.54,1.92,1.39,1.39,0,0,1-1.46,1H450Z"/><path class="cls-2" d="M463.41,74.95a14.56,14.56,0,0,0-4.24-5.34,14.34,14.34,0,0,0-6.85-3,2.08,2.08,0,0,1-.89-.21h-.23c-.09.07-.2,0-.29,0h-.15c-.08,0-.17,0-.24,0h-1c-.07.07-.16,0-.24,0h-.2c-.08,0-.17,0-.24,0h-.45c-.19.23-.48.17-.73.21A14.77,14.77,0,0,0,435.4,78.75a16.52,16.52,0,0,0,0,5.32,17.15,17.15,0,0,0,2.27,5.73,35.36,35.36,0,0,1,1.86,3.59A20.73,20.73,0,0,1,441,99.09a1.47,1.47,0,0,0,1.6,1.42h7.65l-3.33-7.26L450,94.83l3.13-1.57-2.93,7.26h7.24A1.47,1.47,0,0,0,459,99.1a22.82,22.82,0,0,1,.91-4.36,34.21,34.21,0,0,1,2.83-5.8,15.05,15.05,0,0,0,1.59-3.87A15.31,15.31,0,0,0,463.41,74.95Z"/><path class="cls-2" d="M450,104.94h-7.35A1.44,1.44,0,0,1,441.2,103a1.35,1.35,0,0,1,1.19-1h14.9a1.42,1.42,0,0,1,1.5.92,1.46,1.46,0,0,1-1.47,2Z"/><path class="cls-2" d="M651.63,96.79a4.83,4.83,0,0,1-.15.46c-2.65,5.27-6.37,9.55-11.73,12.17a21.84,21.84,0,0,1-24.84-3.89A28.51,28.51,0,0,1,609,97.72a3.45,3.45,0,0,1-.32-.84A88.16,88.16,0,0,0,651.63,96.79Z"/><path class="cls-2" d="M655,80.62a38.66,38.66,0,0,1-4.18-1.57,101.06,101.06,0,0,1-12.08-6.63c-1.89-1.13-3.84-2.16-5.8-3.15a5.87,5.87,0,0,0-5.52,0c-2.09,1.06-4.18,2.16-6.18,3.38C616,75.81,610.74,79,604.85,80.81A2.61,2.61,0,0,0,603,83a2.76,2.76,0,0,0,.85,2.53c1,1,2.08,2,3.13,3a4.53,4.53,0,0,1,1.53,3.27c0,.41.18.53.54.61a98.94,98.94,0,0,0,21,2.56,82.47,82.47,0,0,0,13.24-1.1c2.61-.41,5.2-1,7.79-1.48.19,0,.49-.27.49-.41a5.91,5.91,0,0,1,2.16-4.12c.93-.93,1.76-2,2.61-3A2.73,2.73,0,0,0,655,80.62ZM635.5,82.44a10.76,10.76,0,0,1-2.73,6.31c-1,1-2.11,1.77-3.58,1.17a5,5,0,0,1-1.77-1.26,10.64,10.64,0,0,1-2.65-6.2.77.77,0,0,1,.16-.56,6.62,6.62,0,0,1,10.44,0A.71.71,0,0,1,635.5,82.44Z"/><path class="cls-2" d="M295,67.28c-.21-1.66-3-3-6.53-3s-6.32,1.32-6.53,3h-2.22V107h5.17V116H292V107h5.17V67.28Zm-6.53,36.18a4.37,4.37,0,1,1,4.37-4.37A4.37,4.37,0,0,1,288.43,103.45Zm0-11.93a4.37,4.37,0,1,1,4.37-4.37A4.37,4.37,0,0,1,288.43,91.53Zm0-11.93a4.37,4.37,0,1,1,4.37-4.37A4.37,4.37,0,0,1,288.43,79.6Z"/><path class="cls-2" d="M260.55,74.15c-14.46,0-15.9,2.89-15.9,2.89V90h31.81V77S275,74.15,260.55,74.15ZM272,87H249.08V79.49s1-1.68,11.47-1.68S272,79.49,272,79.49Z"/><path class="cls-2" d="M278.14,94.61c-.57-1.15-3.5-4.88-17.59-4.88-13,0-16.66,3.62-17.5,4.83a1.31,1.31,0,0,0-.23.75V106a1.37,1.37,0,0,0,1.37,1.37h2V112a1.59,1.59,0,0,0,1.59,1.59h1.77A1.59,1.59,0,0,0,251.1,112v-4.66h19V112a1.59,1.59,0,0,0,1.59,1.59h1.77a1.59,1.59,0,0,0,1.59-1.59v-4.66h1.82a1.37,1.37,0,0,0,1.37-1.37V95.2Zm-29.52,9.59a2.61,2.61,0,1,1,2.61-2.61A2.61,2.61,0,0,1,248.63,104.21Zm16.09,0h-8.34a1,1,0,1,1,0-2.08h8.34a1,1,0,0,1,0,2.08Zm7.88,0a2.61,2.61,0,1,1,2.61-2.61A2.61,2.61,0,0,1,272.6,104.21Z"/><polygon class="cls-3" points="243.06 94.51 244.65 89.74 276.45 89.74 278.04 94.51 243.06 94.51"/><rect class="cls-2" x="24.54" y="76.67" width="6.12" height="26.25" rx="1.59" ry="1.59"/><rect class="cls-2" x="24.54" y="98.58" width="19.49" height="4.35" rx="1.13" ry="1.13"/><rect class="cls-2" x="43.88" y="97.28" width="3.54" height="14.99" rx="0.92" ry="0.92" transform="translate(-55.47 51.52) rotate(-38.68)"/><circle class="cls-2" cx="27.12" cy="69.91" r="5.64"/><path class="cls-4" d="M39.55,106.47a15.35,15.35,0,1,1-18.8-22.12.89.89,0,0,0,.57-.83V82.7a.48.48,0,0,0-.63-.45A17.35,17.35,0,0,0,9,98.94,17.54,17.54,0,0,0,26.51,116a17.33,17.33,0,0,0,14.73-8.45.88.88,0,0,0-.15-1.09l-.19-.18A.86.86,0,0,0,39.55,106.47Z"/><rect class="cls-2" x="27.12" y="81.18" width="12.72" height="3.86" rx="1" ry="1"/><rect class="cls-2" x="83.9" y="69.89" width="12.2" height="40.5" rx="2.25" ry="2.25"/><rect class="cls-2" x="83.9" y="69.89" width="12.2" height="40.5" rx="2.25" ry="2.25" transform="translate(180.14 0.14) rotate(90)"/><path class="cls-2" d="M175.6,65.65l-30.83,0c-.76,0-1.51.49-1.48,1.75.19,7.23-.41,13.84.36,21,.74,6.89,4.5,11.62,10.74,13.87s11.91.83,16.78-3.88a17.8,17.8,0,0,0,4.36-7.78,12.39,12.39,0,0,0,.57-3.73V66.15A.5.5,0,0,0,175.6,65.65Zm-23.42,7.67a3.89,3.89,0,0,1,3.82,4,4,4,0,0,1-3.92,4,4.17,4.17,0,0,1-3.86-4.12A4,4,0,0,1,152.18,73.32Zm7.3,23A11.93,11.93,0,0,1,147.82,87a18.84,18.84,0,0,0,11.65,3.83A20.4,20.4,0,0,0,171.13,87,11.93,11.93,0,0,1,159.48,96.33Zm7.67-15a4.24,4.24,0,0,1-3.73-4.25,4,4,0,0,1,4.09-3.8,3.86,3.86,0,0,1,3.66,4.16A4,4,0,0,1,167.15,81.37Z"/><path class="cls-2" d="M141.44,79.45"/><path class="cls-2" d="M152.47,108.43l-5.51-.5-2.32-5,1.94-2.75A15.76,15.76,0,0,1,142,91l-2.58-.23-2.32-5,3.19-4.52,1.14.1c0-.61,0-1.23,0-1.84a17.61,17.61,0,1,0,15.9,25.32,15.82,15.82,0,0,1-2.09-.27ZM130.56,85.69l5.51.5,2.32,5-3.19,4.52-5.51-.5-2.32-5ZM128.35,106,126,101l3.19-4.52,5.51.5,2.32,5-3.19,4.52Zm14.4,6.94-5.51-.5-2.32-5,3.19-4.52,5.51.5,2.32,5Z"/><path class="cls-2" d="M518.67,73.26s0-.08,0-.12a8.77,8.77,0,0,0-17.48.12h-4v6.48H522.6V73.26Z"/><polygon class="cls-2" points="532.12 84.79 515.93 84.79 515.93 91.38 522.69 91.38 522.69 113.64 525.36 113.64 525.36 91.38 532.12 91.38 532.12 84.79"/><path class="cls-2" d="M526.56,101.32v13.37h-5.66V97.14l-.43-.13a8.93,8.93,0,0,0-3.39-4.57h-.41a11.24,11.24,0,0,1-13.78-.71A9.31,9.31,0,0,0,498.42,97c-4.6,1.25-7.59,3.27-7.59,5.54,0,0-3.24,10.92-2.83,11.73s-.4.4,0,.81,42.48-.4,42.48-.4-1.62-11.73-2.43-12.14A5.52,5.52,0,0,1,526.56,101.32Z"/><path class="cls-2" d="M500.06,81.63a10.19,10.19,0,0,0,15,9V84.07h5a10.18,10.18,0,0,0,.31-2.44c0-.13,0-.26,0-.39H500.08C500.08,81.37,500.06,81.5,500.06,81.63Z"/><path class="cls-5" d="M583.5,65.18"/><path class="cls-2" d="M590.93,88.25v-8H572.19l-7.57,7.21V80.28l-8.37,8v-8l-8.37,8v29.1h10.37V106.59h16.34v10.76h17.54V88.25Zm-34.28,14h-5.18V97.82h5.18Zm8,0h-5.18V97.82h5.18Zm8,0h-5.18V97.82h5.18Z"/><path class="cls-2" d="M569.63,67.78a1.45,1.45,0,0,0,.69-1.93h0l.17-.06a1.09,1.09,0,0,0-.93-2h0a1.27,1.27,0,0,0-2.34-.2,1.18,1.18,0,0,0-1.78,1.54h0a1.81,1.81,0,1,0,2.49,2.21A1.45,1.45,0,0,0,569.63,67.78Z"/><polygon class="cls-2" points="571.54 79.4 571.54 69.99 567.01 69.99 567.01 83.72 571.54 79.4"/><rect class="cls-2" x="581.05" y="66.02" width="5.1" height="12.76"/><polygon class="cls-2" points="378.12 104.25 381.44 106.39 376.06 111.08 370.68 115.77 372.74 108.94 374.8 102.1 378.12 104.25"/><polygon class="cls-6" points="409.32 76.77 398.16 94.05 384.73 104.43 371.3 114.81 375.23 98.3 379.15 81.79 390.3 64.5 409.32 76.77"/><polygon class="cls-2" points="409.32 76.77 390.3 64.5 379.74 80.87 379.46 80.63 379.57 81.13 379.15 81.79 379.81 82.21 380 83.08 380.53 85.54 383.01 85.73 384.44 85.83 384.87 87.83 387.36 88.01 388.99 88.13 389.29 88.33 389.67 90.11 391.99 90.28 392.11 90.86 392.64 93.31 395.13 93.5 397.59 93.68 398.16 94.05 409.32 76.77"/><rect class="cls-1" y="0.14" width="60" height="60"/><rect class="cls-1" x="60" y="0.14" width="60" height="60"/><rect class="cls-1" x="120" y="0.14" width="60" height="60"/><rect class="cls-1" x="180" y="0.14" width="60" height="60"/><rect class="cls-1" x="240" y="0.14" width="60" height="60"/><rect class="cls-1" x="300" y="0.14" width="60" height="60"/><rect class="cls-1" x="360" y="0.14" width="60" height="60"/><rect class="cls-1" x="420" y="0.14" width="60" height="60"/><rect class="cls-1" x="480" y="0.14" width="60" height="60"/><rect class="cls-1" x="540" y="0.14" width="60" height="60"/><rect class="cls-1" x="600" y="0.14" width="60" height="60"/><path d="M230.35,14.23a6.66,6.66,0,0,0-6.66-6.66l-.38,0a6.65,6.65,0,0,0-11.16-2.32,6.66,6.66,0,0,0-11.84,1.81,6.65,6.65,0,0,0-7.82,9.21,9.62,9.62,0,0,0,6.78,16.44c.19,0,.37,0,.55,0A6.43,6.43,0,0,0,203,37.17a50.1,50.1,0,0,0,4.44,2.67v8.43c0,1.48-3,9.62-3,9.62h13.32s-2.22-10.36-2.22-11.1S217,40.87,217,40.13a15,15,0,0,0-.87-2.84l.13-.12c.74-.74,1.48-.74,2.22-1.48s4.32-5.91,4.32-5.91H223A7.4,7.4,0,0,0,229,18.17,6.62,6.62,0,0,0,230.35,14.23ZM205.19,34.95c-.5-1-2.37-1.33-3.29-2.6a9.6,9.6,0,0,0,4.42-2.72,6,6,0,0,1,3.32,6.77C208.34,36.33,205.74,36,205.19,34.95Zm13.32-3.7c-1.48,1.48,0,1.48-2.22,2.22-.7.23-1.48,2.22-1.48,2.22v0l-1.06.07-1.3-1.3c-.59-.59-.7-.08-1.36-1.78A21.57,21.57,0,0,0,210,30.25a6.62,6.62,0,0,0,7.46-2.89,7.43,7.43,0,0,0,2.94,2Z"/><circle cx="329.94" cy="39.33" r="4.17"/><circle cx="329.94" cy="16.52" r="2.7"/><path d="M341.22,1.81H318.78a5,5,0,0,0-5,5V50.56a5,5,0,0,0,2.64,4.36v2.62a.94.94,0,0,0,.94.94h3.28a.94.94,0,0,0,.94-.94v-2h16.92V57a1.5,1.5,0,0,0,1.5,1.5h2.15a1.5,1.5,0,0,0,1.5-1.5V54.84a5,5,0,0,0,2.51-4.29V6.77A5,5,0,0,0,341.22,1.81Zm-11.28,9.07a5.64,5.64,0,1,1-5.64,5.64A5.64,5.64,0,0,1,329.94,10.88Zm0,37.53A9.07,9.07,0,1,1,339,39.33,9.07,9.07,0,0,1,329.94,48.41Zm9.69-40a1.1,1.1,0,1,1,1.1-1.1A1.1,1.1,0,0,1,339.63,8.43Z"/><path d="M446.36,53.86c-.06-.19-.24-.15-.37-.21a2.9,2.9,0,0,1-1.89-2.48c0-.21,0-.28.25-.28h11.29c.25,0,.29.07.27.3a3,3,0,0,1-2.23,2.58c-.07,0-.16,0-.19.09Z"/><path d="M450,49.4h-7.39a1.44,1.44,0,0,1-1.42-1.94,1.39,1.39,0,0,1,1.15-1,2.11,2.11,0,0,1,.42,0h14.51a1.47,1.47,0,0,1,1.54,1.92,1.39,1.39,0,0,1-1.46,1H450Z"/><path d="M463.41,14.95a14.56,14.56,0,0,0-4.24-5.34,14.34,14.34,0,0,0-6.85-3,2.08,2.08,0,0,1-.89-.21h-.23c-.09.07-.2,0-.29,0h-.15c-.08,0-.17,0-.24,0h-1c-.07.07-.16,0-.24,0h-.2c-.08,0-.17,0-.24,0h-.45c-.19.23-.48.17-.73.21A14.77,14.77,0,0,0,435.4,18.75a16.52,16.52,0,0,0,0,5.32,17.15,17.15,0,0,0,2.27,5.73,35.36,35.36,0,0,1,1.86,3.59A20.73,20.73,0,0,1,441,39.09a1.47,1.47,0,0,0,1.6,1.42h7.65l-3.33-7.26L450,34.83l3.13-1.57-2.93,7.26h7.24A1.47,1.47,0,0,0,459,39.1a22.82,22.82,0,0,1,.91-4.36,34.21,34.21,0,0,1,2.83-5.8,15.05,15.05,0,0,0,1.59-3.87A15.31,15.31,0,0,0,463.41,14.95Z"/><path d="M450,44.94h-7.35A1.44,1.44,0,0,1,441.2,43a1.35,1.35,0,0,1,1.19-1h14.9a1.42,1.42,0,0,1,1.5.92,1.46,1.46,0,0,1-1.47,2Z"/><path d="M651.63,36.79a4.83,4.83,0,0,1-.15.46c-2.65,5.27-6.37,9.55-11.73,12.17a21.84,21.84,0,0,1-24.84-3.89A28.51,28.51,0,0,1,609,37.72a3.45,3.45,0,0,1-.32-.84A88.16,88.16,0,0,0,651.63,36.79Z"/><path d="M655,20.62a38.66,38.66,0,0,1-4.18-1.57,101.06,101.06,0,0,1-12.08-6.63c-1.89-1.13-3.84-2.16-5.8-3.15a5.87,5.87,0,0,0-5.52,0c-2.09,1.06-4.18,2.16-6.18,3.38C616,15.81,610.74,19,604.85,20.81A2.61,2.61,0,0,0,603,23a2.76,2.76,0,0,0,.85,2.53c1,1,2.08,2,3.13,3a4.53,4.53,0,0,1,1.53,3.27c0,.41.18.53.54.61a98.94,98.94,0,0,0,21,2.56,82.47,82.47,0,0,0,13.24-1.1c2.61-.41,5.2-1,7.79-1.48.19,0,.49-.27.49-.41a5.91,5.91,0,0,1,2.16-4.12c.93-.93,1.76-2,2.61-3A2.73,2.73,0,0,0,655,20.62ZM635.5,22.44a10.76,10.76,0,0,1-2.73,6.31c-1,1-2.11,1.77-3.58,1.17a5,5,0,0,1-1.77-1.26,10.64,10.64,0,0,1-2.65-6.2.77.77,0,0,1,.16-.56,6.62,6.62,0,0,1,10.44,0A.71.71,0,0,1,635.5,22.44Z"/><rect class="cls-1" x="660" y="60" width="60" height="60"/><rect class="cls-1" x="660" width="60" height="60"/><path d="M295,7.28c-.21-1.66-3-3-6.53-3s-6.32,1.32-6.53,3h-2.22V47h5.17V56H292V47h5.17V7.28Zm-6.53,36.18a4.37,4.37,0,1,1,4.37-4.37A4.37,4.37,0,0,1,288.43,43.45Zm0-11.93a4.37,4.37,0,1,1,4.37-4.37A4.37,4.37,0,0,1,288.43,31.53Zm0-11.93a4.37,4.37,0,1,1,4.37-4.37A4.37,4.37,0,0,1,288.43,19.6Z"/><path d="M260.55,14.15c-14.46,0-15.9,2.89-15.9,2.89V30h31.81V17S275,14.15,260.55,14.15ZM272,27H249.08V19.49s1-1.68,11.47-1.68S272,19.49,272,19.49Z"/><path d="M278.14,34.61c-.57-1.15-3.5-4.88-17.59-4.88-13,0-16.66,3.62-17.5,4.83a1.31,1.31,0,0,0-.23.75V46a1.37,1.37,0,0,0,1.37,1.37h2V52a1.59,1.59,0,0,0,1.59,1.59h1.77A1.59,1.59,0,0,0,251.1,52V47.34h19V52a1.59,1.59,0,0,0,1.59,1.59h1.77A1.59,1.59,0,0,0,275.08,52V47.34h1.82A1.37,1.37,0,0,0,278.27,46V35.2Zm-29.52,9.59a2.61,2.61,0,1,1,2.61-2.61A2.61,2.61,0,0,1,248.63,44.21Zm16.09,0h-8.34a1,1,0,1,1,0-2.08h8.34a1,1,0,0,1,0,2.08Zm7.88,0a2.61,2.61,0,1,1,2.61-2.61A2.61,2.61,0,0,1,272.6,44.21Z"/><polygon class="cls-7" points="243.06 34.51 244.65 29.74 276.45 29.74 278.04 34.51 243.06 34.51"/><rect x="24.54" y="16.67" width="6.12" height="26.25" rx="1.59" ry="1.59"/><rect x="24.54" y="38.58" width="19.49" height="4.35" rx="1.13" ry="1.13"/><rect x="43.88" y="37.28" width="3.54" height="14.99" rx="0.92" ry="0.92" transform="translate(-17.97 38.36) rotate(-38.68)"/><circle cx="27.12" cy="9.91" r="5.64"/><path class="cls-8" d="M39.55,46.47a15.35,15.35,0,1,1-18.8-22.12.89.89,0,0,0,.57-.83V22.7a.48.48,0,0,0-.63-.45A17.35,17.35,0,0,0,9,38.94,17.54,17.54,0,0,0,26.51,56a17.33,17.33,0,0,0,14.73-8.45.88.88,0,0,0-.15-1.09l-.19-.18A.86.86,0,0,0,39.55,46.47Z"/><rect x="27.12" y="21.18" width="12.72" height="3.86" rx="1" ry="1"/><rect x="83.9" y="9.89" width="12.2" height="40.5" rx="2.25" ry="2.25"/><rect x="83.9" y="9.89" width="12.2" height="40.5" rx="2.25" ry="2.25" transform="translate(120.14 -59.86) rotate(90)"/><path d="M175.6,5.65l-30.83,0c-.76,0-1.51.49-1.48,1.75.19,7.23-.41,13.84.36,21,.74,6.89,4.5,11.62,10.74,13.87s11.91.83,16.78-3.88a17.8,17.8,0,0,0,4.36-7.78,12.39,12.39,0,0,0,.57-3.73V6.15A.5.5,0,0,0,175.6,5.65Zm-23.42,7.67a3.89,3.89,0,0,1,3.82,4,4,4,0,0,1-3.92,4,4.17,4.17,0,0,1-3.86-4.12A4,4,0,0,1,152.18,13.32Zm7.3,23A11.93,11.93,0,0,1,147.82,27a18.84,18.84,0,0,0,11.65,3.83A20.4,20.4,0,0,0,171.13,27,11.93,11.93,0,0,1,159.48,36.33Zm7.67-15a4.24,4.24,0,0,1-3.73-4.25,4,4,0,0,1,4.09-3.8,3.86,3.86,0,0,1,3.66,4.16A4,4,0,0,1,167.15,21.37Z"/><path d="M141.44,19.45"/><path d="M152.47,48.43l-5.51-.5-2.32-5,1.94-2.75A15.76,15.76,0,0,1,142,31l-2.58-.23-2.32-5,3.19-4.52,1.14.1c0-.61,0-1.23,0-1.84a17.61,17.61,0,1,0,15.9,25.32,15.82,15.82,0,0,1-2.09-.27ZM130.56,25.69l5.51.5,2.32,5-3.19,4.52-5.51-.5-2.32-5ZM128.35,46,126,41l3.19-4.52,5.51.5L137,42l-3.19,4.52Zm14.4,6.94-5.51-.5-2.32-5,3.19-4.52,5.51.5,2.32,5Z"/><path d="M518.67,13.26s0-.08,0-.12a8.77,8.77,0,0,0-17.48.12h-4v6.48H522.6V13.26Z"/><polygon points="532.12 24.79 515.93 24.79 515.93 31.38 522.69 31.38 522.69 53.64 525.36 53.64 525.36 31.38 532.12 31.38 532.12 24.79"/><path d="M526.56,41.32V54.69h-5.66V37.14l-.43-.13a8.93,8.93,0,0,0-3.39-4.57h-.41a11.24,11.24,0,0,1-13.78-.71A9.31,9.31,0,0,0,498.42,37c-4.6,1.25-7.59,3.27-7.59,5.54,0,0-3.24,10.92-2.83,11.73s-.4.4,0,.81,42.48-.4,42.48-.4S528.87,43,528.06,42.55A5.52,5.52,0,0,1,526.56,41.32Z"/><path d="M500.06,21.63a10.19,10.19,0,0,0,15,9V24.07h5a10.18,10.18,0,0,0,.31-2.44c0-.13,0-.26,0-.39H500.08C500.08,21.37,500.06,21.5,500.06,21.63Z"/><path class="cls-9" d="M583.5,5.18"/><path d="M590.93,28.25v-8H572.19l-7.57,7.21V20.28l-8.37,8v-8l-8.37,8v29.1h10.37V46.59h16.34V57.36h17.54V28.25Zm-34.28,14h-5.18V37.82h5.18Zm8,0h-5.18V37.82h5.18Zm8,0h-5.18V37.82h5.18Z"/><path d="M569.63,7.78a1.45,1.45,0,0,0,.69-1.93h0l.17-.06a1.09,1.09,0,0,0-.93-2h0a1.27,1.27,0,0,0-2.34-.2,1.18,1.18,0,0,0-1.78,1.54h0a1.81,1.81,0,1,0,2.49,2.21A1.45,1.45,0,0,0,569.63,7.78Z"/><polygon points="571.54 19.4 571.54 9.99 567.01 9.99 567.01 23.72 571.54 19.4"/><rect x="581.05" y="6.02" width="5.1" height="12.76"/><polygon points="378.12 44.25 381.44 46.39 376.06 51.08 370.68 55.77 372.74 48.94 374.8 42.1 378.12 44.25"/><polygon points="382.48 23.27 385.5 25.91 383.01 25.73 380.53 25.54 380 23.09 379.46 20.63 382.48 23.27"/><polygon points="386.83 25.56 389.85 28.2 387.36 28.01 384.87 27.83 384.34 25.37 383.81 22.92 386.83 25.56"/><polygon points="391.63 27.84 394.65 30.48 392.16 30.3 389.67 30.11 389.14 27.66 388.61 25.2 391.63 27.84"/><polygon points="394.6 31.05 397.62 33.69 395.13 33.5 392.64 33.31 392.11 30.86 391.58 28.4 394.6 31.05"/><polygon class="cls-10" points="409.32 16.77 398.16 34.05 384.73 44.43 371.3 54.81 375.23 38.3 379.15 21.79 390.3 4.5 409.32 16.77"/><rect x="383.95" y="7.96" width="20.57" height="22.63" transform="translate(164.29 340.09) rotate(-57.17)"/><path d="M698.89,14H681.11a16,16,0,0,0-16,16h0a16,16,0,0,0,16,16h17.78a16,16,0,0,0,16-16h0A16,16,0,0,0,698.89,14ZM679.5,33a3,3,0,1,1,3-3A3,3,0,0,1,679.5,33ZM690,33a3,3,0,1,1,3-3A3,3,0,0,1,690,33Zm10.5,0a3,3,0,1,1,3-3A3,3,0,0,1,700.5,33Z"/><path class="cls-2" d="M698.89,74H681.11a16,16,0,0,0-16,16h0a16,16,0,0,0,16,16h17.78a16,16,0,0,0,16-16h0A16,16,0,0,0,698.89,74ZM679.5,93a3,3,0,1,1,3-3A3,3,0,0,1,679.5,93ZM690,93a3,3,0,1,1,3-3A3,3,0,0,1,690,93Zm10.5,0a3,3,0,1,1,3-3A3,3,0,0,1,700.5,93Z"/></g></g></svg>