<svg xmlns="http://www.w3.org/2000/svg" viewBox="0 0 300 300"><defs><style>.cls-1{fill:#333360;}.cls-10,.cls-13,.cls-2{fill:#fff;}.cls-3{fill:#b3b3b3;}.cls-4,.cls-7{fill:#ff9b4e;}.cls-5,.cls-8{fill:none;}.cls-13,.cls-5{stroke:#be6634;}.cls-10,.cls-11,.cls-13,.cls-5,.cls-7,.cls-8{stroke-miterlimit:10;}.cls-6{fill:#be6634;}.cls-10,.cls-11,.cls-7,.cls-8{stroke:#19172f;}.cls-9{fill:#19172f;}.cls-11{fill:#ccc;stroke-width:1.5px;}.cls-12{fill:#4d4d4d;}.cls-14{fill:#666;}.cls-15{fill:#1a1a1a;}.cls-16{font-size:14.82px;fill:#dfdfea;font-family:MyriadPro-Regular, Myriad Pro;}.cls-17{letter-spacing:-0.01em;}.cls-18{letter-spacing:-0.02em;}.cls-19{fill:#dbdbdb;}</style></defs><title>Prancheta 1</title><g id="Camada_2" data-name="Camada 2"><rect class="cls-1" width="300" height="300"/></g><g id="Camada_1" data-name="Camada 1"><path class="cls-2" d="M103,40.36a4.15,4.15,0,0,0-4.42-4.41H75.51A4.16,4.16,0,0,0,71,40.43q0,6.2,0,12.4c0,2.94,1.66,4.6,4.61,4.6,4,0,8,0,11.95,0a2.94,2.94,0,0,1,1.39.39c2.64,1.53,5.24,3.12,7.87,4.67,1.22.72,2,.25,2-1.18,0-1.27,0-2.55,0-3.82l.34-.1c2.59-.5,3.79-1.94,3.8-4.57Q103,46.6,103,40.36Z"/><ellipse class="cls-3" cx="145.66" cy="216.98" rx="57.16" ry="60.02"/><path class="cls-2" d="M187.45,114.35a10.91,10.91,0,0,0-1.42-3.54c-.64-.95-1.25-2-2.4-2.27-1.68-.41-2.39,2.31-.71,2.71.4.1.91,1.12,1.11,1.5a9.93,9.93,0,0,1,.83,2.34C185.27,116.85,187.86,116.11,187.45,114.35Z"/><path class="cls-2" d="M177.7,106a1.33,1.33,0,0,0-1.83-.5,4.7,4.7,0,0,0-2,2.45,1.49,1.49,0,0,0,.48,1.92,1.32,1.32,0,0,0,1.83-.5,9.62,9.62,0,0,1,.49-1l.11-.18q-.09.15.07,0l.32-.18A1.47,1.47,0,0,0,177.7,106Z"/><path class="cls-2" d="M113,104.09c-1.72,0-1.73,2.81,0,2.81S114.74,104.09,113,104.09Z"/><path class="cls-2" d="M102.07,113.89c-1.72,0-1.73,2.81,0,2.81S103.79,113.89,102.07,113.89Z"/><path class="cls-2" d="M119.3,114.1a1.22,1.22,0,0,0-.17-1c-1.82-2.92-3.41-6.34-6.15-8.46a1.34,1.34,0,0,0-2-1.42c-.42.24-.81.5-1.19.77a1.21,1.21,0,0,0-.62.2c-.37.24-.71.48-1,.74a1.37,1.37,0,0,0-.86.3,12.85,12.85,0,0,0-1.57,1.5,1.32,1.32,0,0,0-.32.28,13.41,13.41,0,0,0-.85,1.17,1.11,1.11,0,0,0-.72.68c-.34.76-.65,1.53-.93,2.31a1.53,1.53,0,0,0-.07.14l-.08.22a1.3,1.3,0,0,0-.53.76,24.85,24.85,0,0,0-.78,4.15c-.15,1.43,1.89,1.76,2.48.64a1.12,1.12,0,0,0,.59-.26,1.51,1.51,0,0,0,1.07.09,1.93,1.93,0,0,0,.85.63s0,.07,0,.1A1.32,1.32,0,0,0,109,118v0a1.45,1.45,0,0,0,1.23-.81,1.37,1.37,0,0,0,1.27.22,1.26,1.26,0,0,0,1.71.31,1.33,1.33,0,0,0,1.88-.1,1.3,1.3,0,0,0,1.59,0,1.33,1.33,0,0,0,1.64-.07,1.43,1.43,0,0,0,1.23-.37C120.73,116.11,120.08,115,119.3,114.1Z"/><path class="cls-2" d="M169.38,116a1.18,1.18,0,0,1,.18-1c1.9-2.92,3.57-6.34,6.44-8.46a1.4,1.4,0,0,1,2-1.42c.44.24.85.5,1.25.77a1.31,1.31,0,0,1,.65.2c.38.24.75.48,1.1.74a1.48,1.48,0,0,1,.9.3,13.22,13.22,0,0,1,1.65,1.5,1.37,1.37,0,0,1,.33.28,13.45,13.45,0,0,1,.89,1.17,1.15,1.15,0,0,1,.75.68c.36.76.68,1.53,1,2.31a1.5,1.5,0,0,1,.07.14l.08.22a1.31,1.31,0,0,1,.55.76,23.84,23.84,0,0,1,.82,4.15c.16,1.43-2,1.76-2.59.64a1.2,1.2,0,0,1-.62-.26,1.65,1.65,0,0,1-1.12.09,2,2,0,0,1-.89.63s0,.07,0,.1a1.39,1.39,0,0,1-2.71.36v0a1.52,1.52,0,0,1-1.28-.81,1.49,1.49,0,0,1-1.33.22,1.36,1.36,0,0,1-1.79.31,1.44,1.44,0,0,1-2-.1,1.42,1.42,0,0,1-1.67,0,1.44,1.44,0,0,1-1.72-.07,1.55,1.55,0,0,1-1.29-.37C167.88,118,168.57,116.92,169.38,116Z"/><path class="cls-4" d="M147.21,166.09a7,7,0,0,1-.15-.74l0,0,.1-.15a1.18,1.18,0,0,0,0-1.49l-.1-.63a1.57,1.57,0,0,0,.12-.5,8.83,8.83,0,0,0-.09-1.73,10.12,10.12,0,0,1,.12-2.24,1.05,1.05,0,0,0,0-.17,1.57,1.57,0,0,0,.2-1,8.58,8.58,0,0,0-.39-1.74c0-.57.07-1.16.11-1.67.07-.84.45-1.81.06-2.61a1.61,1.61,0,0,0-1.33-.87,6.53,6.53,0,0,1-2.09-.38,1.36,1.36,0,0,0-2,1.21,22.13,22.13,0,0,0-.23,3.08c.05,1.15.21,2.26.16,3.42a1.23,1.23,0,0,0,.51,1.12c0,.63.16,1.3.17,1.86,0,1.08,0,2.15,0,3.23a1.61,1.61,0,0,0,0,.33,3,3,0,0,0-.28,1.57,1.72,1.72,0,0,0,.19.67,3.19,3.19,0,0,0-.22.25,1.46,1.46,0,0,0,.48,1.92,1.29,1.29,0,0,0,1.71-.35c-.05,0,0,0,0,0l.09-.11-.08.11h.07a2.19,2.19,0,0,0,.51,0,1.21,1.21,0,0,1,.61.19,1.34,1.34,0,0,0,1.62-.22C147.79,167.67,147.43,166.91,147.21,166.09Z"/><path class="cls-4" d="M144.23,168.45l0-.05h0Z"/><path class="cls-2" d="M142.09,165.6c0-.11,0-.21-.05-.31l-.17-2a3.31,3.31,0,0,0-.09-.52l-.11-1.13-.08-2.21a1.25,1.25,0,0,0,.36-.73c.28-1.74-.21-3.43.13-5.14a1.49,1.49,0,0,0-.32-1.3l.09-.69a.45.45,0,1,0-.86-.25l-.18.5a1.33,1.33,0,0,0-1,.37c-.3.28-.57.58-.85.88a3.19,3.19,0,0,0-3.25,1.22l-.37.34h0l-.45.27a3.08,3.08,0,0,0-.93,0c-2.56.39-4.63,1.61-7.07,2.17a2.77,2.77,0,0,0-.89,0l-.89.16a4.21,4.21,0,0,1-2.4-.51,2.31,2.31,0,0,0-2.17.37,6.82,6.82,0,0,0-3-.49.52.52,0,0,0-.11-.15c-.5-.39-1.43-1.36-2.15-.88-.39.26-.43.85-.41,1.39,0,0-.06.05-.07.1l-.11.38a.42.42,0,0,0,.11.44,2.71,2.71,0,0,0-.46,1.56c0,.58,0,1.16,0,1.74a3.27,3.27,0,0,0-.62,1.62c-.46,4.21-1.05,8.41-1.61,12.61,0,.07,0,.14,0,.21a.44.44,0,0,0-.78.29l-.11.92a.41.41,0,0,0,0,.23.47.47,0,0,0-.12.33,9.13,9.13,0,0,0,.14,1.79c0,.8,0,1.6,0,2.41a.5.5,0,0,0,0,.18l-.07.88a.45.45,0,0,0,.83.24c.06-.13.09-.26.14-.38h0l0-.08a.44.44,0,0,0,.19-.17,10.14,10.14,0,0,0,.5-1,.36.36,0,0,0,.22-.21c.08-.2.15-.4.23-.59h0l0-.07a.4.4,0,0,0,.26-.13,8.63,8.63,0,0,0,.75-.95.39.39,0,0,0,.06-.37,2.46,2.46,0,0,0,2.46-1.37l.78-.71a2.7,2.7,0,0,0,1.52.15,4.9,4.9,0,0,0,1.28-.42,2.86,2.86,0,0,0,3.53-.17,3.16,3.16,0,0,0,.56.1,2.55,2.55,0,0,0,.7,1.1c1.54,1.46,4.66,1.47,5.81,2.88a2.38,2.38,0,0,0,1.24.85.49.49,0,0,0,0,.15s0,.07.05.11h0v0a1.39,1.39,0,0,0,.39.57.45.45,0,0,0,.13.07v.05a1.32,1.32,0,0,0,.12.54l.06.46c.07.53.88.39.88-.12a4.59,4.59,0,0,0-.07-.73.41.41,0,0,0,.44-.45,7.16,7.16,0,0,0-.16-1.07,3.37,3.37,0,0,0,1.38-3.19c0-.12-.05-.22-.08-.33a2.71,2.71,0,0,0,.48-1c.12-.43.24-.84.37-1.24.07-.09.15-.17.21-.27a14.27,14.27,0,0,0,1.34-2.5.36.36,0,0,0,.38-.13,2.57,2.57,0,0,0,.54-1,.43.43,0,0,0-.06-.38,2.35,2.35,0,0,0,.56-.28,2.16,2.16,0,0,0,2-1.71,3,3,0,0,0,.22-.39,2.33,2.33,0,0,0,.58-1.8Z"/><line class="cls-5" x1="142.09" y1="169.63" x2="142.09" y2="150.4"/><path class="cls-2" d="M151.87,168.94a3.85,3.85,0,0,1-1.53-.81,2,2,0,0,1-.44-1.5,1.34,1.34,0,1,0-2.68,0c0,1.24-.13,1.08.66,2.05.49.6,2.22,2.6,3.26,3C152.8,172.23,153.5,169.51,151.87,168.94Z"/><path class="cls-2" d="M178.68,178.81a10.78,10.78,0,0,0,.14-1.95.54.54,0,0,0-.12-.35.48.48,0,0,0,0-.26l-.11-1c-.06-.51-.53-.65-.78-.31,0-.08,0-.15,0-.23-.56-4.56-1.15-9.13-1.61-13.71a3.74,3.74,0,0,0-.62-1.76c0-.63,0-1.26,0-1.89a3.13,3.13,0,0,0-.46-1.7.48.48,0,0,0,.11-.48l-.11-.41s0-.07-.07-.1c0-.59,0-1.23-.41-1.51-.72-.52-1.64.53-2.15,1a.57.57,0,0,0-.11.16,6.34,6.34,0,0,0-3,.53,2.17,2.17,0,0,0-2.17-.41,3.93,3.93,0,0,1-2.4.56l-.89-.17a2.55,2.55,0,0,0-.89,0c-2.44-.61-4.51-1.94-7.07-2.36a2.84,2.84,0,0,0-.93,0l-.45-.29h0l-.37-.36a3.07,3.07,0,0,0-3.25-1.33c-.28-.32-.55-.65-.85-1a1.27,1.27,0,0,0-1-.4l-.18-.54c-.21-.62-.94-.37-.86.27l.09.75a1.72,1.72,0,0,0-.32,1.41c.3,1.65-.05,3.3.07,5a1.31,1.31,0,0,0-.51.77,12.54,12.54,0,0,0-.4,3.36,1.31,1.31,0,0,0,1.07,1.33s0,.08,0,.12l-.17,2.2c0,.11,0,.22-.05.34l-.1,1.28a2.67,2.67,0,0,0,.58,2,3.37,3.37,0,0,0,.22.42,2.22,2.22,0,0,0,2,1.86,2.28,2.28,0,0,0,.56.3.5.5,0,0,0-.06.33.51.51,0,0,0-.21.65,7,7,0,0,0,1.33,2c.14.15.08,1.52.22,1.47.21.42.61-.4.88,0h0s0,0,0,0c.13.44.5,1.09.62,1.55a3.06,3.06,0,0,0,.48,1c0,.12-.06.24-.08.36-.21,1.36.76,2.66,1.38,3.46-.08.38.3.68.27,1.07s-.23.58,0,.58a5.42,5.42,0,0,0-.07.79c0,.56.81.71.88.14l0-.39a.44.44,0,0,0,.59-.29,4.28,4.28,0,0,1,.67-1.33.51.51,0,0,0,0-.54,1.23,1.23,0,0,0,.66-.52c1.15-1.54,4.26-1.55,5.81-3.13a2.81,2.81,0,0,0,.7-1.19,2.93,2.93,0,0,0,.56-.1,2.68,2.68,0,0,0,3.53.19,4.63,4.63,0,0,0,1.28.45,2.5,2.5,0,0,0,1.52-.16l.78.77a2.42,2.42,0,0,0,2.46,1.49.46.46,0,0,0,.06.4,9.3,9.3,0,0,0,.75,1,.39.39,0,0,0,.26.14l0,.07h0c.08.21.15.43.23.65a.38.38,0,0,0,.22.22,11.42,11.42,0,0,0,.5,1.06.46.46,0,0,0,.19.19l0,.09h0c0,.14.08.28.14.42a.44.44,0,0,0,.83-.26l-.07-1a.59.59,0,0,0,0-.2C178.63,180.55,178.64,179.68,178.68,178.81Z"/><path class="cls-2" d="M153.24,174.3l0,0h0Z"/><path class="cls-5" d="M147.45,168.69V150.87"/><path class="cls-2" d="M173.49,152.87a35.24,35.24,0,0,1-12.36,1.25c-1.72-.13-1.71,2.69,0,2.81a37.37,37.37,0,0,0,13.07-1.35C175.86,155.11,175.16,152.4,173.49,152.87Z"/><path class="cls-6" d="M178.88,186.93c0-.11-.05-.22-.08-.32a.48.48,0,0,0-.06-.54l-.09-.11a10.11,10.11,0,0,1-.17-2.12.42.42,0,0,0-.29-.42.41.41,0,0,0-.15-.28.54.54,0,0,0-.13-.25s0,0,0,0l.06-.16a.37.37,0,0,0,0-.38.41.41,0,0,0-.32-.47.44.44,0,0,0-.11-.19.35.35,0,0,0-.06-.11.44.44,0,0,0-.17-.48v0a.44.44,0,0,0-.08-.29.41.41,0,0,0-.1-.18,16.57,16.57,0,0,0-1.93-2.18c-.46-.32-.52-.22-1.06-.43s-1-.62-1.6-.89a1.64,1.64,0,0,0-1.24-.1.47.47,0,0,0-.49-.1l-.05-.05a.46.46,0,0,0-.77-.31l0,0a.44.44,0,0,0-.39,0,.4.4,0,0,0-.54,0,.51.51,0,0,0-.18-.08.45.45,0,0,0-.75-.42c-.16.15-.31.31-.44.46a.52.52,0,0,0-.22,0c0-.39-.45-.71-.75-.37l-.22.27a.38.38,0,0,0-.5.08l-.15.2a.36.36,0,0,0-.48.06.41.41,0,0,0-.63.14l0,0a1.62,1.62,0,0,1-1,0l-.11.23a.39.39,0,0,0-.36.23l-.11.25H163a.43.43,0,0,0-.77.14l0,0a.54.54,0,0,0-.18.06.37.37,0,0,0-.46.22l0,.05a.44.44,0,0,0-.52.32l0,.09a.42.42,0,0,0-.44.33l-.05.21a.41.41,0,0,0-.41.33l0,.07a.44.44,0,0,0-.52.32c0,.08,0,.15-.06.23a.39.39,0,0,0-.5.32l-.08.3a.37.37,0,0,0-.43.33l0,.15a.36.36,0,0,0-.26.31c0,.06,0,.13,0,.19a.36.36,0,0,0-.32.33c0,.14,0,.27-.06.41a.47.47,0,0,0-.34.31.45.45,0,0,0-.31.42V184a.42.42,0,0,0-.11.25.37.37,0,0,0-.06.09.38.38,0,0,0-.2.39,11.19,11.19,0,0,0,.24,1.4.41.41,0,0,0,.12.21.44.44,0,0,0,.83-.21v-.61a.44.44,0,0,0,.08-.23V185a.46.46,0,0,0,.27-.41v-.1a.47.47,0,0,0,.23-.38c0-.07,0-.14,0-.22a.45.45,0,0,0,.2-.17.36.36,0,0,0,.33-.33l.05-.39a.42.42,0,0,0,.22-.28l.05-.21a4.43,4.43,0,0,0,1.06-.51c0-.17.06-.33.1-.49a.39.39,0,0,0,.42-.33l0-.1a.43.43,0,0,0,.77-.14l.09-.27a.36.36,0,0,0,.22-.22l.07-.16a.48.48,0,0,0,.12-.18.45.45,0,0,0,.28-.06.42.42,0,0,0,.64-.26c0-.12.08-.23.12-.35a.45.45,0,0,0,.8,0l0-.08.05-.07.09-.16a3.47,3.47,0,0,0,.71-.24l0-.07a.39.39,0,0,0,.51-.2.41.41,0,0,0,.21,0,.49.49,0,0,0,.33.14.38.38,0,0,0,.51-.08l.05-.07a.48.48,0,0,0,.17-.07.42.42,0,0,0,.5-.19l0,0h0a.53.53,0,0,0,.31.2.36.36,0,0,0,.42.37c.4-.07.8-.09,1.21-.12l.36,0a.45.45,0,0,0,.22-.09l.06.05a.49.49,0,0,0,.2.47,6.36,6.36,0,0,0,1.24.45,8.12,8.12,0,0,1,1.86,1.32,14.21,14.21,0,0,1,2.47,1.86.36.36,0,0,0,.37.13h0v0h0s0,.08,0,.12a.38.38,0,0,0,.38.45.35.35,0,0,0,.18.13.74.74,0,0,1,.47.5s0,.05,0,.09a.44.44,0,0,0,.22.39v.22a.41.41,0,0,0,.25.42s0,0,0,0V186a.41.41,0,0,0,.19.38s0,0,0,.06a.38.38,0,0,0,.13.25c0,.15.1.29.16.45A.45.45,0,1,0,178.88,186.93Z"/><path class="cls-6" d="M133.39,186.93c0-.11-.05-.22-.08-.32a.48.48,0,0,0-.06-.54l-.09-.11a10.11,10.11,0,0,1-.17-2.12.42.42,0,0,0-.29-.42.41.41,0,0,0-.15-.28.54.54,0,0,0-.13-.25s0,0,0,0l.06-.16a.37.37,0,0,0,0-.38.41.41,0,0,0-.32-.47.44.44,0,0,0-.11-.19.35.35,0,0,0-.06-.11.44.44,0,0,0-.17-.48v0a.44.44,0,0,0-.08-.29.41.41,0,0,0-.1-.18,16.57,16.57,0,0,0-1.93-2.18c-.46-.32-.52-.22-1.06-.43s-1-.62-1.6-.89a1.64,1.64,0,0,0-1.24-.1.47.47,0,0,0-.49-.1l-.05-.05a.46.46,0,0,0-.77-.31l0,0a.44.44,0,0,0-.39,0,.4.4,0,0,0-.54,0,.51.51,0,0,0-.18-.08.45.45,0,0,0-.75-.42c-.16.15-.31.31-.44.46a.52.52,0,0,0-.22,0c0-.39-.45-.71-.75-.37l-.22.27a.38.38,0,0,0-.5.08l-.15.2a.36.36,0,0,0-.48.06.41.41,0,0,0-.63.14l0,0a1.62,1.62,0,0,1-1,0l-.11.23a.39.39,0,0,0-.36.23l-.11.25h-.07a.43.43,0,0,0-.77.14l0,0a.54.54,0,0,0-.18.06.37.37,0,0,0-.46.22l0,.05a.44.44,0,0,0-.52.32l0,.09a.42.42,0,0,0-.44.33l-.05.21a.41.41,0,0,0-.41.33l0,.07a.44.44,0,0,0-.52.32c0,.08,0,.15-.06.23a.39.39,0,0,0-.5.32l-.08.3a.37.37,0,0,0-.43.33l0,.15a.36.36,0,0,0-.26.31c0,.06,0,.13,0,.19a.36.36,0,0,0-.32.33c0,.14,0,.27-.06.41a.47.47,0,0,0-.34.31.45.45,0,0,0-.31.42V184a.42.42,0,0,0-.11.25.37.37,0,0,0-.06.09.38.38,0,0,0-.2.39,11.19,11.19,0,0,0,.24,1.4.41.41,0,0,0,.12.21.44.44,0,0,0,.83-.21v-.61a.44.44,0,0,0,.08-.23V185a.46.46,0,0,0,.27-.41v-.1a.47.47,0,0,0,.23-.38c0-.07,0-.14,0-.22a.45.45,0,0,0,.2-.17.36.36,0,0,0,.33-.33l.05-.39a.42.42,0,0,0,.22-.28l.05-.21A4.43,4.43,0,0,0,115,182c0-.17.06-.33.1-.49a.39.39,0,0,0,.42-.33l0-.1a.43.43,0,0,0,.77-.14l.09-.27a.36.36,0,0,0,.22-.22l.07-.16a.48.48,0,0,0,.12-.18.45.45,0,0,0,.28-.06.42.42,0,0,0,.64-.26c0-.12.08-.23.12-.35a.45.45,0,0,0,.8,0l0-.08.05-.07.09-.16a3.47,3.47,0,0,0,.71-.24l0-.07a.39.39,0,0,0,.51-.2.41.41,0,0,0,.21,0,.49.49,0,0,0,.33.14.38.38,0,0,0,.51-.08l.05-.07a.48.48,0,0,0,.17-.07.42.42,0,0,0,.5-.19l0,0h0a.53.53,0,0,0,.31.2.36.36,0,0,0,.42.37c.4-.07.8-.09,1.21-.12l.36,0a.45.45,0,0,0,.22-.09l.06.05a.49.49,0,0,0,.2.47,6.36,6.36,0,0,0,1.24.45,8.12,8.12,0,0,1,1.86,1.32,14.21,14.21,0,0,1,2.47,1.86.36.36,0,0,0,.37.13h0v0h0s0,.08,0,.12a.38.38,0,0,0,.38.45.35.35,0,0,0,.18.13.74.74,0,0,1,.47.5s0,.05,0,.09a.44.44,0,0,0,.22.39v.22a.41.41,0,0,0,.25.42s0,0,0,0V186a.41.41,0,0,0,.19.38s0,0,0,.06a.38.38,0,0,0,.13.25c0,.15.1.29.16.45A.45.45,0,1,0,133.39,186.93Z"/><path class="cls-2" d="M165.85,148.55a2.64,2.64,0,0,0-.86.15,2.81,2.81,0,0,0-.5-.05c-3.45,0-3.45,5.63,0,5.63a2.64,2.64,0,0,0,.86-.15,2.81,2.81,0,0,0,.5.05C169.3,154.17,169.31,148.55,165.85,148.55Z"/><path class="cls-2" d="M186.82,117.22a37.37,37.37,0,0,0-17.28.69,2.64,2.64,0,0,0-1.85,3.08,2.59,2.59,0,0,0-.48,1.59,8.46,8.46,0,0,0,.08.89,3.37,3.37,0,0,0-.46,1.44c-.13,1.42-.17,2.88-.23,4.33a3.06,3.06,0,0,0-.57,1.68,18.78,18.78,0,0,0,0,2.79,7.35,7.35,0,0,0-4.37-1.28,8.8,8.8,0,0,0-2.92.59,4.71,4.71,0,0,0-1.2.76,2.61,2.61,0,0,0-1.56.81c-.26.26-.53.51-.79.76a2.69,2.69,0,0,0-1,.68,9.64,9.64,0,0,0-.62.75,2.31,2.31,0,0,0-1,.4c-2.83,2-4.43,4.87-6,7.86a16.3,16.3,0,0,1-1.9-.7c-3.17-1.4-4.56,4-1.42,5.43a19.9,19.9,0,0,0,6,1.52,52.69,52.69,0,0,0,13.95,2.75c1.29.14,1.24-.71,2.51-.38,1.11.29,1.79.94,3.95.23a22.23,22.23,0,0,0,5.88-1.84c1.77-.8,4.27-2.09,5.53-3.66a3.08,3.08,0,0,0,.4-.67,23.53,23.53,0,0,0,3-2.37c2.14-2.07,2.51-4.59,3-7.47a3,3,0,0,0-.29-2,21,21,0,0,0,1.09-6.54,2.62,2.62,0,0,0-.29-1.24c.13-.76.22-1.53.23-1.7a14.44,14.44,0,0,0,0-4.1c.16-.53-.3-1.84-.17-2.4C188.4,118.56,188.29,117.49,186.82,117.22Z"/><path class="cls-2" d="M155.26,133.78a5.85,5.85,0,0,1-1.33.25.49.49,0,0,0-.38-.25,22.74,22.74,0,0,0-2.76-.21,3.34,3.34,0,0,0-2.07-.49,3,3,0,0,0-1-.17c-2.19,0-4.28-.45-6.45-.46h-.06a2.68,2.68,0,0,0-2-.76c-4.76.19-10.34-.3-14.4,2.73a2.42,2.42,0,0,0-1.66.11c-.13-3.61-.33-7.17-.57-10.78a3.61,3.61,0,0,0-.8-2.06,3.27,3.27,0,0,0,.58-1.85,3.43,3.43,0,0,0-.92-2.32,3,3,0,0,0-3.07-.76l-.16,0a5.51,5.51,0,0,0-.55,0,3.2,3.2,0,0,0-1.58-.41c-4.27,0-8.42-.26-12.69,0-2.8.19-2.81-.16-2.81,5.47,0-1.52.34.2.51,1.78l0,.22a2.72,2.72,0,0,0-.28,1.62l.22,1.82a3.4,3.4,0,0,0,.1.45,3.39,3.39,0,0,0-.14,1.79c.6,2.95.53,6.23,1.46,9.09a3.7,3.7,0,0,0,0,1.15c0,.08,0,.15,0,.23a2.32,2.32,0,0,1,.33.63q.05.18.12.36-.14-.33,0,0c.13.32.28.63.38,1,.16.48.27,1,.38,1.47a2.3,2.3,0,0,1,0,.73,30.73,30.73,0,0,0,2.28,4.1c2.09,3.22,4.82,5,8,7a3,3,0,0,0,1.77.4,2.64,2.64,0,0,0,2.2.83l.62,0a3.18,3.18,0,0,0,.63-.11l1.1.1a3.24,3.24,0,0,0,1.42.47,12.16,12.16,0,0,0,3.33-.29,3,3,0,0,0,.71.06,10.42,10.42,0,0,0,1.76-.24,2.35,2.35,0,0,0,1.87-.05l1.53-.67a3.14,3.14,0,0,0,1.24-.18,24.32,24.32,0,0,0,2.76-1.14,3.2,3.2,0,0,0,1.14-.36c.26-.14.47-.27.68-.4.86-.53,1.64-1.07,2.39-1.64a3.12,3.12,0,0,0,1.59-.77,7.39,7.39,0,0,0,1.1-1,2.91,2.91,0,0,0,1.22-.59l.28-.22a3.52,3.52,0,0,0,.33-.32l0,0,.14-.18.09-.12a129.19,129.19,0,0,0,8-10.78,3.28,3.28,0,0,0,.32-.67,16.92,16.92,0,0,1,3.33-2.63C156.05,134.39,155.75,133.63,155.26,133.78Z"/><path class="cls-2" d="M174.71,104.32l-.18.05a.83.83,0,0,0-.45.33l-4.37,3.12a2.48,2.48,0,0,0-1.33.25,27.47,27.47,0,0,0-4.51,2.69,2.54,2.54,0,0,0-.35.32A2.24,2.24,0,0,0,163,111h-.44a2,2,0,0,0-1.47.57,1.79,1.79,0,0,0-2.08-.5c-3.25,1.25-6.43,2.07-9.73,3a2.6,2.6,0,0,0-1.81-.37,15.75,15.75,0,0,1-3.45.11A6.32,6.32,0,0,0,141,114c-.84-.06-1.69-.15-2.56-.25-1.16-.3-2.29-.73-3.54-1a49.71,49.71,0,0,1-6.63-1.47,1.51,1.51,0,0,0-.43-.08l-.47-.31a1.49,1.49,0,0,0-.44-.22,1.68,1.68,0,0,0-.86-1.31c-1.41-.84-2.88-1-4.33-1.68-1.26-.58-2.29-1.49-3.55-2a1.3,1.3,0,0,0-.84-.08,13.82,13.82,0,0,0-1.38-.79.51.51,0,0,0-.17-.58c-.5-.36-2.48-2.72-3-1-.24.79.88,1.71,1.75,2a.53.53,0,0,0,.1.27,3.57,3.57,0,0,0,1,.93,4.82,4.82,0,0,0,.37.46,1.66,1.66,0,0,0,.41,1.88l.33.27a1.46,1.46,0,0,0,1.07,1.09,1.57,1.57,0,0,0,.89,1.75c.13.07.26.15.38.23l.07.17a2.18,2.18,0,0,0,.15.6c.08.2.18.39.27.58a1.65,1.65,0,0,0,0,1.33c.06.16.12.3.18.45h0l0,0a9.69,9.69,0,0,0,1.13,2.06,1.68,1.68,0,0,0,.13,1.65c.15.26.31.5.47.75a1.57,1.57,0,0,0,0,1.24l.31.82c.23.77.56,2.28.65,1.94,0,.62-.19,1.26-.18,1.89,0,2,.68,4.14.45,6.08a2.18,2.18,0,0,0,.17,2l0,.06,0,.08a.43.43,0,0,0-.13.34.45.45,0,0,1,0,.28h0s0,.08,0,.12a.44.44,0,0,0,.86.15c.24.16.58.12.63-.25v-.08l.12,0a1.63,1.63,0,0,0,1.09-.38,1.49,1.49,0,0,0,.79-1.21c.37-2.57-.47-5.1-.32-7.67,0-.43,0-.84,0-1.23a1.55,1.55,0,0,0,.85-.3,16.78,16.78,0,0,1,4.09-2.16,8.13,8.13,0,0,0,2-.15,1.86,1.86,0,0,0,1.4.3,23.26,23.26,0,0,0,3.1-.73,1.42,1.42,0,0,0,.86.43,4.36,4.36,0,0,0,2.93-.22,3.14,3.14,0,0,0,.77.19,6.81,6.81,0,0,0,3.3-.46,2.58,2.58,0,0,0,.51.23,2.9,2.9,0,0,0,1.26.11h.18a1.73,1.73,0,0,0,1.57.66c1.36-.17,2.75-.34,4.16-.55a1.71,1.71,0,0,0,1.58.59c.68-.09,1.36-.18,2-.3a2.22,2.22,0,0,0,1.47,1.51c1.62.5,4,1.19,4.38,3.29a1.89,1.89,0,0,0,.8,1.32,24.94,24.94,0,0,0-.18,2.53.92.92,0,0,0,.11.45c-.55.49-.38,1.67.54,1.66a2,2,0,0,1,1.39.51c.76.61,1.6-.53,1.22-1.28-.07-.15-.12-.3-.18-.45a1,1,0,0,0,.09-.17,5.21,5.21,0,0,0,.19-2.87,5.77,5.77,0,0,0-.21-.72,2.09,2.09,0,0,0,.61-1.59,19,19,0,0,1,.77-4.82,2.29,2.29,0,0,0,.24-1.61l2.43-5.56a2.68,2.68,0,0,0,.22-1.07c.23-.34.47-.68.72-1a2.92,2.92,0,0,0,.43-.78,27.71,27.71,0,0,1,2.52-3.49.93.93,0,0,0,.23-.64l1.14-.81C176.2,105.46,175.73,104,174.71,104.32Z"/><path class="cls-4" d="M147.24,113.84l-2.77,0a9.85,9.85,0,0,0-2.34,0,.9.9,0,0,0-.62.65,12.53,12.53,0,0,0,.2,2.69,29.36,29.36,0,0,0,.14,3.19.9.9,0,0,0,1.35.54,8.6,8.6,0,0,1,2.49,0,1.39,1.39,0,0,0,1.59-.42,5.72,5.72,0,0,0,.65-2.44c.14-1,0-2.07.18-3.07A.94.94,0,0,0,147.24,113.84Z"/><path class="cls-4" d="M162.41,130.52a2.89,2.89,0,0,0,.18-1.14,2.57,2.57,0,0,0,.45-2.14c-1.42-5.25-6.47-5.53-11.08-5.81h-.22a2.42,2.42,0,0,0-.5-.11,75.53,75.53,0,0,0-20.31.48c-2.34.42-4.17,1.13-5.59,3.19-1.61,2.34-.7,4.26.2,6.74,0,.08.07.14.1.22.09.88-.28,1.05.31,1.09-.15.34.08.83.48.66a3.63,3.63,0,0,1,1.21-.3.43.43,0,0,0,.36-.25c.77,0,1.51,0,1.68-.43a1.78,1.78,0,0,0,1.85-.17l.93-.38a16.48,16.48,0,0,0,1.95-.14,20.67,20.67,0,0,0,3.4-.2,11.48,11.48,0,0,0,1.2.17,14,14,0,0,1,2.45.33.41.41,0,0,0,.33-.05,2.42,2.42,0,0,0,.91.3c3.88.46,8.12,1.21,12.08,1.09a2.28,2.28,0,0,0,2.74-.31c1-.95,2.37-.95,3.5-1.49a1.13,1.13,0,0,0,1.09.14,1.31,1.31,0,0,0,.57-1A.41.41,0,0,0,162.41,130.52Z"/><path class="cls-7" d="M105,89c-2.84,0-5.36-3.82-5.36-6.8s2.68-6.33,5.36-6.33"/><path class="cls-7" d="M185.41,89c2.84,0,5.36-3.82,5.36-6.8s-2.68-6.33-5.36-6.33"/><path class="cls-8" d="M187.93,117.11c0-7.86-6.05-11.69-13.69-12.66"/><path class="cls-8" d="M100.56,119c0-7.86,6.2-15.45,13.84-16.41"/><line class="cls-5" x1="142.09" y1="120.86" x2="141.2" y2="112.89"/><line class="cls-5" x1="147.45" y1="120.86" x2="148.34" y2="112.89"/><path class="cls-8" d="M133.16,190.73c0-9.93,4.88-22.32,11.71-22.32s12.41,12.39,12.41,22.32"/><path class="cls-7" d="M111.58,190.26a10.79,10.79,0,1,1,21.56,0"/><path class="cls-8" d="M111.28,186.51c0-5.7,5-10.32,11.16-10.32s11.16,4.62,11.16,10.32"/><path class="cls-8" d="M156.83,185.57c0-5.18,5-9.38,11.16-9.38s10.72,3.73,10.72,8.91"/><path class="cls-7" d="M157.23,190.26c0-6.25,4.71-11.32,10.51-11.32s10.51,5.07,10.51,11.32"/><path class="cls-8" d="M111.58,190.26s-2.62-8.53,3.72-35.17"/><path class="cls-8" d="M178.38,191.27s2.26-11.75-4.14-39"/><path class="cls-9" d="M100.18,119c1.06,15.21.55,36,20.09,38.2A29.85,29.85,0,0,0,140.55,152c7.85-5.65,10.26-16,19.95-19.49.45-.16.26-.89-.2-.72-6.69,2.41-10.08,7.7-14.08,13.2a27.58,27.58,0,0,1-20.49,11.54c-7.66.63-16-1.85-20-8.85-4.85-8.35-4.13-19.36-4.78-28.66,0-.48-.78-.48-.75,0Z"/><path class="cls-9" d="M187.55,116.29c1,5.76.59,11-.13,16.79-.45,3.62-.13,7.69-2.24,10.71-2.23,3.2-5.73,5.63-9.15,7.51-10.63,5.83-22.45.34-33.39-1.72-.47-.09-.67.63-.2.72,12.81,2.41,24.87,7.95,36.76-.08,2.2-1.49,4.92-3.26,6.53-5.39,2-2.63,1.77-5.59,2.09-8.74.69-6.83,1.59-13.14.45-20-.08-.48-.8-.27-.72.2Z"/><path class="cls-9" d="M111.9,103.31c8,7.81,11.42,20.72,10.61,31.62,0,.48.71.48.75,0,.83-11.11-2.71-24.2-10.83-32.15-.35-.34-.88.19-.53.53Z"/><path class="cls-9" d="M120.84,136.86c9.72-6.66,24.16-3.8,35.09-2.49.48.06.47-.69,0-.75-11.05-1.32-25.6-4.16-35.47,2.6-.4.27,0,.92.38.65Z"/><ellipse class="cls-10" cx="145.28" cy="82.41" rx="40.7" ry="31.41"/><path class="cls-9" d="M176.06,104.66c-7.71,8.46-9.84,17.27-10.67,28.44,0,.48.71.48.75,0,.82-11,2.85-19.56,10.45-27.91.32-.36-.2-.89-.53-.53Z"/><path class="cls-5" d="M125.76,133.52l-1.08-6.1c0-3.09,3-5.16,6.49-5.63a115.2,115.2,0,0,1,25.42,0c3.52.51,6.49,2.53,6.49,5.63l-.54,5.16"/><rect class="cls-11" x="116.35" y="67.88" width="55.95" height="36.57" rx="11" ry="11"/><line class="cls-8" x1="111.28" y1="190.26" x2="132.71" y2="190.26"/><line class="cls-8" x1="156.83" y1="190.73" x2="178.26" y2="190.73"/><path class="cls-8" d="M168.44,118a55,55,0,0,1,20.1-.47"/><path class="cls-8" d="M168.89,117.58s8-6.56,16.08-8.44"/><path class="cls-8" d="M120.65,117.11a55,55,0,0,0-20.1-.47"/><path class="cls-8" d="M120.21,116.64s-8-6.56-16.08-8.44"/><path class="cls-12" d="M133.37,72.69a26.86,26.86,0,0,1-2.56,3.82q-1.4,1.79-3,3.44c-1,1.1-2.14,2.14-3.28,3.13a26.57,26.57,0,0,1-3.69,2.74A26.57,26.57,0,0,1,123.43,82c.94-1.19,1.92-2.34,3-3.43s2.14-2.14,3.29-3.13A26.86,26.86,0,0,1,133.37,72.69Z"/><path class="cls-12" d="M133.37,77.94A26.52,26.52,0,0,1,130,82.23a26.22,26.22,0,0,1-4.11,3.59,26.22,26.22,0,0,1,3.39-4.28A26.52,26.52,0,0,1,133.37,77.94Z"/><ellipse class="cls-6" cx="149.43" cy="126.99" rx="1.53" ry="1.61"/><ellipse class="cls-6" cx="157.08" cy="126.99" rx="1.53" ry="1.61"/><rect class="cls-13" x="127.35" y="125.55" width="17.86" height="3.75"/><path class="cls-4" d="M159.51,53.34c-3.74-2.68-9.92-1.58-14.29-1.88-5.2-.35-9.58,1.15-14.29,1.88-.32,0-.66.36-1,.35a.56.56,0,0,0,0,.33,8.68,8.68,0,0,0,.86,1.68c.38.53,1,.85,1.31,1.39a.42.42,0,0,0,.45.2c.81,2.54,2.69,5.32,3.44,7.32a3.3,3.3,0,0,0,.51,2.71,4.56,4.56,0,0,1,1.64,0h0c4.58-.07,9.16-.18,13.75,0a2.93,2.93,0,0,0,.77-2,10.26,10.26,0,0,1,.66-3.47,2.85,2.85,0,0,0,.6-.86,16.83,16.83,0,0,1,2.93-4.85,2.85,2.85,0,0,0,.62-1.2l0,0c.32-.27.61-.56.91-.86C159.51,53.34,159.56,53.38,159.51,53.34Z"/><path class="cls-9" d="M167.81,134.67a9.64,9.64,0,0,0-4.87-2.85,18.14,18.14,0,0,0-3.43.12.38.38,0,0,0,0,.75c.93,0,1.83-.25,2.76-.2,2,.12,3.61,1.39,5,2.7.35.33.88-.2.53-.53Z"/><path class="cls-5" d="M153.31,63.69s-10-2.13-18-.06"/><path class="cls-5" d="M155,59s-11.9-2.54-21.43-.07"/><path class="cls-5" d="M158.17,54.75s-15.51-2.65-27.23.38"/><path class="cls-8" d="M159.51,53.34s-12.06-5.16-29.47,0"/><path class="cls-6" d="M158.6,53.46a28,28,0,0,0-6.77,13.46c-.09.47.63.67.72.2A27.27,27.27,0,0,1,159.13,54c.32-.36-.21-.89-.53-.53Z"/><path class="cls-6" d="M129.57,54.34a25.7,25.7,0,0,1,6.33,12.74c.09.47.81.27.72-.2a26.43,26.43,0,0,0-6.52-13.07c-.32-.36-.85.17-.53.53Z"/><path class="cls-14" d="M133.57,229.08c4.59,8.36,5.86,16.62,2.83,18.46s-9.21-3.45-13.81-11.8-5.86-16.62-2.83-18.46S129,220.72,133.57,229.08Z"/><path class="cls-14" d="M128.5,257c2.31,4.21,3,8.37,1.43,9.3s-4.64-1.74-7-5.94-3-8.37-1.43-9.3S126.19,252.77,128.5,257Z"/><path class="cls-14" d="M110.13,225.11c5.43,8,7.48,16.26,4.57,18.44S105,241,99.61,233,92.13,216.71,95,214.54,104.7,217.1,110.13,225.11Z"/><polygon class="cls-15" points="185.59 202.59 184.57 202.08 207.67 157.44 208.69 157.95 185.59 202.59"/><path class="cls-15" d="M230.05,192.39c-4.21,8-27.35-17.75-31.93-16.27l8.95-17c4.21-8,26.3,19.76,31.93,16.27Z"/><text class="cls-16" transform="translate(205.92 172.67) rotate(29.55)"><tspan class="cls-17">s</tspan><tspan x="5.7" y="0">.</tspan><tspan class="cls-18" x="8.77" y="0">o</tspan><tspan x="16.55" y="0">.s</tspan></text><path d="M81.78,46.78a1.89,1.89,0,0,1-3.78,0,1.89,1.89,0,1,1,3.78,0Z"/><path d="M91.24,46.76a1.89,1.89,0,0,1,1.9-1.87,1.89,1.89,0,0,1,0,3.78A1.89,1.89,0,0,1,91.24,46.76Z"/><path d="M88.37,46.81a1.88,1.88,0,1,1-1.85-1.92A1.89,1.89,0,0,1,88.37,46.81Z"/><polygon class="cls-19" points="33.62 54.45 36.15 55.67 38.59 54.28 38.21 57.06 40.29 58.96 37.52 59.46 36.37 62.02 35.04 59.54 32.24 59.24 34.19 57.2 33.62 54.45"/><polygon class="cls-19" points="43.62 14.45 46.15 15.67 48.59 14.28 48.21 17.07 50.29 18.96 47.52 19.46 46.37 22.02 45.04 19.54 42.24 19.24 44.19 17.2 43.62 14.45"/><polygon class="cls-19" points="25.48 131.3 28 132.55 30.46 131.18 30.05 133.96 32.12 135.87 29.34 136.34 28.17 138.9 26.86 136.41 24.06 136.08 26.03 134.06 25.48 131.3"/><polygon class="cls-19" points="58.75 100.6 61.27 101.84 63.73 100.47 63.33 103.25 65.39 105.16 62.62 105.64 61.44 108.19 60.13 105.7 57.34 105.37 59.3 103.36 58.75 100.6"/><polygon class="cls-19" points="79.97 165.23 77.45 166.48 75 165.1 75.4 167.89 73.34 169.8 76.11 170.28 77.29 172.83 78.6 170.34 81.39 170.01 79.43 167.99 79.97 165.23"/><polygon class="cls-19" points="34.45 223.56 31.92 224.8 29.47 223.43 29.87 226.21 27.81 228.12 30.58 228.6 31.76 231.15 33.07 228.66 35.86 228.33 33.9 226.32 34.45 223.56"/><polygon class="cls-19" points="39.07 176.6 36.55 177.84 34.1 176.47 34.5 179.25 32.44 181.16 35.21 181.64 36.39 184.19 37.7 181.7 40.49 181.37 38.53 179.35 39.07 176.6"/><polygon class="cls-19" points="277.62 10.45 280.15 11.67 282.59 10.28 282.21 13.06 284.29 14.96 281.52 15.46 280.37 18.02 279.04 15.54 276.24 15.24 278.19 13.2 277.62 10.45"/><polygon class="cls-19" points="228.38 28.56 230.9 29.8 233.36 28.43 232.95 31.21 235.02 33.12 232.25 33.6 231.07 36.15 229.76 33.66 226.97 33.33 228.93 31.32 228.38 28.56"/><polygon class="cls-19" points="265.75 135.6 268.27 136.84 270.73 135.47 270.33 138.25 272.39 140.16 269.62 140.64 268.44 143.19 267.13 140.7 264.34 140.37 266.3 138.35 265.75 135.6"/><polygon class="cls-19" points="270.97 45.23 268.45 46.48 266 45.1 266.4 47.89 264.34 49.8 267.11 50.27 268.29 52.83 269.6 50.34 272.39 50.01 270.43 47.99 270.97 45.23"/><polygon class="cls-19" points="279.35 93.3 276.82 94.55 274.37 93.17 274.77 95.96 272.71 97.87 275.48 98.34 276.66 100.9 277.97 98.41 280.76 98.08 278.8 96.06 279.35 93.3"/><polygon class="cls-19" points="211.44 100.56 208.92 101.8 206.47 100.43 206.87 103.21 204.81 105.12 207.58 105.6 208.76 108.15 210.07 105.67 212.86 105.33 210.9 103.32 211.44 100.56"/><polygon class="cls-19" points="207.07 58.6 204.55 59.84 202.1 58.47 202.5 61.25 200.44 63.16 203.21 63.64 204.39 66.19 205.7 63.7 208.49 63.37 206.53 61.35 207.07 58.6"/><polygon class="cls-19" points="186.47 17.71 189.22 17.1 190.28 14.49 191.7 16.92 194.51 17.12 192.64 19.22 193.32 21.95 190.74 20.83 188.36 22.32 188.63 19.52 186.47 17.71"/><polygon class="cls-19" points="142.35 35.12 141.16 37.67 138.39 38.13 140.45 40.05 140.03 42.83 142.49 41.47 145.01 42.72 144.47 39.96 146.44 37.95 143.65 37.61 142.35 35.12"/><polygon class="cls-19" points="112.68 5.13 111.49 7.67 108.72 8.14 110.77 10.06 110.36 12.84 112.82 11.48 115.34 12.73 114.8 9.97 116.77 7.96 113.98 7.62 112.68 5.13"/><polygon class="cls-19" points="253.97 211.23 251.45 212.48 249 211.1 249.4 213.89 247.34 215.8 250.11 216.28 251.29 218.83 252.6 216.34 255.39 216.01 253.43 213.99 253.97 211.23"/><polygon class="cls-19" points="283.35 281.3 280.82 282.55 278.37 281.18 278.77 283.96 276.71 285.87 279.48 286.34 280.66 288.9 281.97 286.41 284.76 286.08 282.8 284.06 283.35 281.3"/><polygon class="cls-19" points="187.44 285.56 184.92 286.8 182.47 285.43 182.87 288.21 180.81 290.12 183.58 290.6 184.76 293.15 186.07 290.67 188.86 290.33 186.9 288.32 187.44 285.56"/><polygon class="cls-19" points="221.07 239.6 218.55 240.84 216.1 239.47 216.5 242.25 214.44 244.16 217.21 244.64 218.39 247.19 219.7 244.7 222.49 244.37 220.53 242.35 221.07 239.6"/><polygon class="cls-19" points="112.53 277.89 110.07 276.52 109.81 273.72 107.75 275.63 105 275.02 106.19 277.57 104.75 279.99 107.54 279.65 109.4 281.77 109.95 279.01 112.53 277.89"/><polygon class="cls-19" points="31.89 274.06 29.44 272.69 29.18 269.89 27.11 271.8 24.37 271.19 25.55 273.74 24.11 276.16 26.91 275.82 28.76 277.93 29.31 275.18 31.89 274.06"/><polygon class="cls-19" points="79.97 250.66 77.51 249.28 77.25 246.48 75.19 248.4 72.44 247.78 73.63 250.33 72.19 252.75 74.98 252.42 76.84 254.53 77.39 251.77 79.97 250.66"/><polygon class="cls-19" points="224.93 135.91 225.22 138.71 223.08 140.53 225.83 141.12 226.9 143.72 228.31 141.29 231.11 141.07 229.24 138.97 229.89 136.24 227.32 137.38 224.93 135.91"/><polygon class="cls-19" points="252.73 172.67 253.02 175.47 250.88 177.29 253.63 177.88 254.7 180.48 256.11 178.05 258.92 177.83 257.04 175.74 257.69 173 255.13 174.14 252.73 172.67"/><polygon class="cls-19" points="278.25 224.69 278.54 227.48 276.4 229.31 279.15 229.9 280.22 232.49 281.63 230.06 284.44 229.84 282.56 227.75 283.21 225.01 280.64 226.16 278.25 224.69"/></g></svg>