<svg xmlns="http://www.w3.org/2000/svg" viewBox="0 0 178.3 142"><defs><style>.cls-1{fill:#ff4848;}.cls-2{fill:#1b85cc;}.cls-3{fill:#fed12a;}.cls-4{fill:#59ff50;}.cls-5{fill:#3692dd;}.cls-6{fill:#1076af;}.cls-7{fill:#fff;}.cls-8{fill:#494949;}.cls-9{fill:#1e1e1e;}.cls-10{fill:#0f77b2;}.cls-11{fill:#f67758;}.cls-12{fill:#c240ff;}</style></defs><title>Ativo 2aasd</title><g id="Camada_2" data-name="Camada 2"><g id="Camada_3" data-name="Camada 3"><polygon class="cls-1" points="11.94 13.99 12.79 15.3 11.23 15.38 9.66 15.46 10.38 14.07 11.09 12.68 11.94 13.99"/><polygon class="cls-2" points="18.4 35.03 20.17 35.39 18.97 36.75 17.77 38.1 17.2 36.38 16.63 34.67 18.4 35.03"/><polygon class="cls-1" points="156.45 48.8 157.33 50.38 155.53 50.35 153.72 50.33 154.64 48.78 155.57 47.22 156.45 48.8"/><polygon class="cls-3" points="155.28 29.44 156.35 30.29 155.07 30.8 153.8 31.3 154 29.94 154.21 28.59 155.28 29.44"/><polygon class="cls-4" points="172.58 47.12 171.11 48.58 170.57 46.58 170.03 44.57 172.04 45.11 174.05 45.65 172.58 47.12"/><polygon class="cls-4" points="46.58 18.8 45.34 20.85 44.18 18.75 43.02 16.65 45.42 16.7 47.82 16.75 46.58 18.8"/><polygon class="cls-5" points="27.9 65.81 50.89 142 164.53 109.19 144.32 31.7 27.9 65.81"/><path class="cls-6" d="M144.32,31.7a15.22,15.22,0,0,1-2.22,13.53c-4.82,6.86-38.74,48.57-42.64,52.09L38,76.13a12,12,0,0,1-3.92-2.26c-2.13-1.84-5.36-5-6.2-8.06h0a15.52,15.52,0,0,1,2.18-13.72C34.9,45.23,68.83,3.52,72.72,0l61.43,21.2a12,12,0,0,1,3.92,2.26c2.13,1.84,5.4,5.22,6.25,8.25Z"/><polygon class="cls-7" points="31.5 42.28 50.56 105.45 144.78 78.25 128.03 14 31.5 42.28"/><path class="cls-2" d="M144.77,33.41a15.48,15.48,0,0,1-2.67,11.82c-4.82,6.86-38.74,48.57-42.64,52.09L38,76.13a11.94,11.94,0,0,1-3.92-2.26c-2.13-1.84-5.36-5-6.2-8.06l23,76.19,113.64-32.81Z"/><path class="cls-8" d="M85,37.11h0a12.13,12.13,0,0,0-8.39,15l4.18,14.85a12.13,12.13,0,0,0,15,8.39h0a12.13,12.13,0,0,0,8.39-15L99.92,45.5A12.13,12.13,0,0,0,85,37.11ZM99.24,61.78a7,7,0,0,1-4.85,8.65h0a7,7,0,0,1-8.65-4.85l-4.22-15A7,7,0,0,1,86.38,42h0A7,7,0,0,1,95,46.81Z"/><circle class="cls-9" cx="94.48" cy="70.95" r="16.49" transform="translate(-15.7 28.27) rotate(-15.73)"/><circle class="cls-8" cx="94.48" cy="70.95" r="8.3" transform="translate(-15.7 28.27) rotate(-15.73)"/><path class="cls-9" d="M96.4,67.25a2.85,2.85,0,1,0-3.46,3.53l.57,6.56,5.13-1.45L95.71,70A2.85,2.85,0,0,0,96.4,67.25Z"/><path class="cls-10" d="M164.53,109.19,50.83,142A14.85,14.85,0,0,1,53,128.79c4.7-6.69,39.42-48.7,43.21-52.14l58.34,22a11.66,11.66,0,0,1,3.83,2.2C160.46,102.65,163.7,106.23,164.53,109.19Z"/><rect class="cls-11" x="0.83" y="29.85" width="4.56" height="4.56" transform="translate(-15.65 5.86) rotate(-30)"/><rect class="cls-3" x="26.05" y="2.33" width="5.42" height="5.42" transform="translate(1.62 -5.74) rotate(11.73)"/><rect class="cls-11" x="162.25" y="38" width="3" height="3"/><circle class="cls-12" cx="26.75" cy="16.5" r="2.5"/><circle class="cls-3" cx="28.25" cy="28" r="2"/><circle class="cls-4" cx="6.25" cy="49" r="3"/><circle class="cls-1" cx="18.25" cy="61" r="2.12" transform="translate(-37.79 30.77) rotate(-45)"/><circle class="cls-1" cx="164.25" cy="82" r="3.54" transform="translate(-9.88 140.16) rotate(-45)"/><circle class="cls-2" cx="176.25" cy="55.95" r="2.05"/><polygon class="cls-12" points="163.17 61 160.86 61 159.71 63 160.86 65 163.17 65 164.33 63 163.17 61"/><polygon class="cls-11" points="169.55 69.24 168.26 70.53 168.73 72.29 170.49 72.76 171.78 71.47 171.31 69.71 169.55 69.24"/></g></g></svg>