<?xml version="1.0" encoding="utf-8"?>
<!-- Generator: Adobe Illustrator 22.0.0, SVG Export Plug-In . SVG Version: 6.00 Build 0)  -->
<svg version="1.1" id="Camada_1" xmlns="http://www.w3.org/2000/svg" xmlns:xlink="http://www.w3.org/1999/xlink" x="0px" y="0px"
	 viewBox="0 0 842 250" style="enable-background:new 0 0 842 250;" xml:space="preserve">
<style type="text/css">
	.st0{fill:#FDBA50;}
	.st1{fill:#FDBA50;stroke:#000000;stroke-width:4;stroke-miterlimit:10;}
	.st2{fill:none;stroke:#000000;stroke-width:3;stroke-miterlimit:10;}
	.st3{fill:#FFFFFF;stroke:#000000;stroke-width:3;stroke-miterlimit:10;}
	.st4{fill:#D52029;}
	.st5{font-family:'Stencil';}
	.st6{font-size:26.5501px;}
	.st7{fill:#FFFFFF;}
	.st8{font-family:'ErasITC-Bold';}
	.st9{font-size:9.8251px;}
</style>
<path class="st0" d="M488.5,13.7c-0.4-1-1.1-1.8-1.8-2.4c-0.9-1.2-1.8-2.4-3.1-3.2c-1.3-0.9-3.8-0.7-4.8,0.6c0,0-0.1,0.1-0.1,0.1
	c-2.3-0.1-4.6,0.1-6.5,0.3c-8.3,0.8-16.3,2.4-24.7,2.7c-6.9,0.2-14.5,0.4-20.9,3.5c-6.1,3-6.3,8.1-5.4,14.2c0.8,5.1,8.5,2.9,7.7-2.1
	c0-0.1,0-0.1,0-0.2c0.1,0,0.1,0,0.2,0c11.5-0.9,23.1-1.8,34.6-3.1c4.8-0.5,9.9-0.6,14.5-1.9c1.7-0.5,3.5-1.3,4.6-2.7
	c0.1-0.1,0.1-0.1,0.1-0.2C485.9,21.7,490.1,17.2,488.5,13.7z"/>
<path class="st0" d="M553.5,85.6c-1.2-3.5-0.7-7.4-1.7-11c-1-3.6-1.9-7.2-2.6-10.8c-1.5-7.4-5-14.4-5.5-22.1
	c-0.4-7-1.6-14.7-4.2-21.3c-2.2-5.8-7-8.2-12.5-10.1c-4.9-1.7-7,6.1-2.1,7.7c3,1,5.7,2,7.1,5c1.3,2.8,1.7,6.1,2.3,9.1
	c1.4,6.2,1.2,12.6,2.9,18.8c1.7,6.3,3.6,12.2,5,18.6c0.6,3,1.9,5.9,2.4,8.9c0.5,3.2,0.1,6.2,1.2,9.3
	C547.5,92.5,555.3,90.4,553.5,85.6z"/>
<path class="st1" d="M565,176.1l-231.5,32.7c-6.4,1-11.9-1.9-13-8.4L286.9,60c-1-6.5,1.5-13.8,7.9-14.8l226.9-34
	c6.4-1,12.4,3.5,13.5,10l32.6,140.9C568.8,168.7,571.3,175,565,176.1z"/>
<path d="M404.7,72.5"/>
<path d="M489.4,16.7c-0.3-0.8-0.9,0.9-1.3,0.8c-0.3-0.9-1.9-5.7-2.4-6.4c-1.2-2-3.2-2.8-5.4-2.4c-14,2.1-28.1,4.3-42.1,6.4
	c-4.1,0.6-8.2,1.2-12.3,1.7c-1.9,0.3-3,1.4-3.3,3.2c-0.3,1.4,0,5.9,0,7.3c0,0.1-1.3-0.2-1.5-0.4c-0.8-3-1.5-6-0.6-9
	c0.7-2.4,2.9-3.7,5.9-4.1c4.6-0.5,9.1-1.3,13.6-1.9c11.3-1.7,22.7-3.4,34-5.1c1.8-0.3,3.6-0.5,5.3-0.9c5.4-1.1,10.4,3.9,10.1,9.4
	c0,0.8,0.4,0.7-0.3,0.7C489,16.1,489.4,16.7,489.4,16.7z"/>
<path class="st1" d="M487.9,16c10.9-1.4,21.9-3.4,32.9-5.4c7-1,16-1,18,7c6,20,7.1,38.9,12.1,58.9c1,5,0,0,2.9,15.1
	c2.6,13.9,6,27,9,41c5,24,9,45,13.4,68"/>
<path class="st2" d="M313.5,205.5c-8.7-49.8-18.7-98.8-25.7-149.8c0-3,1-6,3-8c1-1,2-2,3-2c44-9,86-13,128.5-19.8"/>
<path class="st0" d="M492.6,19.2c-0.3-0.4-0.7-0.7-1.1-1c-0.9-0.5-2.1-0.8-3.1-0.4c0,0,0,0,0,0c-0.2,0-0.4,0-0.5,0.1
	c0,0,0-0.1,0-0.1c-0.1-0.7-0.3-1.3-0.4-2c0-0.1,0-0.2,0-0.2c-0.1-1.1-0.4-2-1.2-2.8c-0.7-0.7-1.8-1.2-2.8-1.2c-0.1,0-0.3,0-0.4,0
	c-0.3,0-0.6,0.1-0.9,0.1c-1.6,0.5-2.5,1.7-2.8,3.1c-10.3,0.2-21.8,1.4-31.7,4.1c-0.9,0.2-1.5,0.7-2,1.3c-4.2,0.2-8.5,0.3-12.7,0.3
	c-1.3,0-2.2,0.5-2.9,1.2c-0.7-1.8-3-2.9-4.8-2.3c-2.2,0.7-3.3,2.7-2.8,4.9c0.3,1.5,0.6,3,0.9,4.5c0.4,1.9,2.5,3.1,4.4,2.9
	c1.7-0.2,3.3-1.7,3.4-3.5c0.5,0.2,1,0.3,1.6,0.3c3.4,0,6.8,0,10.2-0.2c0,2.5,2.5,4.9,5,3.9c3.7-1.4,7.1-3.1,10.5-5.2
	c1-0.6,1.6-1.6,1.8-2.7c6.4-1,13-1.5,19.2-1.6c0.9,0,1.6-0.3,2.2-0.7c0.5,0.3,1,0.5,1.6,0.6c0,0.2,0.1,0.4,0.1,0.6
	c0.5,1.7,2,3,3.9,2.9c0.5,0,1-0.1,1.6-0.2c0.3,0,0.7,0,1,0c1.1-0.1,2.1-0.4,2.8-1.2c0.7-0.7,1.2-1.8,1.2-2.8
	C493.8,20.9,493.3,19.9,492.6,19.2z"/>
<rect x="336.4" y="10.7" transform="matrix(0.2175 0.9761 -0.9761 0.2175 427.5343 -314.1667)" class="st3" width="146.6" height="197.7"/>
<rect x="339.4" y="12.5" transform="matrix(0.2175 0.9761 -0.9761 0.2175 433.6576 -314.0504)" class="st3" width="146.6" height="201.8"/>
<rect x="341.4" y="15.3" transform="matrix(0.2175 0.9761 -0.9761 0.2175 440.8078 -313.3143)" class="st3" width="148.8" height="206"/>
<path d="M422,50.9c1.4,4.5,2.7,9,4.1,13.5c-0.2,0-0.3,0.1-0.5,0.1c0.1,0.4,0.1,0.8,0.2,1.2c0,0.1,0,0.2,0,0.3c5.3-1,10.6-2,16-2.8
	c5.3-0.7,10.6-1.1,15.9-1.6c5.3-0.5,10.5-1.4,15.7-2.5c4.9-1,9.8-1.7,14.6-3c2.5-0.7,4.9-1.5,7.4-2.3c1-0.3,2-0.6,3-0.9l0.7-0.5
	c-1.1-3.6-2.5-9-3.6-12.6c-2,0.6-3.9,1.2-5.8,1.7c-1.6,0.5-1.6,0.5-2.1-1.1c-0.4-1.5-0.9-2.9-1.3-4.4c-2.3,0.7-4.5,1.4-6.8,2.1
	c0.6,2,1.2,3.9,1.8,5.9c-1,0.3-1.9,0.6-2.8,0.8c0.4,1.4,0.8,2.6,1.2,4c-0.6,0.2-1.2,0.4-1.9,0.6c-0.9-3-1.8-5.9-2.7-8.9
	c-0.9,0.4-1.2-0.1-1.5-0.8c-0.4-1-1-1.9-1.5-2.9c-0.2,0.3-0.2,0.5-0.2,0.7c0.1,0.9,0.2,1.8,0.5,2.6c0.3,0.9,0,1.2-0.8,1.4
	c-0.6,0.2-1.1,0.3-1.3-0.5c-0.1-0.3-0.2-0.5-0.3-0.7c-0.4-0.8-0.8-1.5-1.2-2.3c-0.1,0-0.2,0.1-0.2,0.1c0.2,1.4,0.4,2.7,0.7,4.1
	c-0.2,0.2-0.5,0.3-0.8,0.5c1.4,4.7,2.8,9.4,4.2,14.1c-0.4,0.1-0.7,0.2-1.1,0.3c-0.4-1.2-0.7-2.3-1.1-3.5c-0.2-0.7-0.3-1.6-1.6-0.9
	c-0.8-2.6-1.6-5.1-2.3-7.8c-0.8,0.3-1.4,0.6-2,0.8c-0.1,0.1-0.4,0.3-0.4,0.4c0,0.8-0.3,1.7,0.2,2.5c0.1,0.1,0,0.4,0.1,0.6
	c-0.2,0-0.2,0-0.3,0c-0.7-0.7-1.2-0.6-1.6,0.4c0,0.1-0.2,0.2-0.3,0.2c-0.5,0.2-1,0.3-1.6,0.5c-0.8-2.5-1.5-5-2.3-7.5
	c-0.4,0.1-0.7,0.2-0.8,0.2c-0.5-0.2-0.8-0.5-1-0.5c-1.4,0.4-2.8,0.8-4.2,1.3c-1.2,0.5-2.2,1.6-1.6,3.3c0.6,1.5,1,3.1,1.4,4.6
	c0.1,0.2-0.1,0.5-0.1,0.8c-0.2-0.2-0.5-0.4-0.6-0.6c-0.4-1.1-0.7-2.2-1-3.3c-1.4,0.4-2.6,0.8-4,1.2c0.9,3,1.8,6,2.7,9l-0.3,0.1
	c-0.1-0.2-0.3-0.4-0.4-0.7c-0.6-2-1.2-3.9-1.8-5.9c-1.6,0.5-3.1,0.9-4.7,1.4c0.4,1.5,0.9,2.9,1.3,4.2c0.1,0.5,0.1,0.8-0.5,0.6
	c-0.9-2.6-1.2-5.4-2.8-7.4c-0.9-0.4-1.6-0.9-2.3-1.1c-1-0.3-0.9-1.3-1.4-2.2c0.1,1,0.7,1.8,0.1,2.6c-0.5,0.6-0.8,1.3-1.2,2
	c-0.1,0.4,0.3,1,0.1,1.2c-0.5,0.6-0.1,1.1,0.1,1.7c0.2,0.9,0.5,1.9,0.8,2.8c0.2,0.6,0.1,1-0.6,1.2c-0.7-2.3-1.4-4.6-2.1-7
	c-0.8,0.2-1.5,0.5-2.3,0.7c0.3,0.9,0.5,1.7,0.7,2.5c0.2,0.8,0.7,1.5,0.4,2.4c-0.1-0.2-0.3-0.4-0.4-0.6c-0.3,0.1-0.5,0.1-0.9,0.2
	c-0.1-0.3-0.2-0.6-0.3-0.9c-0.7-2.3-1.4-4.5-2.1-6.8c-0.1-0.5,0-1.2-0.9-1.2c-0.1,0-0.2-0.3-0.2-0.4c-0.1-1-0.7-1.4-1.6-1.4
	c-0.3,0-0.5-0.1-0.8-0.1c-0.5,0-0.7-0.2-0.8-0.7c-0.2-0.9-0.5-1.7-0.8-2.5c-0.1,0-0.2,0.1-0.3,0.1c0.1,0.4,0.2,0.9,0.4,1.3
	c0.7,1.3,0.4,2.4-0.8,3.2c-0.5,0.3-0.6,0.7-0.4,1.3C422.7,50.1,422.8,50.6,422,50.9z"/>
<path d="M424.3,54.9c-2,0.6-3.9,1.2-5.8,1.7c-1.6,0.5-1.6,0.5-2.1-1.1c-0.4-1.5-0.9-2.9-1.3-4.4c-2.3,0.7-4.5,1.4-6.8,2.1
	c0.6,2,1.2,3.9,1.8,5.9c-1,0.3-1.9,0.6-2.8,0.8c0.4,1.4,0.8,2.6,1.2,4c-0.6,0.2-1.2,0.4-1.9,0.6c-0.9-3-1.8-5.9-2.7-8.9
	c-0.9,0.4-1.2-0.1-1.5-0.8c-0.4-1-1-1.9-1.5-2.9c-0.2,0.3-0.2,0.5-0.2,0.7c0.1,0.9,0.2,1.8,0.5,2.6c0.3,0.9,0,1.2-0.8,1.4
	c-0.6,0.2-1.1,0.3-1.3-0.5c-0.1-0.3-0.2-0.5-0.3-0.7c-0.4-0.8-0.8-1.5-1.2-2.3l-0.2,0.1c0.2,1.4,0.4,2.7,0.7,4.1
	c-0.2,0.2-0.5,0.3-0.8,0.5c1.4,4.7,2.8,9.4,4.2,14.1c-0.4,0.1-0.7,0.2-1.1,0.3c-0.4-1.2-0.7-2.3-1.1-3.5c-0.2-0.7-0.3-1.6-1.6-0.9
	c-0.8-2.6-1.6-5.1-2.3-7.8c-0.8,0.3-1.4,0.6-2,0.8c-0.1,0.1-0.4,0.3-0.3,0.4c0,0.8-0.3,1.7,0.2,2.5c0.1,0.1,0,0.4,0.1,0.6
	c-0.2,0-0.2,0-0.3,0c-0.7-0.7-1.2-0.6-1.6,0.4c0,0.1-0.2,0.2-0.3,0.2c-0.5,0.2-1,0.3-1.6,0.5c-0.8-2.5-1.5-5-2.3-7.5
	c-0.4,0.1-0.7,0.2-0.8,0.2c-0.5-0.2-0.8-0.5-1-0.5c-1.4,0.4-2.8,0.8-4.2,1.3c-1.2,0.5-2.2,1.6-1.6,3.3c0.6,1.5,1,3.1,1.4,4.6
	c0.1,0.2-0.1,0.5-0.1,0.8c-0.2-0.2-0.5-0.4-0.6-0.6c-0.4-1.1-0.7-2.2-1-3.3c-1.4,0.4-2.6,0.8-4,1.2c0.9,3,1.8,6,2.7,9l-0.3,0.1
	c-0.1-0.2-0.3-0.4-0.4-0.7c-0.6-2-1.2-3.9-1.8-5.9c-1.6,0.5-3.1,0.9-4.7,1.4c0.4,1.5,0.9,2.9,1.3,4.2c0.1,0.5,0.1,0.8-0.5,0.6
	c-0.9-2.6-1.2-5.4-2.8-7.4c-0.9-0.4-1.6-0.9-2.3-1.1c-1-0.3-0.9-1.3-1.4-2.2c0.1,1,0.7,1.8,0.1,2.6c-0.5,0.6-0.8,1.3-1.2,2
	c-0.1,0.4,0.3,1,0.1,1.2c-0.5,0.6-0.1,1.1,0.1,1.7c0.2,0.9,0.5,1.9,0.8,2.8c0.2,0.6,0.1,1-0.6,1.2c-0.7-2.3-1.4-4.6-2.1-7
	c-0.8,0.2-1.5,0.5-2.3,0.7c0.3,0.9,0.5,1.7,0.7,2.5c0.2,0.8,0.7,1.5,0.4,2.4c-0.1-0.2-0.3-0.4-0.4-0.6c0,0,0,0,0,0
	c0.7,2.3,1.5,4.6,2.1,6.9c2.6-0.5,5.2-0.9,7.8-1.2c5.3-0.7,10.6-1.1,15.9-1.6c5.3-0.5,10.5-1.4,15.7-2.5c4.9-1,9.8-1.7,14.6-3
	c2.5-0.7,4.9-1.5,7.4-2.3c1-0.3,2-0.6,3-0.9l0.7-0.5C426.8,64,425.4,58.5,424.3,54.9z"/>
<path class="st1" d="M570.8,210.5L334,244c-6.5,1-12.2-1.9-13.3-8.4L286.9,95.4c-1-6.5,1.6-13.8,8.1-14.9l232.2-34.8
	c6.5-1,12.7,3.4,13.8,9.9l34.6,139.7C576.5,201.9,577.4,209.4,570.8,210.5z"/>
<path class="st4" d="M360.6,218.4c-1.2,0.3-2.8,0.7-4.4,0.9c-1.9,0.2-3.4-0.5-4.5-2.1c-5.8-8.5-11.6-17-17.5-25.4
	c-1.2-1.8-1.2-3.5-0.3-5.3c1.4-2.8,3.6-4.8,6.2-6.6c13.2-9.1,26.4-18.1,39.6-27.2c11.1-7.6,22.2-15.3,33.3-23
	c15.6-10.8,31.3-21.5,46.9-32.3c10.5-7.2,20.9-14.4,31.4-21.7c2-1.4,4.1-2.5,6.5-3.1c3.3-0.7,5.2-0.1,7,2.5
	c5.5,8.2,11.2,16.3,16.8,24.5c1.5,2.2,1.5,4.1-0.1,6.6c-1.7,2.7-4.2,4.5-6.8,6.3c-11.5,7.9-23,15.8-34.5,23.8
	c-15.4,10.6-30.9,21.3-46.3,31.9c-7.7,5.3-15.5,10.6-23.2,16c-15.4,10.6-30.8,21.2-46.2,31.7C363.4,216.9,362.1,217.6,360.6,218.4z
	 M359.2,214.4C359.2,214.4,359.2,214.4,359.2,214.4c0.9-0.4,1.7-0.8,2.5-1.3c9.4-6.5,18.9-12.9,28.3-19.4c14-9.7,28.1-19.3,42.1-29
	c15.9-10.9,31.8-21.8,47.6-32.8c11.5-7.9,23-15.8,34.5-23.8c1.5-1.1,2.7-2.7,4-4.1c0.4-0.5,0.5-1,0-1.7
	c-5.7-8.3-11.4-16.6-17.1-24.9c-0.4-0.7-1-0.9-1.7-0.7c-1.3,0.4-2.7,0.7-3.9,1.4c-3.5,2.2-6.9,4.5-10.3,6.9
	c-15.7,10.8-31.3,21.6-47,32.3c-11.9,8.2-23.7,16.3-35.6,24.5c-8.5,5.9-17,11.7-25.6,17.6c-11.7,8-23.3,16-35,24.1
	c-1.6,1.1-2.8,2.6-4.1,4c-0.8,0.8-0.7,1.6,0,2.6c5.3,7.6,10.5,15.2,15.8,22.8c1.8,2.6,2,2.7,5,1.5
	C359,214.5,359.1,214.5,359.2,214.4z"/>
<text transform="matrix(0.823 -0.5681 0.5681 0.823 357.6488 204.7179)" class="st4 st5 st6">CONFIDENCIAL</text>
<text transform="matrix(0.8028 -0.5962 0.5962 0.8028 475.6359 152.4473)" class="st7 st8 st9">s.o.s cidadão</text>
</svg>
