<svg xmlns="http://www.w3.org/2000/svg" viewBox="0 0 1366 384"><defs><style>.cls-1{fill:#00776a;}.cls-2{fill:#009686;}</style></defs><title>fundo-agrade_1aasd</title><g id="Camada_2" data-name="Camada 2"><g id="Camada_2-2" data-name="Camada 2"><polygon class="cls-1" points="1029.28 252.06 1029.28 213.19 1020.43 213.19 1020.43 196.89 1006.52 196.89 1006.52 213.19 1006.52 247.05 991.35 247.05 991.35 190.62 972.39 190.62 972.39 124.16 957.22 124.16 957.22 85.29 907.92 85.29 907.92 252.06 896.54 252.06 896.54 206.92 896.54 145.48 737.27 145.48 737.27 206.92 711.99 206.92 711.99 226.99 698.08 226.99 698.08 188.11 687.97 188.11 687.97 149.24 652.57 149.24 652.57 188.11 650.04 188.11 650.04 134.19 618.44 134.19 618.44 169.31 617.6 169.31 617.6 100.74 578.36 100.74 578.36 159.27 564.08 159.27 564.08 188.11 550.18 188.11 550.18 198.15 540.07 198.15 540.07 245.79 535.01 245.79 535.01 221.97 531.22 221.97 531.22 193.13 526.16 193.13 526.16 169.31 490.76 169.31 490.76 193.13 485.71 193.13 485.71 221.97 481.92 221.97 481.92 245.79 476.86 245.79 476.86 300.97 577.99 300.97 577.99 294.7 737.27 294.7 737.27 324 896.54 324 896.54 294.7 918.03 294.7 918.03 320 972.39 320 972.39 294.7 1006.52 294.7 1015.37 294.7 1015.37 297.21 1069.73 297.21 1069.73 255.83 1029.28 255.83 1029.28 252.06"/><polygon class="cls-1" points="1286.28 254.97 1286.28 249.95 1276.17 249.95 1276.17 239.92 1252.15 239.92 1252.15 275.03 1221.42 275.03 1221.42 183.1 1212.57 183.1 1212.57 168.05 1153.16 168.05 1153.16 224.48 1119.03 224.48 1119.03 288.43 1178.44 288.43 1178.44 285.92 1212.57 285.92 1212.57 283.41 1218.02 283.41 1218.02 321.43 1296.4 321.43 1296.4 290.08 1300.19 290.08 1300.19 254.97 1286.28 254.97"/></g><g id="frente"><polygon class="cls-1" points="456.63 280.9 456.63 289.68 445.89 289.68 445.89 168.68 442.1 168.68 442.1 134.82 380.16 134.82 380.16 168.68 368.78 168.68 368.78 186.23 353.61 186.23 353.61 233.62 351.39 233.62 351.39 167.16 336.22 167.16 336.22 128.29 286.92 128.29 286.92 293.48 275.55 293.48 275.55 249.92 275.55 188.48 236.05 188.48 236.05 187.49 220.79 187.49 220.79 169.74 166.13 169.74 166.13 188.48 116.27 188.48 116.27 218.4 66.97 218.4 66.97 192.24 52.6 192.24 52.6 169.74 13.36 169.74 13.36 177.19 0 177 0 252 0 254 0 309 28.88 308.86 28.88 384 258.64 384 258.64 374.12 275.46 374.12 275.46 384 290.88 384 290.88 363 351.39 363 351.39 327.67 370.35 327.67 370.35 310.37 397.85 310.37 397.85 309.12 442.73 309.12 442.73 311 466.75 311 466.75 300.97 466.75 289.68 466.75 280.9 456.63 280.9"/><polygon class="cls-2" points="1366 384 1366 348.97 1366 336.46 1366 303.09 1335.16 303.09 1335.16 275.29 1319.75 275.29 1319.75 269.72 1314.14 269.72 1314.14 264.16 1308.53 264.16 1308.53 258.6 1281.9 258.6 1281.9 297.53 1249.67 297.53 1249.67 275.29 1249.67 80.64 1244.06 80.64 1244.06 70.91 1232.85 70.91 1232.85 59.78 1221.63 59.78 1221.63 48.66 1211.82 48.66 1211.82 0 1206.22 0 1206.22 48.66 1195 48.66 1195 59.78 1183.79 59.78 1183.79 70.91 1176.78 70.91 1176.78 80.64 1166.97 80.64 1166.97 275.29 1134.73 275.29 1134.73 232.19 1124.92 232.19 1124.92 222.45 1124.92 215.5 1124.92 201.6 1124.92 189.09 1124.92 168.23 1108.1 168.23 1108.1 189.09 1095.49 189.09 1095.49 201.6 1064.65 201.6 1064.65 215.5 1059.05 215.5 1059.05 278.07 1049.23 278.07 1049.23 176.57 1047.83 176.57 1047.83 140.42 1038.02 140.42 1038.02 123.74 1015.6 123.74 1015.6 70.91 1001.58 70.91 1001.58 123.74 977.75 123.74 977.75 140.42 966.54 140.42 966.54 176.57 927.29 176.57 927.29 312.82 921.69 312.82 921.69 308.65 921.69 265.55 911.88 265.55 911.88 247.48 896.46 247.48 896.46 265.55 896.46 303.09 879.64 303.09 879.64 240.53 858.61 240.53 858.61 166.84 841.79 166.84 841.79 123.74 787.13 123.74 787.13 308.65 774.52 308.65 774.52 258.6 774.52 228.01 774.52 190.47 774.52 172.4 683.41 172.4 683.41 190.47 673.6 190.47 673.6 123.74 634.36 123.74 634.36 190.47 597.91 190.47 597.91 258.6 569.88 258.6 569.88 280.85 554.46 280.85 554.46 237.75 543.25 237.75 543.25 194.65 504 194.65 504 237.75 501.2 237.75 501.2 177.96 494.19 177.96 494.19 155.72 471.77 155.72 471.77 177.96 466.16 177.96 466.16 216.89 461.96 216.89 461.96 205.77 439.53 205.77 439.53 216.89 428.32 216.89 428.32 205.77 405.89 205.77 405.89 237.75 390.47 237.75 390.47 248.87 379.26 248.87 379.26 301.7 373.65 301.7 373.65 275.29 369.45 275.29 369.45 243.31 363.84 243.31 363.84 216.89 358.24 216.89 358.24 114.01 330.2 114.01 330.2 216.89 324.6 216.89 324.6 243.31 318.99 243.31 318.99 275.29 314.79 275.29 314.79 301.7 309.18 301.7 309.18 336.46 304.98 336.46 304.98 355.93 297.97 355.93 297.97 350.36 297.97 340.63 286.75 340.63 286.75 350.36 274.84 350.36 274.84 216.2 270.64 216.2 270.64 178.66 265.03 178.66 265.03 167.53 260.82 167.53 260.82 156.41 254.52 156.41 254.52 151.55 250.31 151.55 250.31 145.99 243.3 145.99 243.3 140.42 239.1 140.42 239.1 134.86 232.09 134.86 232.09 140.42 227.89 140.42 227.89 145.99 222.28 145.99 222.28 151.55 216.67 151.55 216.67 156.41 210.37 156.41 210.37 167.53 206.16 167.53 206.16 178.66 201.96 178.66 201.96 216.2 189.34 216.2 189.34 235.66 182.33 235.66 182.33 157.8 172.52 157.8 172.52 134.17 166.92 134.17 166.92 125.83 123.47 125.83 123.47 134.17 119.26 134.17 119.26 157.8 108.05 157.8 108.05 332.98 102.44 332.98 102.44 341.33 85.62 341.33 85.62 324.64 80.02 324.64 80.02 312.13 64.6 312.13 64.6 324.64 61.8 324.64 61.8 341.33 54.79 341.33 54.79 253.74 42.17 253.74 42.17 237.05 9.94 237.05 9.94 253.74 0 254 0 367 0 367.74 0 384 1366 384"/></g></g></svg>