<svg xmlns="http://www.w3.org/2000/svg" viewBox="0 0 1239.95 81.41"><defs><style>.cls-1{fill:none;}.cls-2{fill:#212121;}.cls-3{fill:#fff;}.cls-4{fill:#010101;}.cls-5{fill:#020202;}.cls-6{fill:#0b0b0b;}.cls-7{fill:#121212;}</style></defs><title>Ativo 12aasd</title><g id="Camada_2" data-name="Camada 2"><g id="Camada_1-2" data-name="Camada 1"><rect class="cls-1" x="40" y="0.47" width="40" height="40"/><path class="cls-2" d="M77.35,18.9l-2.68,2c0,2-.06,4.46,0,6.88,0,1.1-.29,2-1.28,2.25a2.81,2.81,0,0,1-2.07-.56c-3.84-2.93-7.93-5.32-12.74-6.24-1.24-.24-2.48-.44-3.41.77a3,3,0,0,0-.37,3.59c.1.16.22.41.16.54-1,2.44.72,3.67,2.19,5a2.61,2.61,0,0,1,.25.34c-.73,1.48-2.21,1.68-3.59,1.83-2.77.31-4-.61-5-3.27a14.55,14.55,0,0,1-.69-9.19c-.87,0-1.58,0-2.29,0a3,3,0,0,1-3.18-3c-.06-1.19-.05-2.39,0-3.58A3.1,3.1,0,0,1,46,12.93c2,0,4.09-.13,6.12,0,7.37.49,13.64-2.13,19.26-6.66,1.18-1,2.14-.93,2.89.15A2.88,2.88,0,0,1,74.65,8c0,2.39,0,4.78,0,6.91l2.68,2.23ZM72.21,9c-2.39,1.39-4.57,2.9-6.94,4s-5,1.78-7.55,2.66v4.6c2.64.9,5.2,1.56,7.57,2.65s4.6,2.62,6.93,4Z"/><rect class="cls-1" x="80" y="0.47" width="40" height="40"/><path class="cls-2" d="M104.57,31.63c-.53,3-2.08,4.56-4.42,4.61s-4-1.44-4.72-4.62c-2.55,0-5.12,0-7.69,0a1.88,1.88,0,0,1-2-1.25,1.48,1.48,0,0,1,.2-1.29c3.66-3.44,4.9-7.85,5-12.65.08-2.83.56-5.48,2.94-7.27A36.92,36.92,0,0,1,98.36,6.7c0-1.22.6-2,1.65-2s1.64.8,1.69,2.37a9.2,9.2,0,0,1,5.6,3.25A9,9,0,0,1,109,16a19.37,19.37,0,0,0,2.34,9.52c.66,1.12,1.61,2.06,2.35,3.13a2.47,2.47,0,0,1,.6,1.57,1.74,1.74,0,0,1-1.92,1.37C109.83,31.61,107.25,31.63,104.57,31.63Zm-4.34,2.85a3.48,3.48,0,0,1-3-2.95A2.36,2.36,0,0,0,100.24,34.48Z"/><rect class="cls-1" x="120" y="0.47" width="40" height="40"/><rect class="cls-1" x="160" y="0.47" width="40" height="40"/><rect class="cls-1" x="200" y="0.47" width="40" height="40"/><rect class="cls-1" x="240" y="0.47" width="40" height="40"/><rect class="cls-1" x="280" y="0.47" width="40" height="40"/><rect class="cls-1" x="320" y="0.47" width="40" height="40"/><rect class="cls-1" x="360" y="0.47" width="40" height="40"/><rect class="cls-1" x="400" y="0.47" width="40" height="40"/><rect class="cls-1" x="440" y="0.48" width="40" height="40"/><rect class="cls-1" x="480" y="0.47" width="40" height="40"/><rect class="cls-1" x="520" y="0.48" width="40" height="40"/><rect class="cls-1" x="559.99" width="40" height="40"/><rect class="cls-1" x="600" width="40" height="40"/><rect class="cls-1" x="640" width="40" height="40"/><rect class="cls-1" x="919.59" width="40" height="40"/><rect class="cls-1" x="959.59" y="0.02" width="40" height="40"/><rect class="cls-1" x="999.59" width="40" height="40"/><rect class="cls-1" x="1039.95" y="0.49" width="40" height="40"/><rect class="cls-1" x="1079.95" y="0.67" width="40" height="40"/><rect class="cls-1" x="1119.95" y="0.49" width="40" height="40"/><rect class="cls-1" x="1159.95" y="0.49" width="40" height="40"/><rect class="cls-1" x="1199.95" y="0.49" width="40" height="40"/><rect class="cls-1" x="680" width="40" height="40"/><rect class="cls-1" x="720" width="40" height="40"/><rect class="cls-1" x="760" width="40" height="40"/><rect class="cls-1" x="799.59" width="40" height="40"/><rect class="cls-1" x="839.59" width="40" height="40"/><rect class="cls-1" x="879.59" width="40" height="40"/><path class="cls-2" d="M152.57,33.31c-1.84-.83-3.67-1.69-5.54-2.45a3.42,3.42,0,0,0-1.54,0,16.88,16.88,0,0,1-10.21-2c2-.24,3.76-.37,5.49-.7a15.23,15.23,0,0,0,7.14-3.34,9.91,9.91,0,0,0,3.63-10.31,8.19,8.19,0,0,1,5,7.22c0,2.62-1,4.15-4.94,7.48.65.84,1.36,1.65,1.93,2.55a5.7,5.7,0,0,1,.45,1.6Z"/><path class="cls-2" d="M128.35,24.59a34.85,34.85,0,0,1-3.26-3.19,6.92,6.92,0,0,1,.45-9.47c3.53-3.72,8.05-4.65,12.93-4.18a13.4,13.4,0,0,1,8.86,4.09,7.16,7.16,0,0,1,0,10.26c-3.1,3.26-7.08,4.32-11.42,4.14a8.2,8.2,0,0,0-4.86,1,16,16,0,0,1-4,1.31c-.3.08-.68-.14-1-.22a3.77,3.77,0,0,1,.35-1.11C127,26.27,127.71,25.4,128.35,24.59Z"/><rect class="cls-1" y="0.47" width="40" height="40"/><path class="cls-2" d="M19.92,38h-8.7c-3.35,0-5.46-1.63-5.81-5a17.08,17.08,0,0,1,1.94-10.7,9.19,9.19,0,0,1,3.08-2.81,2.9,2.9,0,0,1,3.63.37,10.25,10.25,0,0,0,11.86.16c1.76-1.27,3.08-1.25,4.9,0A8.21,8.21,0,0,1,34,25.58a36.83,36.83,0,0,1,.69,6.87c0,3.49-2.33,5.58-5.81,5.58Z"/><path class="cls-2" d="M20.06,20.45a8.82,8.82,0,0,1-8.87-8.74,8.85,8.85,0,0,1,17.69,0A8.76,8.76,0,0,1,20.06,20.45Z"/><path class="cls-3" d="M196.34,32.5l-10-9.77a12.68,12.68,0,1,0-4.14,4.17l10,9.8a2.94,2.94,0,0,0,4.11-4.21Zm-20.83-7.73a8.63,8.63,0,1,1,8.63-8.63A8.63,8.63,0,0,1,175.51,24.77Z"/><path d="M271.2,20.47c0,3.77,0,7.55,0,11.32,0,1.07-.15,2-1.18,2.47a2.2,2.2,0,0,1-2.68-.76c-2.21-2.26-4.45-4.5-6.64-6.78-.53-.56-.83-.59-1.38,0-2.15,2.26-4.35,4.45-6.53,6.68-.79.81-1.62,1.43-2.78.88s-1.23-1.51-1.23-2.63c0-7.44,0-14.88,0-22.32,0-2.09.7-2.83,2.71-2.83q8.51,0,17,0c2,0,2.66.71,2.67,2.83Q271.2,14.89,271.2,20.47Z"/><path d="M740,27c-1.34-.49-2.58.34-3.86,1.26a14.64,14.64,0,0,1-5.55,2.2c-.45.1-1,.23-1.23-.33s.16-.78.43-1.09.84-.88,1.2-1.37c1.36-1.86,1.3-2.25-.46-3.66-4.39-3.54-4.15-9,.79-12A15.82,15.82,0,0,1,748.62,12c5.44,3.29,5.3,9.41-.09,12.78A15.58,15.58,0,0,1,740,27Z"/><path d="M366.35,16.85c3.53,2.49,6.88,4.88,10.26,7.22,2.52,1.74,4.26,1.75,6.76,0,3.4-2.33,6.75-4.73,10.28-7.22,0,2.79,0,5.51,0,8.23,0,1.17,0,2.35,0,3.52a2.34,2.34,0,0,1-2.45,2.55q-11.19,0-22.37,0c-1.55,0-2.45-1-2.46-2.72C366.32,24.65,366.35,20.82,366.35,16.85Z"/><path d="M380,9.74c3.47,0,6.94,0,10.41,0A2.88,2.88,0,0,1,393.32,11a3.16,3.16,0,0,1-.35,3.33,7,7,0,0,1-2.14,2.16c-2.8,1.95-5.63,3.86-8.39,5.87a3.7,3.7,0,0,1-4.87,0c-2.8-2-5.67-4-8.51-6a7,7,0,0,1-2.32-2.6,2.64,2.64,0,0,1,2.42-4.06C372.78,9.7,376.41,9.74,380,9.74Z"/><path d="M431.91,20.58c0,3.11,0,3.11-3.71,3.11-2.58,0-3-.47-3-3.48,0-2.6.46-2.95,3.94-2.95C431.71,17.27,431.91,17.52,431.91,20.58Z"/><path d="M411.33,23.69c-.53,0-1.07,0-1.6,0a1.52,1.52,0,0,1-1.58-1.49,26.87,26.87,0,0,1,0-3.33,1.53,1.53,0,0,1,1.54-1.55c1.11-.07,2.22,0,3.33,0a1.15,1.15,0,0,1,.26,0c1.34.32,1.78,1.62,1.52,4.48a2,2,0,0,1-2.13,1.89c-.44,0-.89,0-1.33,0Z"/><path d="M423.09,20.72c.21,3.27-.46,3-3.07,3H419c-1.66,0-2-.39-2-2,0-.89,0-1.78,0-2.67a1.41,1.41,0,0,1,1.44-1.69,22.14,22.14,0,0,1,3.33,0A1.37,1.37,0,0,1,423.1,19,16.61,16.61,0,0,0,423.09,20.72Z"/><path d="M1012.13,19.28c0-1.43,0-2.86,0-4.28a1.1,1.1,0,0,1,.64-1.17c3.32-1.8,6.72-2.5,10.26-.71a4.79,4.79,0,0,0,4.66-.13c.4-.2.79-.41,1.2-.6,1.21-.58,1.62-.33,1.62,1,0,2.77,0,5.55,0,8.32a1.5,1.5,0,0,1-.91,1.55c-2.51,1.29-5,1.81-7.66.32-2.53-1.41-5.06-.66-7.5.46s-2.31,1.07-2.31-1.48Q1012.14,20.93,1012.13,19.28Z"/><path d="M1009.69,21.32c0-2.12,0-4.24,0-6.35,0-.79.1-1.53-.68-2.18-.61-.51-.32-1.3.22-1.84a1.46,1.46,0,0,1,2.1-.1,1.33,1.33,0,0,1,.38,1.94,3.06,3.06,0,0,0-.55,2.26q0,6.48,0,13c0,.29,0,.57,0,.86,0,.65-.39.67-.89.7s-.59-.35-.59-.78C1009.69,26.29,1009.69,23.8,1009.69,21.32Z"/><path d="M220,35c-2.4,0-4.8,0-7.2,0-2.68,0-4.17-1.6-4.23-4.3a14.11,14.11,0,0,1,1.09-6c1.32-3,3.6-3.77,6.4-2.12a7.35,7.35,0,0,0,8,0c2.62-1.55,4.63-1.09,6.07,1.55A12.65,12.65,0,0,1,231.31,32c-.23,1.81-1.9,3-4,3C224.88,35.08,222.43,35,220,35Z"/><path d="M226.21,16.27a6.23,6.23,0,1,1-6.27-6.19A6.21,6.21,0,0,1,226.21,16.27Z"/><path d="M226.21,20.46c0-.19,0-.27,0-.3,1.36-1.3.12-4.24,1.81-4.56a21.41,21.41,0,0,0,5.32-1.22c.83-.38,1.33.23,1.61.91a9.11,9.11,0,0,1,.56,5.32c-.36,1.81-4,2.72-5.65,1.51A6.12,6.12,0,0,0,226.21,20.46Z"/><path class="cls-4" d="M212.77,15.23a8.29,8.29,0,0,0,1.16,5.2,8.51,8.51,0,0,0-3.85,1.67c-1.32,1-2.91.55-4.32,0-1.19-.45-1.43-1.57-1.42-2.76a10.86,10.86,0,0,1,.64-3.94c.41-1,1-1.45,2.18-.82A6.8,6.8,0,0,0,212.77,15.23Z"/><path class="cls-4" d="M233.52,10a4.16,4.16,0,1,1-4.13-4.14A4.21,4.21,0,0,1,233.52,10Z"/><path class="cls-4" d="M210.61,5.89A4.26,4.26,0,0,1,214.79,10a4.18,4.18,0,1,1-8.35,0A4.23,4.23,0,0,1,210.61,5.89Z"/><path d="M939.4,29.88c-.07,4,.76,3.65-3.6,3.67-4.14,0-3.66.24-3.67-3.7,0-.67,0-1.35,0-2,.1-1.86.61-2,5-2,1.39,0,2.41.3,2.27,2C939.36,28.53,939.4,29.2,939.4,29.88Z"/><path d="M937.84,8.92c5.17,0,10.34,0,15.51-.05,1.14,0,1.45.3,1.45,1.44s-.31,1.46-1.45,1.44c-5.17-.07-10.34,0-15.51-.05A3.57,3.57,0,0,1,937.84,8.92Z"/><path d="M947.48,31.12c-2,0-4-.08-6,0-1.27.07-1.18-.61-1.22-1.47s.11-1.44,1.27-1.42c4,.07,8.06.09,12.09,0,1.3,0,1.17.64,1.2,1.47s0,1.49-1.25,1.42C951.52,31,949.5,31.12,947.48,31.12Z"/><path d="M941.37,21l-15.52,0c-.7,0-1.45.24-1.45-1s.75-1,1.45-1l15.52,0A1.8,1.8,0,0,1,941.37,21Z"/><path d="M928.08,31.12c-.67,0-1.34,0-2,0-1,.07-1.69,0-1.69-1.41s.56-1.52,1.65-1.45,2.15,0,3.22,0,2.24-.52,2.2,1.49-1.29,1.18-2.17,1.32A8,8,0,0,1,928.08,31.12Z"/><path d="M926.67,11.75c-.91-.23-2.29.67-2.29-1.44s1.36-1.37,2.29-1.37S929,8.21,929,10.31,927.58,11.52,926.67,11.75Z"/><path class="cls-5" d="M952.52,21a8.59,8.59,0,0,1-1.8,0c-.64-.14-.31-.77-.37-1.19s.12-.76.64-.76c.8,0,1.61,0,2.41,0s1.41-.15,1.4,1.05-.81.93-1.48,1c-.27,0-.54,0-.8,0Z"/><path d="M937.84,9.75q0,.57,0,1.13A2.2,2.2,0,0,0,937.84,9.75Z"/><path d="M934.82,6.46c-.8.06-1.61,0-2.41,0-2.71,0-2.71,0-2.71,2.8,0,5.34-.66,4.85,5,4.89a2.39,2.39,0,0,0,2.76-2.43V8.89C937.45,7.13,936.59,6.33,934.82,6.46Z"/><path d="M949.1,16.89c-1-.84-3.19-.17-4.84-.34-1.89-.18-2.56.7-2.5,2.43q0,1,0,2.06c-.11,1.9.74,2.66,2.66,2.43a14.62,14.62,0,0,1,3.41,0c1.32.15,1.86-.21,1.69-1.61C949.31,20.16,950.25,17.88,949.1,16.89Z"/><path class="cls-4" d="M545.87,9.26a1.65,1.65,0,0,1,1.24.45c1.26,1.23,2.53,2.44,3.73,3.72a1.65,1.65,0,0,1,0,2.34c-.73.85-1.44,2-2.38,2.32s-1.59-1.15-2.34-1.83c-1.17-1.05-2.25-2.21-3.36-3.34-.2-.21-.56-.34-.5-.72C542.39,11.65,545.27,9.29,545.87,9.26Z"/><path d="M546.6,18.58c-1.62-1.49-3.17-3.07-4.69-4.68-.57-.61-.87-.59-1.45,0-2.38,2.46-4.83,4.86-7.25,7.28-1.46,1.47-3.45,2.72-4.2,4.49s-.17,4-.18,6h6.23c3.82-3.83,7.63-7.67,11.48-11.47C547.16,19.62,547.36,19.28,546.6,18.58ZM535.31,28.65c-.38.59-.85,1.33-1.82,1.15-.69.16-1-.13-.86-.84s-.08-1.18-1-1.06c-.3,0-.81.29-.93-.39a2.25,2.25,0,0,1,1-2.17c.51-.45.71.05,1,.3.65.62,1.3,1.24,1.9,1.91C534.9,27.87,535.65,28.13,535.31,28.65Zm6.16-11.9q-3.58,3.59-7.18,7.17c-.23.23-.49.73-.85.37s.13-.63.36-.86q3.62-3.64,7.27-7.27c.18-.18.35-.46.67-.35.1,0,.16.19.25.32C541.81,16.34,541.66,16.55,541.47,16.74Z"/><path d="M909.26,19c-1.42-.13-1.33-1-1.28-1.94,0-.65,0-1.3,0-1.94a8.36,8.36,0,0,0-16.72-.37c-.07,1-.06,2.09,0,3.14,0,.6-.14.89-.78,1-1.22.16-1.62,1-1.62,2.13,0,3.34,0,6.68,0,10,0,1.71.63,2.28,2.39,2.29,2.74,0,5.48,0,8.23,0h8.82c1.32,0,2.09-.59,2.1-2,0-3.54,0-7.08,0-10.62C910.38,19.9,910,19.08,909.26,19Zm-5.75-.06c-1.34,0-2.69,0-4,0-1.15,0-2.3-.08-3.43,0s-1.36-.33-1.26-1.33a18.78,18.78,0,0,1,.26-3.86,4.75,4.75,0,0,1,9.31,1c.08,1.14,0,2.29,0,3.43C904.44,18.89,904.1,19,903.51,18.95Z"/><path class="cls-3" d="M311.2,20.58q0-5.72,0-11.43c0-2-.7-2.67-2.66-2.67h-17c-2,0-2.7.73-2.71,2.78q0,4.43,0,8.87c0,4.63,0,9.25,0,13.88,0,1.53.8,2.47,2,2.47a2.63,2.63,0,0,0,1.89-1c2.21-2.25,4.43-4.48,6.61-6.75.51-.53.8-.59,1.35,0,2.23,2.34,4.5,4.62,6.77,6.92a2.13,2.13,0,0,0,2.51.69A2.16,2.16,0,0,0,311.21,32C311.19,28.2,311.2,24.39,311.2,20.58ZM308.87,31c-2.51-2.32-5.29-4.84-8-7.44-.68-.65-1-.72-1.69,0-2.68,2.59-5.46,5.08-8.13,7.69,0,.09-.08.14-.08.08l.08-.08a1.09,1.09,0,0,0,.09-.41c0-6.91,0-13.83,0-20.74,0-.76.1-1.06,1-1.05q7.92.07,15.85,0c.77,0,1,.21.95,1C308.85,17.17,308.87,24.35,308.87,31Z"/><path d="M789.37,11.78A17.54,17.54,0,0,0,782,9.52c-4.6-.38-8.91.37-12.67,3.14s-4.1,7-1,10.24a8.6,8.6,0,0,0,2.36,1.79c.64.31.67.64.43,1.25A9.38,9.38,0,0,1,768.87,29c-.33.32-.82.63-.51,1.18s.85.36,1.31.28a16.35,16.35,0,0,0,6.25-2.32c1.34-.91,2.63-1.58,4-1.14a18.58,18.58,0,0,0,9.46-2.32C795.18,21.37,795.19,15.11,789.37,11.78Zm0,10.68A10.12,10.12,0,0,1,787,23.87a16.43,16.43,0,0,1-8.2,1.31,3.42,3.42,0,0,0-2.84.77,10.61,10.61,0,0,1-3.59,1.91,25,25,0,0,0,1.21-3c.17-.49.07-.72-.39-.93a12.13,12.13,0,0,1-3-1.91,4.76,4.76,0,0,1,0-7.57,13.25,13.25,0,0,1,7.8-3.16c4-.42,7.89.14,11.25,2.54S792.64,19.84,789.36,22.45Z"/><path d="M343.44,8.29a9.06,9.06,0,0,0-9.84,2.07,8.17,8.17,0,0,0-1.49,9.56c1.86,3.9,3.76,7.77,5.63,11.66a2.35,2.35,0,0,0,4.51.06q2.84-5.91,5.7-11.8a7.32,7.32,0,0,0,.86-3.4A8.77,8.77,0,0,0,343.44,8.29ZM340,20.46a4.37,4.37,0,0,1-4.37-4.27,4.42,4.42,0,0,1,8.82-.07A4.37,4.37,0,0,1,340,20.46Z"/><path d="M672,18.68a14.15,14.15,0,0,0-24,0,2,2,0,0,0,0,2.46,14,14,0,0,0,24.07,0A2,2,0,0,0,672,18.68Zm-12.36-4.73c.46,0,.88.12,1,.6s-.27.69-.66.74A3,3,0,0,0,657.11,18c-.07.46-.27.81-.82.7a.56.56,0,0,1-.49-.51A4.39,4.39,0,0,1,659.64,13.95Zm10.6,6.62c-5.35,7.38-15,7.51-20.46,0a.88.88,0,0,1-.09-1.21,12.78,12.78,0,0,1,4.61-4c-1.1,3.67-.44,6.7,3.13,8.42a5.73,5.73,0,0,0,6.64-.94c2.3-2,2.66-4.57,1.43-7.68a13.68,13.68,0,0,1,4.78,4.2A.86.86,0,0,1,670.24,20.57Z"/><path d="M587.64,15.33c-.83-.05-1.68,0-2.73,0a7,7,0,0,0,.34-5.13A3.74,3.74,0,0,0,581.5,7.8c-1.56.09-2.13,1.21-2.38,2.52a11.27,11.27,0,0,1-2.06,4.18c-1.47,2.2-3.2,3.21-5.9,2.85-1.83-.25-2.37.46-2.38,2.37q0,4,0,8c0,2,.53,2.56,2.47,2.48a16,16,0,0,1,6.83,1.09,16.17,16.17,0,0,0,7.17.87,3.83,3.83,0,0,0,3.82-3.1c.28-1.54.92-3,1.18-4.53a28.33,28.33,0,0,1,.8-4.62A3.58,3.58,0,0,0,587.64,15.33Zm-16,13.1c-.48-.07-.87-.28-.91-.85a.85.85,0,0,1,.9-1,.82.82,0,0,1,.87.89C572.5,28,572.16,28.31,571.62,28.43Zm17.32-8.17a1.69,1.69,0,0,0-.27,1.74,1,1,0,0,1,0,.82c-.91,1.27.09,3.11-1.27,4.24-.06,0,0,.17-.07.26-.6,2.83-.76,2.93-3.6,3a17.06,17.06,0,0,1-5.75-1c-.44-.15-.87-.34-1.31-.48-.74-.22-1.89-.19-2.15-.66-.38-.68-.13-1.72-.14-2.6,0-1.21,0-2.43,0-3.64,0-1.42-.06-2.48,1.56-3.64a11.16,11.16,0,0,0,4.89-7.22c.09-.58.1-1.38,1.07-1.35a1.62,1.62,0,0,1,1.66,1.41,5,5,0,0,1-.24,3,7.26,7.26,0,0,0-.9,3.17c1.7,0,3.28,0,4.87,0A1.81,1.81,0,0,1,588.94,20.26Z"/><path d="M627.65,15.33c-.83-.05-1.68,0-2.73,0a7,7,0,0,0,.34-5.13A3.74,3.74,0,0,0,621.5,7.8c-1.56.09-2.13,1.21-2.38,2.52a11.27,11.27,0,0,1-2.06,4.18c-1.47,2.2-3.2,3.21-5.9,2.85-1.83-.25-2.37.46-2.38,2.37q0,4,0,8c0,2,.53,2.56,2.47,2.48a16,16,0,0,1,6.83,1.09,16.17,16.17,0,0,0,7.17.87,3.83,3.83,0,0,0,3.82-3.1c.28-1.54.92-3,1.18-4.53a28.33,28.33,0,0,1,.8-4.62A3.58,3.58,0,0,0,627.65,15.33Zm-16,13.1c-.48-.07-.87-.28-.91-.85a.85.85,0,0,1,.9-1,.82.82,0,0,1,.87.89C612.51,28,612.16,28.31,611.62,28.43Z"/><path d="M856.73,20.28c0-1.23.46-2.81-.13-3.6s-2.29-.19-3.5-.27c-.6,0-1.21,0-1.5-.67s.22-1.1.63-1.51c2.08-2.11,4.19-4.18,6.25-6.31.78-.81,1.42-.87,2.23,0,2.13,2.2,4.31,4.35,6.46,6.52.34.35.74.72.49,1.28a1.23,1.23,0,0,1-1.33.72c-1,0-2,0-3,0-.79-.05-1,.22-1,1,.05,2,0,3.95,0,5.92,0,.82-.09,1.19-1,1.14-1.23-.07-2.47-.05-3.7,0-.8,0-1-.27-1-1,.06-1,0-2.07,0-3.11Z"/><path d="M872.8,26.42c0-1.38-.77-2-2-2-1.83,0-3.66,0-5.48,0-.4,0-.79,0-1,.43-.64,1.46-1.84,1.75-3.29,1.66a27,27,0,0,0-3.26,0,2.64,2.64,0,0,1-2.7-1.42,1.09,1.09,0,0,0-1.14-.69c-1.83,0-3.66,0-5.48,0a1.85,1.85,0,0,0-2,2c0,1.38,0,2.77,0,4.15,0,1.63.5,2.12,2.11,2.12h11.11c3.75,0,7.51,0,11.26,0,1.28,0,1.93-.55,1.92-1.86Q872.78,28.64,872.8,26.42Zm-6.14,3.35a.87.87,0,0,1-1,.88c-.67,0-1-.42-.93-1.07s.44-.82,1-.91C866.34,28.78,866.72,29.12,866.66,29.77Zm3.26.89c-.77,0-1.12-.38-1.14-1a.92.92,0,0,1,1-1,1,1,0,0,1,.14,2Z"/><path class="cls-4" d="M700.14,28a2.63,2.63,0,0,1,2.42-2.11,12.51,12.51,0,0,0,7.65-5.25,1,1,0,0,0,0-1.33,11.91,11.91,0,0,0-2.81-2.9c-.86-.58-.4-1.06-.07-1.59.51-.81.88,0,1.18.19A15,15,0,0,1,712,18.8a1.88,1.88,0,0,1,.1,2.22C709.29,25.26,705.48,27.83,700.14,28Z"/><path class="cls-6" d="M702.24,24,706,17.33C706.66,19.9,705.18,22.62,702.24,24Z"/><path d="M704,10.76c-.56-.34-.75.12-1,.47-.3.53-.51.94-1.35.85-5.87-.6-10.28,1.9-13.64,6.58a2,2,0,0,0,0,2.68,16.49,16.49,0,0,0,5.42,5c.33.18,1.05.24.62,1-.89,1.49.65,1.4,1.25,1.86.84.65,1-.24,1.27-.7q4.33-7.75,8.63-15.52l.5-.92C705.37,11.29,704.6,11.13,704,10.76Zm-8.53,14c-.25.71-.7.16-1,0a13.57,13.57,0,0,1-4.75-4.23.86.86,0,0,1,0-1.21,14.4,14.4,0,0,1,4.78-4.25c-1.23,3.08-.87,5.6,1.38,7.76C696.71,23.67,695.67,24.18,695.46,24.8Zm4.36-9.48a2.91,2.91,0,0,0-2.7,2.72c-.09.46-.25.83-.8.73s-.53-.55-.51-1A4.32,4.32,0,0,1,699.61,14c.48,0,.89.09,1,.57S700.25,15.28,699.81,15.32Z"/><path d="M497.34,29.44c1.89,0,3.79,0,5.68,0,2.05,0,2.8-.7,2.78-2.91a2.87,2.87,0,0,1,1-2.67c.47-.34.9-.34.9.4a17.73,17.73,0,0,1-.12,4.15,4.28,4.28,0,0,1-4,3.25c-4.24,0-8.47,0-12.71,0a4.23,4.23,0,0,1-4.09-4.24c-.1-4.59-.09-9.18,0-13.77a4.23,4.23,0,0,1,4-4.34c4.28-.1,8.57,0,12.86,0,.64,0,1.69,0,1.69.83,0,1-.95,1.35-1.88,1.35H491.15c-1.71,0-2.35.66-2.36,2.45q0,6.57,0,13.13c0,1.72.67,2.38,2.27,2.37,2.09,0,4.19,0,6.28,0Z"/><path class="cls-4" d="M513.32,13.57c0,.87-.85,1.47-1.53,2s-.94-.5-1.34-.87a21.66,21.66,0,0,1-2.1-2.25c-.32-.4-1.18-.72-.84-1.26.49-.79,1.09-1.71,2.17-1.72C510.59,9.45,513.3,12.39,513.32,13.57Z"/><path d="M509,15.2c-.63-.68-1.32-1.31-1.89-2s-1-.7-1.61,0c-2.6,2.87-5.22,5.72-7.93,8.48a4.24,4.24,0,0,0-1.31,3.48c.11,2.4,0,2.41,2.51,2.41C500,27.85,501,27.19,502,26c2.26-2.55,4.64-5,7-7.44C510.6,16.94,510.61,16.95,509,15.2ZM499.81,26c-.79.29-.69-.46-.72-1,0-.31-.19-.43-.48-.46s-.9.2-.88-.49c0-1,.89-1.33,1.39-1.93s.67.09.93.33c.56.51,1.1,1,1.67,1.59C501.09,24.91,500.62,25.72,499.81,26Zm1.23-5.1,5.36-5.9A42.5,42.5,0,0,1,501,20.91Z"/><path d="M472.95,12.67A4.75,4.75,0,0,0,468,7.57q-8-.1-16.05,0a4.71,4.71,0,0,0-4.89,4.8q-.12,8.1,0,16.21a4.74,4.74,0,0,0,5,4.84c2.65,0,5.3,0,7.95,0s5.2,0,7.79,0c3.17,0,5.11-2,5.12-5.18Q473,20.46,472.95,12.67Zm-8.36,8.16c-2.56,2.49-5.13,5-7.59,7.58-.95,1-2,.47-2.82.66-2.74,0-2.65,0-2.78-2.6A4.37,4.37,0,0,1,453,22.7c2.36-2.18,4.58-4.51,6.81-6.82.59-.61,1-.74,1.58,0a38.08,38.08,0,0,0,3.3,3.29C465.44,19.83,465.21,20.21,464.58,20.83Zm2.05-2.14c-.24.23-.45-.11-.62-.28-1.29-1.28-2.56-2.58-3.87-3.84-.47-.45-.33-.7.05-1.11,1.67-1.85,2.39-1.91,4.15-.08.84.87,2,1.52,2.19,2.88C468.3,17.41,467.37,18,466.64,18.69Z"/><path class="cls-6" d="M453.78,24.23a9.31,9.31,0,0,1,2.51,2.47,1.25,1.25,0,0,1-1,.81c-.54.06-.78-.16-.7-.69.13-.8-.29-1-1-.89s-.7-.25-.63-.74A1.4,1.4,0,0,1,453.78,24.23Z"/><path class="cls-7" d="M455.66,23.07l5.45-5.13-.69-.71-5.23,5.36Z"/><path class="cls-3" d="M831.95,16a3.07,3.07,0,0,0-3.13-3.18,9.52,9.52,0,0,0-1.8,0,1.3,1.3,0,0,1-1.66-1.16,2.61,2.61,0,0,0-2.67-2.18c-2,0-4.07,0-6.11,0A2.41,2.41,0,0,0,814,11.24a1.8,1.8,0,0,1-2.36,1.55,5.33,5.33,0,0,0-1,0,3.18,3.18,0,0,0-3.46,3.45q-.05,5.42,0,10.83a3.27,3.27,0,0,0,3.6,3.49c2.92,0,5.83,0,8.75,0s6,0,9,0a3.18,3.18,0,0,0,3.32-3.32Q832,21.61,831.95,16ZM819.63,27.3a5.66,5.66,0,1,1,5.71-5.67A5.63,5.63,0,0,1,819.63,27.3Z"/><path class="cls-3" d="M823.32,21.66A3.72,3.72,0,1,1,819.6,18,3.7,3.7,0,0,1,823.32,21.66Z"/><path class="cls-3" d="M994.38,21.12a6.77,6.77,0,0,1,0-1.16c0-3.22.26-2.47-2.62-2.95a2.16,2.16,0,0,1-2-1.57c-.35-1,.39-1.47.88-2,1.26-1.27,1.07-2.23-.2-3.42-2.34-2.2-2.27-2.27-5-.47a1.61,1.61,0,0,1-2.65-1.15,7.67,7.67,0,0,1-.13-1.15c0-1.6-.8-2.3-2.42-2a4.59,4.59,0,0,1-.83,0c-2.69,0-2.69,0-3,2.65-.09.76-.09,1.45-1,1.87s-1.53-.14-2.18-.62a5.39,5.39,0,0,0-1.95-1.27,12.3,12.3,0,0,0-2.62,2.23c-1.27,1.07-1.39,2.07-.14,3.25.76.72,1.44,1.51.67,2.73-.58.91-1.44.72-2.2.79-1.55.14-2.53.66-2.16,2.45a4.24,4.24,0,0,1,0,.83c0,2.6,0,2.6,2.49,3,2.3.33,2.83,1.58,1.43,3.39-1.53,2-1.56,2,.27,3.74,2.75,2.62,2,2.36,4.61.41,1.35-1,2.54-.49,2.82,1.14.62,3.63-.09,2.89,3.47,3h.17c2.39,0,2.38,0,2.69-2.41.11-.85.07-1.7,1.17-2.13s1.54.31,2.15.78c1.9,1.48,1.88,1.49,3.52-.1,2.34-2.28,2.34-2.28.49-5a1.63,1.63,0,0,1,1-2.64,8.43,8.43,0,0,1,1.48-.2C993.86,23.09,994.65,22.6,994.38,21.12Zm-14.79,3A4.06,4.06,0,1,1,983.65,20,4.06,4.06,0,0,1,979.59,24.08Z"/><path d="M1107.49,16.08a1.31,1.31,0,0,1-.47,1c-1.11,1.1-2.2,2.21-3.32,3.31-.24.23-.27.36,0,.61,1.11,1.08,2.2,2.18,3.29,3.27a1.25,1.25,0,0,1,0,2l-1.39,1.39a1.26,1.26,0,0,1-2.07,0c-1.11-1.1-2.22-2.2-3.31-3.32-.2-.21-.31-.21-.51,0-1.09,1.12-2.2,2.22-3.31,3.32a1.26,1.26,0,0,1-2.07,0l-1.45-1.45a1.22,1.22,0,0,1,0-1.91c1.12-1.13,2.24-2.26,3.38-3.37.22-.21.23-.32,0-.54-1.12-1.09-2.22-2.2-3.32-3.31a1.25,1.25,0,0,1,0-2l1.42-1.42a1.26,1.26,0,0,1,2,0c1.1,1.09,2.2,2.18,3.28,3.29.22.23.33.26.57,0,1.09-1.12,2.2-2.22,3.31-3.32a1.25,1.25,0,0,1,2,0l1.55,1.55A1.21,1.21,0,0,1,1107.49,16.08Z"/><path class="cls-3" d="M1056.5,22.74a2.12,2.12,0,0,1-1.25,3.26,1.3,1.3,0,0,1-1.36-.38c-1.88-1.86-3.76-3.72-5.61-5.61a1.33,1.33,0,0,1,0-2,4,4,0,0,1,.33-.36c1-1,1.38-1,2.56-.3a1.26,1.26,0,0,1,.5-1l4.26-4.26a1.21,1.21,0,0,1,1-.48c-.32-.52-.71-1-.43-1.62a3.58,3.58,0,0,1,1.14-1.33,1.28,1.28,0,0,1,1.86.06q2.86,2.8,5.66,5.66a1.3,1.3,0,0,1,.06,1.91,5.18,5.18,0,0,1-.53.57c-.85.8-1.35.83-2.32.13-.25.92-1.05,1.37-1.65,2-.32.33-.33.5,0,.82,1,.91,1.89,1.85,2.81,2.8.25.25.41.33.75.1a1.69,1.69,0,0,1,2.31.25q2.5,2.46,5,5a1.78,1.78,0,0,1,0,2.65c-.45.48-.92.95-1.4,1.4a1.77,1.77,0,0,1-2.64,0q-2.46-2.44-4.9-4.91a1.68,1.68,0,0,1-.29-2.41c.19-.31.11-.44-.1-.64-1-1-2-2-3-3-.25-.26-.38-.24-.61,0-.37.4-.76.77-1.15,1.16S1057,22.81,1056.5,22.74Z"/><path class="cls-3" d="M1212,29.63c-.47-.37-1.08-.48-1.55-.89a4,4,0,0,1-1.52-3c0-3.46-.06-6.93,0-10.39a4,4,0,0,1,3.89-3.93c1.47-.07,2.95,0,4.42,0,.72,0,.66.49.67,1s-.06.88-.71.87c-1.33,0-2.67,0-4,0a2.26,2.26,0,0,0-2.48,2.49q0,4.84,0,9.69a2.23,2.23,0,0,0,2.44,2.44h3.58c1.16,0,1.39.29,1.13,1.44a3.91,3.91,0,0,1-.13.39Z"/><path class="cls-3" d="M1218.13,24.15c-.91,0-1.83,0-2.74,0-.73,0-1-.3-1-1q0-2.56,0-5.13c0-.86.26-1.14,1.12-1.14,1.78,0,3.56,0,5.34,0,.46,0,.59-.12.58-.58,0-1,0-2.06,0-3.09a1.23,1.23,0,0,1,.69-1.26c.52-.24.88.1,1.22.44l7.19,7.31c.63.64.63,1,0,1.67l-7.2,7.31c-.34.34-.68.69-1.22.44a1.23,1.23,0,0,1-.69-1.27c0-1,0-2,0-3,0-.59-.2-.69-.71-.66C1219.87,24.17,1219,24.15,1218.13,24.15Z"/><path class="cls-3" d="M1139.84,27.89c-3,0-6.08,0-9.12,0-.23,0-.69.3-.72-.3s.11-1.1.66-1.05c1.06.09.89-.55.89-1.17,0-2.44,0-4.88,0-7.32,0-.45.11-.59.56-.56a17.8,17.8,0,0,0,2.05,0c.41,0,.49.12.49.5,0,2.59,0,5.18,0,7.77,0,.53.16.68.64.6a.62.62,0,0,1,.19,0c.55.09.75-.08.74-.7,0-2.52,0-5.05,0-7.57,0-.46.08-.64.58-.6a13.44,13.44,0,0,0,1.86,0c.42,0,.53.1.53.52,0,2.59,0,5.18,0,7.77,0,.49.12.61.6.59,1,0,1,0,1-1,0-2.4,0-4.79,0-7.19,0-.61.19-.75.74-.71a10.07,10.07,0,0,0,1.6,0c.48,0,.65.09.64.61,0,2.55,0,5.09,0,7.64,0,.49.1.71.62.62a1.4,1.4,0,0,1,.45,0c.4.06.5-.09.49-.49,0-2.59,0-5.18,0-7.77,0-.52.14-.65.63-.62a14.14,14.14,0,0,0,1.92,0c.47,0,.55.14.55.57,0,2.61,0,5.22,0,7.83,0,.47.1.67.59.59a.91.91,0,0,1,.67.17,1,1,0,0,1,.29,1.05c-.06.39-.43.18-.63.18C1146,27.89,1142.94,27.89,1139.84,27.89Z"/><path class="cls-3" d="M1139.87,16.71h-8.66c-.5,0-.94-.07-1.17-.59-.16-.37-.49-.1-.73-.19s-.73.27-.83-.26c-.18-.91,0-1.25.58-1.49l10.41-4.12a1.06,1.06,0,0,1,.85,0l10.53,4.17c.38.15.71,1.32.44,1.62s-.4.06-.61.08c-.42,0-.85-.11-1.1.46-.15.34-.61.32-1,.32Z"/><path class="cls-3" d="M1139.9,31c-3.61,0-7.23,0-10.84,0-.46,0-.68-.09-.6-.58a5.71,5.71,0,0,0,0-.7,1,1,0,0,1,1-1H1150a1.47,1.47,0,0,1,1.34,2.18c-.13.25-.38.12-.58.12Z"/><path d="M1191.33,15c-.2-.37-.45-.81-.86-.79s-.08.55-.25.8a.22.22,0,0,0,0,.06q-2,6.62-4,13.24a1.33,1.33,0,0,1-1.41,1h-12.93a2.3,2.3,0,0,1-1.24-.3A1,1,0,0,1,1170,28c.11-.53.59-.4,1-.4h11.35c1.91,0,2.33-.26,2.9-2.11q2-6.44,3.93-12.91c.5-1.68-.35-2.76-2.12-2.76-3.28,0-6.57,0-9.85,0a4.63,4.63,0,0,1-1.28.07,1.21,1.21,0,0,0-1.47.71,10.49,10.49,0,0,1-1.27,2.25.55.55,0,0,0-.11.38,4.56,4.56,0,0,1-1.29,3.46.8.8,0,0,0-.24.61,5.64,5.64,0,0,1-1.09,3.37c-.11.17-.27.32-.27.54a6.48,6.48,0,0,1-1.37,3.71c-.12.19-.29.39-.22.62a3.18,3.18,0,0,1-.09,1.55,2.67,2.67,0,0,0,0,1.28,3.88,3.88,0,0,0,3.7,2.8h12.24a3,3,0,0,0,3.23-2.37c.73-2.41,1.44-4.83,2.2-7.24.54-1.72,1-3.49,1.63-5.17V15.29C1191.36,15.26,1191.38,15.12,1191.33,15Zm-14.89-.52c.29-1,.39-1.13,1.44-1.13,2.39,0,4.78,0,7.17,0,.33,0,.86-.25.94.35a1.29,1.29,0,0,1-1.07,1.41h-4c-1.32,0-2.64,0-4,0C1176.41,15.17,1176.31,15,1176.45,14.51Zm-1.15,3.55c.33-1,.4-1.12,1.46-1.12,2.39,0,4.78,0,7.17,0,.32,0,.86-.27.9.37a1.26,1.26,0,0,1-1,1.39c-1.37,0-2.73,0-4.1,0s-2.64,0-4,0C1175.25,18.73,1175.14,18.54,1175.3,18.05Z"/><rect class="cls-1" x="40" y="41.22" width="40" height="40"/><path class="cls-3" d="M77.35,59.64l-2.68,2c0,2-.06,4.46,0,6.88,0,1.1-.29,2-1.28,2.25a2.81,2.81,0,0,1-2.07-.56C67.5,67.27,63.42,64.88,58.6,64c-1.24-.24-2.48-.44-3.41.77a3,3,0,0,0-.37,3.59c.1.16.22.41.16.54-1,2.44.72,3.67,2.19,5a2.61,2.61,0,0,1,.25.34c-.73,1.48-2.21,1.68-3.59,1.83-2.77.31-4-.61-5-3.27a14.55,14.55,0,0,1-.69-9.19c-.87,0-1.58,0-2.29,0a3,3,0,0,1-3.18-3c-.06-1.19-.05-2.39,0-3.58A3.1,3.1,0,0,1,46,53.68c2,0,4.09-.13,6.12,0,7.37.49,13.64-2.13,19.26-6.66,1.18-1,2.14-.93,2.89.15a2.88,2.88,0,0,1,.37,1.53c0,2.39,0,4.78,0,6.91l2.68,2.23ZM72.21,49.7c-2.39,1.39-4.57,2.9-6.94,4s-5,1.78-7.55,2.66v4.6c2.64.9,5.2,1.56,7.57,2.65s4.6,2.62,6.93,4Z"/><rect class="cls-1" x="80" y="41.22" width="40" height="40"/><path class="cls-3" d="M104.57,72.37c-.53,3-2.08,4.56-4.42,4.61s-4-1.44-4.72-4.62c-2.55,0-5.12,0-7.69,0a1.88,1.88,0,0,1-2-1.25,1.48,1.48,0,0,1,.2-1.29c3.66-3.44,4.9-7.85,5-12.65.08-2.83.56-5.48,2.94-7.27a36.92,36.92,0,0,1,4.47-2.48c0-1.22.6-2,1.65-2s1.64.8,1.69,2.37a9.2,9.2,0,0,1,5.6,3.25A9,9,0,0,1,109,56.79a19.37,19.37,0,0,0,2.34,9.52c.66,1.12,1.61,2.06,2.35,3.13a2.47,2.47,0,0,1,.6,1.57,1.74,1.74,0,0,1-1.92,1.37C109.83,72.35,107.25,72.37,104.57,72.37Zm-4.34,2.85a3.48,3.48,0,0,1-3-2.95A2.36,2.36,0,0,0,100.24,75.23Z"/><rect class="cls-1" x="120" y="41.22" width="40" height="40"/><rect class="cls-1" x="160" y="41.22" width="40" height="40"/><rect class="cls-1" x="200" y="41.22" width="40" height="40"/><rect class="cls-1" x="240" y="41.22" width="40" height="40"/><rect class="cls-1" x="280" y="41.22" width="40" height="40"/><rect class="cls-1" x="320" y="41.22" width="40" height="40"/><rect class="cls-1" x="360" y="41.22" width="40" height="40"/><rect class="cls-1" x="400" y="41.22" width="40" height="40"/><rect class="cls-1" x="440" y="41.23" width="40" height="40"/><rect class="cls-1" x="480" y="41.22" width="40" height="40"/><rect class="cls-1" x="520" y="41.23" width="40" height="40"/><rect class="cls-1" x="559.99" y="40.74" width="40" height="40"/><rect class="cls-1" x="600" y="40.74" width="40" height="40"/><rect class="cls-1" x="640" y="40.74" width="40" height="40"/><rect class="cls-1" x="919.59" y="40.74" width="40" height="40"/><rect class="cls-1" x="959.59" y="40.76" width="40" height="40"/><rect class="cls-1" x="999.59" y="40.74" width="40" height="40"/><rect class="cls-1" x="1039.95" y="41.23" width="40" height="40"/><rect class="cls-1" x="1079.95" y="41.41" width="40" height="40"/><rect class="cls-1" x="1119.95" y="41.23" width="40" height="40"/><rect class="cls-1" x="1159.95" y="41.23" width="40" height="40"/><rect class="cls-1" x="1199.95" y="41.23" width="40" height="40"/><rect class="cls-1" x="680" y="40.74" width="40" height="40"/><rect class="cls-1" x="720" y="40.74" width="40" height="40"/><rect class="cls-1" x="760" y="40.74" width="40" height="40"/><rect class="cls-1" x="799.59" y="40.74" width="40" height="40"/><rect class="cls-1" x="839.59" y="40.74" width="40" height="40"/><rect class="cls-1" x="879.59" y="40.74" width="40" height="40"/><path class="cls-3" d="M152.57,74.06c-1.84-.83-3.67-1.69-5.54-2.45a3.42,3.42,0,0,0-1.54,0,16.88,16.88,0,0,1-10.21-2c2-.24,3.76-.37,5.49-.7a15.23,15.23,0,0,0,7.14-3.34,9.91,9.91,0,0,0,3.63-10.31,8.19,8.19,0,0,1,5,7.22c0,2.62-1,4.15-4.94,7.48.65.84,1.36,1.65,1.93,2.55a5.7,5.7,0,0,1,.45,1.6Z"/><path class="cls-3" d="M128.35,65.33a34.85,34.85,0,0,1-3.26-3.19,6.92,6.92,0,0,1,.45-9.47c3.53-3.72,8.05-4.65,12.93-4.18a13.4,13.4,0,0,1,8.86,4.09,7.16,7.16,0,0,1,0,10.26c-3.1,3.26-7.08,4.32-11.42,4.14a8.2,8.2,0,0,0-4.86,1,16,16,0,0,1-4,1.31c-.3.08-.68-.14-1-.22a3.77,3.77,0,0,1,.35-1.11C127,67,127.71,66.14,128.35,65.33Z"/><rect class="cls-1" y="41.22" width="40" height="40"/><path class="cls-3" d="M19.92,78.77h-8.7c-3.35,0-5.46-1.63-5.81-5a17.08,17.08,0,0,1,1.94-10.7,9.19,9.19,0,0,1,3.08-2.81,2.9,2.9,0,0,1,3.63.37,10.25,10.25,0,0,0,11.86.16c1.76-1.27,3.08-1.25,4.9,0A8.21,8.21,0,0,1,34,66.33a36.83,36.83,0,0,1,.69,6.87c0,3.49-2.33,5.58-5.81,5.58Z"/><path class="cls-3" d="M20.06,61.19a8.77,8.77,0,1,1,8.82-8.77A8.82,8.82,0,0,1,20.06,61.19Z"/><path d="M196.34,73.24l-10-9.77a12.68,12.68,0,1,0-4.14,4.17l10,9.8a2.94,2.94,0,0,0,4.11-4.21Zm-20.83-7.73a8.63,8.63,0,1,1,8.63-8.63A8.63,8.63,0,0,1,175.51,65.51Z"/><path d="M271.2,61.22c0,3.77,0,7.55,0,11.32,0,1.07-.15,2-1.18,2.47a2.2,2.2,0,0,1-2.68-.76c-2.21-2.26-4.45-4.5-6.64-6.78-.53-.56-.83-.59-1.38,0-2.15,2.26-4.35,4.45-6.53,6.68-.79.81-1.62,1.43-2.78.88s-1.23-1.51-1.23-2.63c0-7.44,0-14.88,0-22.32,0-2.09.7-2.83,2.71-2.83q8.51,0,17,0c2,0,2.66.71,2.67,2.83Q271.2,55.64,271.2,61.22Z"/><path d="M740,67.77c-1.34-.49-2.58.34-3.86,1.26a14.64,14.64,0,0,1-5.55,2.2c-.45.1-1,.23-1.23-.33s.16-.78.43-1.09.84-.88,1.2-1.37c1.36-1.86,1.3-2.25-.46-3.66-4.39-3.54-4.15-9,.79-12a15.82,15.82,0,0,1,17.35-.09c5.44,3.29,5.3,9.41-.09,12.78A15.58,15.58,0,0,1,740,67.77Z"/><path class="cls-3" d="M366.35,57.59c3.53,2.49,6.88,4.88,10.26,7.22,2.52,1.74,4.26,1.75,6.76,0,3.4-2.33,6.75-4.73,10.28-7.22,0,2.79,0,5.51,0,8.23,0,1.17,0,2.35,0,3.52a2.34,2.34,0,0,1-2.45,2.55q-11.19,0-22.37,0c-1.55,0-2.45-1-2.46-2.72C366.32,65.39,366.35,61.56,366.35,57.59Z"/><path class="cls-3" d="M380,50.48c3.47,0,6.94,0,10.41,0a2.88,2.88,0,0,1,2.89,1.31,3.16,3.16,0,0,1-.35,3.33,7,7,0,0,1-2.14,2.16c-2.8,1.95-5.63,3.86-8.39,5.87a3.7,3.7,0,0,1-4.87,0c-2.8-2-5.67-4-8.51-6a7,7,0,0,1-2.32-2.6,2.64,2.64,0,0,1,2.42-4.06C372.78,50.44,376.41,50.48,380,50.48Z"/><path d="M431.91,61.32c0,3.11,0,3.11-3.71,3.11-2.58,0-3-.47-3-3.48,0-2.6.46-2.95,3.94-2.95C431.71,58,431.91,58.26,431.91,61.32Z"/><path d="M411.33,64.43c-.53,0-1.07,0-1.6,0a1.52,1.52,0,0,1-1.58-1.49,26.87,26.87,0,0,1,0-3.33,1.53,1.53,0,0,1,1.54-1.55c1.11-.07,2.22,0,3.33,0a1.15,1.15,0,0,1,.26,0c1.34.32,1.78,1.62,1.52,4.48a2,2,0,0,1-2.13,1.89c-.44,0-.89,0-1.33,0Z"/><path d="M423.09,61.46c.21,3.27-.46,3-3.07,3H419c-1.66,0-2-.39-2-2,0-.89,0-1.78,0-2.67a1.41,1.41,0,0,1,1.44-1.69,22.14,22.14,0,0,1,3.33,0,1.37,1.37,0,0,1,1.42,1.69A16.61,16.61,0,0,0,423.09,61.46Z"/><path d="M1012.13,60c0-1.43,0-2.86,0-4.28a1.1,1.1,0,0,1,.64-1.17c3.32-1.8,6.72-2.5,10.26-.71a4.79,4.79,0,0,0,4.66-.13c.4-.2.79-.41,1.2-.6,1.21-.58,1.62-.33,1.62,1,0,2.77,0,5.55,0,8.32a1.5,1.5,0,0,1-.91,1.55c-2.51,1.29-5,1.81-7.66.32-2.53-1.41-5.06-.66-7.5.46s-2.31,1.07-2.31-1.48Q1012.14,61.68,1012.13,60Z"/><path d="M1009.69,62.06c0-2.12,0-4.24,0-6.35,0-.79.1-1.53-.68-2.18-.61-.51-.32-1.3.22-1.84a1.46,1.46,0,0,1,2.1-.1,1.33,1.33,0,0,1,.38,1.94,3.06,3.06,0,0,0-.55,2.26q0,6.48,0,13c0,.29,0,.57,0,.86,0,.65-.39.67-.89.7s-.59-.35-.59-.78C1009.69,67,1009.69,64.54,1009.69,62.06Z"/><path class="cls-3" d="M220,75.79c-2.4,0-4.8,0-7.2,0-2.68,0-4.17-1.6-4.23-4.3a14.11,14.11,0,0,1,1.09-6c1.32-3,3.6-3.77,6.4-2.12a7.35,7.35,0,0,0,8,0c2.62-1.55,4.63-1.09,6.07,1.55a12.65,12.65,0,0,1,1.25,7.84c-.23,1.81-1.9,3-4,3C224.88,75.82,222.43,75.79,220,75.79Z"/><path class="cls-3" d="M226.21,57a6.23,6.23,0,1,1-6.27-6.19A6.21,6.21,0,0,1,226.21,57Z"/><path class="cls-3" d="M226.21,61.2c0-.19,0-.27,0-.3,1.36-1.3.12-4.24,1.81-4.56a21.41,21.41,0,0,0,5.32-1.22c.83-.38,1.33.23,1.61.91a9.11,9.11,0,0,1,.56,5.32c-.36,1.81-4,2.72-5.65,1.51A6.12,6.12,0,0,0,226.21,61.2Z"/><path class="cls-3" d="M212.77,56a8.29,8.29,0,0,0,1.16,5.2,8.51,8.51,0,0,0-3.85,1.67c-1.32,1-2.91.55-4.32,0-1.19-.45-1.43-1.57-1.42-2.76a10.86,10.86,0,0,1,.64-3.94c.41-1,1-1.45,2.18-.82A6.8,6.8,0,0,0,212.77,56Z"/><path class="cls-3" d="M233.52,50.78a4.16,4.16,0,1,1-4.13-4.14A4.21,4.21,0,0,1,233.52,50.78Z"/><path class="cls-3" d="M210.61,46.63a4.17,4.17,0,1,1-4.17,4.12A4.26,4.26,0,0,1,210.61,46.63Z"/><path d="M939.4,70.62c-.07,4,.76,3.65-3.6,3.67-4.14,0-3.66.24-3.67-3.7,0-.67,0-1.35,0-2,.1-1.86.61-2,5-2,1.39,0,2.41.3,2.27,2C939.36,69.27,939.4,69.95,939.4,70.62Z"/><path d="M937.84,49.66c5.17,0,10.34,0,15.51-.05,1.14,0,1.45.3,1.45,1.44s-.31,1.46-1.45,1.44c-5.17-.07-10.34,0-15.51-.05A3.57,3.57,0,0,1,937.84,49.66Z"/><path d="M947.48,71.86c-2,0-4-.08-6,0-1.27.07-1.18-.61-1.22-1.47s.11-1.44,1.27-1.42c4,.07,8.06.09,12.09,0,1.3,0,1.17.64,1.2,1.47s0,1.49-1.25,1.42C951.52,71.78,949.5,71.86,947.48,71.86Z"/><path d="M941.37,61.73l-15.52,0c-.7,0-1.45.24-1.45-1s.75-1,1.45-1l15.52,0A1.8,1.8,0,0,1,941.37,61.73Z"/><path d="M928.08,71.86c-.67,0-1.34,0-2,0-1,.07-1.69,0-1.69-1.41s.56-1.52,1.65-1.45,2.15,0,3.22,0,2.24-.52,2.2,1.49-1.29,1.18-2.17,1.32A8,8,0,0,1,928.08,71.86Z"/><path d="M926.67,52.49c-.91-.23-2.29.67-2.29-1.44s1.36-1.37,2.29-1.37S929,49,929,51.05,927.58,52.26,926.67,52.49Z"/><path class="cls-5" d="M952.52,61.73a8.59,8.59,0,0,1-1.8,0c-.64-.14-.31-.77-.37-1.19s.12-.76.64-.76c.8,0,1.61,0,2.41,0s1.41-.15,1.4,1.05-.81.93-1.48,1c-.27,0-.54,0-.8,0Z"/><path d="M937.84,50.49q0,.57,0,1.13A2.2,2.2,0,0,0,937.84,50.49Z"/><path d="M934.82,47.2c-.8.06-1.61,0-2.41,0-2.71,0-2.71,0-2.71,2.8,0,5.34-.66,4.85,5,4.89a2.39,2.39,0,0,0,2.76-2.43V49.63C937.45,47.87,936.59,47.08,934.82,47.2Z"/><path d="M949.1,57.63c-1-.84-3.19-.17-4.84-.34-1.89-.18-2.56.7-2.5,2.43q0,1,0,2.06c-.11,1.9.74,2.66,2.66,2.43a14.62,14.62,0,0,1,3.41,0c1.32.15,1.86-.21,1.69-1.61C949.31,60.9,950.25,58.62,949.1,57.63Z"/><path class="cls-4" d="M545.87,50a1.65,1.65,0,0,1,1.24.45c1.26,1.23,2.53,2.44,3.73,3.72a1.65,1.65,0,0,1,0,2.34c-.73.85-1.44,2-2.38,2.32s-1.59-1.15-2.34-1.83c-1.17-1.05-2.25-2.21-3.36-3.34-.2-.21-.56-.34-.5-.72C542.39,52.39,545.27,50,545.87,50Z"/><path d="M546.6,59.33c-1.62-1.49-3.17-3.07-4.69-4.68-.57-.61-.87-.59-1.45,0-2.38,2.46-4.83,4.86-7.25,7.28-1.46,1.47-3.45,2.72-4.2,4.49s-.17,4-.18,6h6.23c3.82-3.83,7.63-7.67,11.48-11.47C547.16,60.36,547.36,60,546.6,59.33ZM535.31,69.39c-.38.59-.85,1.33-1.82,1.15-.69.16-1-.13-.86-.84s-.08-1.18-1-1.06c-.3,0-.81.29-.93-.39a2.25,2.25,0,0,1,1-2.17c.51-.45.71.05,1,.3.65.62,1.3,1.24,1.9,1.91C534.9,68.61,535.65,68.88,535.31,69.39Zm6.16-11.9q-3.58,3.59-7.18,7.17c-.23.23-.49.73-.85.37s.13-.63.36-.86q3.62-3.64,7.27-7.27c.18-.18.35-.46.67-.35.1,0,.16.19.25.32C541.81,57.08,541.66,57.3,541.47,57.48Z"/><path class="cls-3" d="M909.26,59.75c-1.42-.13-1.33-1-1.28-1.94,0-.65,0-1.3,0-1.94a8.36,8.36,0,0,0-16.72-.37c-.07,1-.06,2.09,0,3.14,0,.6-.14.89-.78,1-1.22.16-1.62,1-1.62,2.13,0,3.34,0,6.68,0,10,0,1.71.63,2.28,2.39,2.29,2.74,0,5.48,0,8.23,0h8.82c1.32,0,2.09-.59,2.1-2,0-3.54,0-7.08,0-10.62C910.38,60.64,910,59.82,909.26,59.75Zm-5.75-.06c-1.34,0-2.69,0-4,0-1.15,0-2.3-.08-3.43,0s-1.36-.33-1.26-1.33a18.78,18.78,0,0,1,.26-3.86,4.75,4.75,0,0,1,9.31,1c.08,1.14,0,2.29,0,3.43C904.44,59.63,904.1,59.7,903.51,59.69Z"/><path d="M311.2,61.32q0-5.72,0-11.43c0-2-.7-2.67-2.66-2.67h-17c-2,0-2.7.73-2.71,2.78q0,4.43,0,8.87c0,4.63,0,9.25,0,13.88,0,1.53.8,2.47,2,2.47a2.63,2.63,0,0,0,1.89-1c2.21-2.25,4.43-4.48,6.61-6.75.51-.53.8-.59,1.35,0,2.23,2.34,4.5,4.62,6.77,6.92A2.13,2.13,0,0,0,310,75a2.16,2.16,0,0,0,1.25-2.28C311.19,68.95,311.2,65.13,311.2,61.32Zm-2.33,10.42c-2.51-2.32-5.29-4.84-8-7.44-.68-.65-1-.72-1.69,0-2.68,2.59-5.46,5.08-8.13,7.69,0,.09-.08.14-.08.08L291,72a1.09,1.09,0,0,0,.09-.41c0-6.91,0-13.83,0-20.74,0-.76.1-1.06,1-1.05q7.92.07,15.85,0c.77,0,1,.21.95,1C308.85,57.91,308.87,65.1,308.87,71.74Z"/><path d="M789.37,52.52A17.54,17.54,0,0,0,782,50.26c-4.6-.38-8.91.37-12.67,3.14s-4.1,7-1,10.24a8.6,8.6,0,0,0,2.36,1.79c.64.31.67.64.43,1.25a9.38,9.38,0,0,1-2.29,3.07c-.33.32-.82.63-.51,1.18s.85.36,1.31.28a16.35,16.35,0,0,0,6.25-2.32c1.34-.91,2.63-1.58,4-1.14a18.58,18.58,0,0,0,9.46-2.32C795.18,62.11,795.19,55.85,789.37,52.52Zm0,10.68A10.12,10.12,0,0,1,787,64.61a16.43,16.43,0,0,1-8.2,1.31,3.42,3.42,0,0,0-2.84.77,10.61,10.61,0,0,1-3.59,1.91,25,25,0,0,0,1.21-3c.17-.49.07-.72-.39-.93a12.13,12.13,0,0,1-3-1.91,4.76,4.76,0,0,1,0-7.57,13.25,13.25,0,0,1,7.8-3.16c4-.42,7.89.14,11.25,2.54S792.64,60.59,789.36,63.2Z"/><path class="cls-3" d="M343.44,49a9.06,9.06,0,0,0-9.84,2.07,8.17,8.17,0,0,0-1.49,9.56c1.86,3.9,3.76,7.77,5.63,11.66a2.35,2.35,0,0,0,4.51.06q2.84-5.91,5.7-11.8a7.32,7.32,0,0,0,.86-3.4A8.77,8.77,0,0,0,343.44,49ZM340,61.2a4.27,4.27,0,1,1,4.45-4.34A4.37,4.37,0,0,1,340,61.2Z"/><path d="M672,59.43a14.15,14.15,0,0,0-24,0,2,2,0,0,0,0,2.46,14,14,0,0,0,24.07,0A2,2,0,0,0,672,59.43Zm-12.36-4.73c.46,0,.88.12,1,.6s-.27.69-.66.74a3,3,0,0,0-2.83,2.76c-.07.46-.27.81-.82.7a.56.56,0,0,1-.49-.51A4.39,4.39,0,0,1,659.64,54.69Zm10.6,6.62c-5.35,7.38-15,7.51-20.46,0a.88.88,0,0,1-.09-1.21,12.78,12.78,0,0,1,4.61-4c-1.1,3.67-.44,6.7,3.13,8.42a5.73,5.73,0,0,0,6.64-.94c2.3-2,2.66-4.57,1.43-7.68a13.68,13.68,0,0,1,4.78,4.2A.86.86,0,0,1,670.24,61.31Z"/><path d="M587.64,56.07c-.83-.05-1.68,0-2.73,0a7,7,0,0,0,.34-5.13,3.74,3.74,0,0,0-3.76-2.38c-1.56.09-2.13,1.21-2.38,2.52a11.27,11.27,0,0,1-2.06,4.18c-1.47,2.2-3.2,3.21-5.9,2.85-1.83-.25-2.37.46-2.38,2.37q0,4,0,8c0,2,.53,2.56,2.47,2.48A16,16,0,0,1,578.07,72a16.17,16.17,0,0,0,7.17.87,3.83,3.83,0,0,0,3.82-3.1c.28-1.54.92-3,1.18-4.53a28.33,28.33,0,0,1,.8-4.62A3.58,3.58,0,0,0,587.64,56.07Zm-16,13.1c-.48-.07-.87-.28-.91-.85a.85.85,0,0,1,.9-1,.82.82,0,0,1,.87.89C572.5,68.78,572.16,69,571.62,69.17ZM588.94,61a1.69,1.69,0,0,0-.27,1.74,1,1,0,0,1,0,.82c-.91,1.27.09,3.11-1.27,4.24-.06,0,0,.17-.07.26-.6,2.83-.76,2.93-3.6,3A17.06,17.06,0,0,1,578,70c-.44-.15-.87-.34-1.31-.48-.74-.22-1.89-.19-2.15-.66-.38-.68-.13-1.72-.14-2.6,0-1.21,0-2.43,0-3.64,0-1.42-.06-2.48,1.56-3.64a11.16,11.16,0,0,0,4.89-7.22c.09-.58.1-1.38,1.07-1.35a1.62,1.62,0,0,1,1.66,1.41,5,5,0,0,1-.24,3,7.26,7.26,0,0,0-.9,3.17c1.7,0,3.28,0,4.87,0A1.81,1.81,0,0,1,588.94,61Z"/><path d="M627.65,56.07c-.83-.05-1.68,0-2.73,0a7,7,0,0,0,.34-5.13,3.74,3.74,0,0,0-3.76-2.38c-1.56.09-2.13,1.21-2.38,2.52a11.27,11.27,0,0,1-2.06,4.18c-1.47,2.2-3.2,3.21-5.9,2.85-1.83-.25-2.37.46-2.38,2.37q0,4,0,8c0,2,.53,2.56,2.47,2.48A16,16,0,0,1,618.08,72a16.17,16.17,0,0,0,7.17.87,3.83,3.83,0,0,0,3.82-3.1c.28-1.54.92-3,1.18-4.53a28.33,28.33,0,0,1,.8-4.62A3.58,3.58,0,0,0,627.65,56.07Zm-16,13.1c-.48-.07-.87-.28-.91-.85a.85.85,0,0,1,.9-1,.82.82,0,0,1,.87.89C612.51,68.78,612.16,69,611.62,69.17Z"/><path d="M856.73,61c0-1.23.46-2.81-.13-3.6s-2.29-.19-3.5-.27c-.6,0-1.21,0-1.5-.67s.22-1.1.63-1.51c2.08-2.11,4.19-4.18,6.25-6.31.78-.81,1.42-.87,2.23,0,2.13,2.2,4.31,4.35,6.46,6.52.34.35.74.72.49,1.28a1.23,1.23,0,0,1-1.33.72c-1,0-2,0-3,0-.79-.05-1,.22-1,1,.05,2,0,3.95,0,5.92,0,.82-.09,1.19-1,1.14-1.23-.07-2.47-.05-3.7,0-.8,0-1-.27-1-1,.06-1,0-2.07,0-3.11Z"/><path d="M872.8,67.16c0-1.38-.77-2-2-2-1.83,0-3.66,0-5.48,0-.4,0-.79,0-1,.43-.64,1.46-1.84,1.75-3.29,1.66a27,27,0,0,0-3.26,0,2.64,2.64,0,0,1-2.7-1.42,1.09,1.09,0,0,0-1.14-.69c-1.83,0-3.66,0-5.48,0a1.85,1.85,0,0,0-2,2c0,1.38,0,2.77,0,4.15,0,1.63.5,2.12,2.11,2.12h11.11c3.75,0,7.51,0,11.26,0,1.28,0,1.93-.55,1.92-1.86Q872.78,69.39,872.8,67.16Zm-6.14,3.35a.87.87,0,0,1-1,.88c-.67,0-1-.42-.93-1.07s.44-.82,1-.91C866.34,69.53,866.72,69.86,866.66,70.51Zm3.26.89c-.77,0-1.12-.38-1.14-1a.92.92,0,0,1,1-1,1,1,0,0,1,.14,2Z"/><path class="cls-4" d="M700.14,68.77a2.63,2.63,0,0,1,2.42-2.11,12.51,12.51,0,0,0,7.65-5.25,1,1,0,0,0,0-1.33,11.91,11.91,0,0,0-2.81-2.9c-.86-.58-.4-1.06-.07-1.59.51-.81.88,0,1.18.19a15,15,0,0,1,3.5,3.78,1.88,1.88,0,0,1,.1,2.22C709.29,66,705.48,68.57,700.14,68.77Z"/><path class="cls-6" d="M702.24,64.72,706,58.07C706.66,60.65,705.18,63.37,702.24,64.72Z"/><path d="M704,51.5c-.56-.34-.75.12-1,.47-.3.53-.51.94-1.35.85-5.87-.6-10.28,1.9-13.64,6.58a2,2,0,0,0,0,2.68,16.49,16.49,0,0,0,5.42,5c.33.18,1.05.24.62,1-.89,1.49.65,1.4,1.25,1.86.84.65,1-.24,1.27-.7q4.33-7.75,8.63-15.52l.5-.92C705.37,52,704.6,51.87,704,51.5Zm-8.53,14c-.25.71-.7.16-1,0a13.57,13.57,0,0,1-4.75-4.23.86.86,0,0,1,0-1.21,14.4,14.4,0,0,1,4.78-4.25c-1.23,3.08-.87,5.6,1.38,7.76C696.71,64.42,695.67,64.93,695.46,65.54Zm4.36-9.48a2.91,2.91,0,0,0-2.7,2.72c-.09.46-.25.83-.8.73s-.53-.55-.51-1a4.32,4.32,0,0,1,3.81-3.83c.48,0,.89.09,1,.57S700.25,56,699.81,56.06Z"/><path d="M497.34,70.18c1.89,0,3.79,0,5.68,0,2.05,0,2.8-.7,2.78-2.91a2.87,2.87,0,0,1,1-2.67c.47-.34.9-.34.9.4a17.73,17.73,0,0,1-.12,4.15,4.28,4.28,0,0,1-4,3.25c-4.24,0-8.47,0-12.71,0a4.23,4.23,0,0,1-4.09-4.24c-.1-4.59-.09-9.18,0-13.77a4.23,4.23,0,0,1,4-4.34c4.28-.1,8.57,0,12.86,0,.64,0,1.69,0,1.69.83,0,1-.95,1.35-1.88,1.35H491.15c-1.71,0-2.35.66-2.36,2.45q0,6.57,0,13.13c0,1.72.67,2.38,2.27,2.37,2.09,0,4.19,0,6.28,0Z"/><path class="cls-4" d="M513.32,54.31c0,.87-.85,1.47-1.53,2s-.94-.5-1.34-.87a21.66,21.66,0,0,1-2.1-2.25c-.32-.4-1.18-.72-.84-1.26.49-.79,1.09-1.71,2.17-1.72C510.59,50.19,513.3,53.13,513.32,54.31Z"/><path d="M509,55.94c-.63-.68-1.32-1.31-1.89-2s-1-.7-1.61,0c-2.6,2.87-5.22,5.72-7.93,8.48a4.24,4.24,0,0,0-1.31,3.48c.11,2.4,0,2.41,2.51,2.41,1.22.33,2.25-.33,3.25-1.46,2.26-2.55,4.64-5,7-7.44C510.6,57.68,510.61,57.69,509,55.94Zm-9.16,10.81c-.79.29-.69-.46-.72-1,0-.31-.19-.43-.48-.46s-.9.2-.88-.49c0-1,.89-1.33,1.39-1.93s.67.09.93.33c.56.51,1.1,1,1.67,1.59C501.09,65.65,500.62,66.46,499.81,66.76Zm1.23-5.1,5.36-5.9A42.5,42.5,0,0,1,501,61.65Z"/><path d="M472.95,53.41a4.75,4.75,0,0,0-4.9-5.09q-8-.1-16.05,0a4.71,4.71,0,0,0-4.89,4.8q-.12,8.1,0,16.21a4.74,4.74,0,0,0,5,4.84c2.65,0,5.3,0,7.95,0s5.2,0,7.79,0c3.17,0,5.11-2,5.12-5.18Q473,61.2,472.95,53.41Zm-8.36,8.16c-2.56,2.49-5.13,5-7.59,7.58-.95,1-2,.47-2.82.66-2.74,0-2.65,0-2.78-2.6A4.37,4.37,0,0,1,453,63.45c2.36-2.18,4.58-4.51,6.81-6.82.59-.61,1-.74,1.58,0a38.08,38.08,0,0,0,3.3,3.29C465.44,60.57,465.21,61,464.58,61.57Zm2.05-2.14c-.24.23-.45-.11-.62-.28-1.29-1.28-2.56-2.58-3.87-3.84-.47-.45-.33-.7.05-1.11,1.67-1.85,2.39-1.91,4.15-.08.84.87,2,1.52,2.19,2.88C468.3,58.15,467.37,58.73,466.64,59.43Z"/><path class="cls-6" d="M453.78,65a9.31,9.31,0,0,1,2.51,2.47,1.25,1.25,0,0,1-1,.81c-.54.06-.78-.16-.7-.69.13-.8-.29-1-1-.89s-.7-.25-.63-.74A1.4,1.4,0,0,1,453.78,65Z"/><path class="cls-7" d="M455.66,63.81l5.45-5.13-.69-.71-5.23,5.36Z"/><path d="M831.95,56.72a3.07,3.07,0,0,0-3.13-3.18,9.52,9.52,0,0,0-1.8,0,1.3,1.3,0,0,1-1.66-1.16,2.61,2.61,0,0,0-2.67-2.18c-2,0-4.07,0-6.11,0A2.41,2.41,0,0,0,814,52a1.8,1.8,0,0,1-2.36,1.55,5.33,5.33,0,0,0-1,0A3.18,3.18,0,0,0,807.24,57q-.05,5.42,0,10.83a3.27,3.27,0,0,0,3.6,3.49c2.92,0,5.83,0,8.75,0s6,0,9,0A3.18,3.18,0,0,0,831.95,68Q832,62.35,831.95,56.72ZM819.63,68a5.66,5.66,0,1,1,5.71-5.67A5.63,5.63,0,0,1,819.63,68Z"/><path class="cls-4" d="M823.32,62.41a3.72,3.72,0,1,1-3.73-3.65A3.7,3.7,0,0,1,823.32,62.41Z"/><path class="cls-3" d="M994.38,61.86a6.77,6.77,0,0,1,0-1.16c0-3.22.26-2.47-2.62-2.95a2.16,2.16,0,0,1-2-1.57c-.35-1,.39-1.47.88-2,1.26-1.27,1.07-2.23-.2-3.42-2.34-2.2-2.27-2.27-5-.47a1.61,1.61,0,0,1-2.65-1.15,7.67,7.67,0,0,1-.13-1.15c0-1.6-.8-2.3-2.42-2a4.59,4.59,0,0,1-.83,0c-2.69,0-2.69,0-3,2.65-.09.76-.09,1.45-1,1.87s-1.53-.14-2.18-.62a5.39,5.39,0,0,0-1.95-1.27,12.3,12.3,0,0,0-2.62,2.23c-1.27,1.07-1.39,2.07-.14,3.25.76.72,1.44,1.51.67,2.73-.58.91-1.44.72-2.2.79-1.55.14-2.53.66-2.16,2.45a4.24,4.24,0,0,1,0,.83c0,2.6,0,2.6,2.49,3,2.3.33,2.83,1.58,1.43,3.39-1.53,2-1.56,2,.27,3.74,2.75,2.62,2,2.36,4.61.41,1.35-1,2.54-.49,2.82,1.14.62,3.63-.09,2.89,3.47,3h.17c2.39,0,2.38,0,2.69-2.41.11-.85.07-1.7,1.17-2.13s1.54.31,2.15.78c1.9,1.48,1.88,1.49,3.52-.1,2.34-2.28,2.34-2.28.49-5a1.63,1.63,0,0,1,1-2.64,8.43,8.43,0,0,1,1.48-.2C993.86,63.83,994.65,63.35,994.38,61.86Zm-14.79,3a4.06,4.06,0,1,1,4.06-4.06A4.06,4.06,0,0,1,979.59,64.82Z"/><path d="M1107.49,56.82a1.31,1.31,0,0,1-.47,1c-1.11,1.1-2.2,2.21-3.32,3.31-.24.23-.27.36,0,.61,1.11,1.08,2.2,2.18,3.29,3.27a1.25,1.25,0,0,1,0,2l-1.39,1.39a1.26,1.26,0,0,1-2.07,0c-1.11-1.1-2.22-2.2-3.31-3.32-.2-.21-.31-.21-.51,0-1.09,1.12-2.2,2.22-3.31,3.32a1.26,1.26,0,0,1-2.07,0L1092.86,67a1.22,1.22,0,0,1,0-1.91c1.12-1.13,2.24-2.26,3.38-3.37.22-.21.23-.32,0-.54-1.12-1.09-2.22-2.2-3.32-3.31a1.25,1.25,0,0,1,0-2l1.42-1.42a1.26,1.26,0,0,1,2,0c1.1,1.09,2.2,2.18,3.28,3.29.22.23.33.26.57,0,1.09-1.12,2.2-2.22,3.31-3.32a1.25,1.25,0,0,1,2,0l1.55,1.55A1.21,1.21,0,0,1,1107.49,56.82Z"/><path class="cls-3" d="M1056.5,63.48a2.12,2.12,0,0,1-1.25,3.26,1.3,1.3,0,0,1-1.36-.38c-1.88-1.86-3.76-3.72-5.61-5.61a1.33,1.33,0,0,1,0-2,4,4,0,0,1,.33-.36c1-1,1.38-1,2.56-.3a1.26,1.26,0,0,1,.5-1l4.26-4.26a1.21,1.21,0,0,1,1-.48c-.32-.52-.71-1-.43-1.62a3.58,3.58,0,0,1,1.14-1.33,1.28,1.28,0,0,1,1.86.06q2.86,2.8,5.66,5.66a1.3,1.3,0,0,1,.06,1.91,5.18,5.18,0,0,1-.53.57c-.85.8-1.35.83-2.32.13-.25.92-1.05,1.37-1.65,2-.32.33-.33.5,0,.82,1,.91,1.89,1.85,2.81,2.8.25.25.41.33.75.1a1.69,1.69,0,0,1,2.31.25q2.5,2.46,5,5a1.78,1.78,0,0,1,0,2.65c-.45.48-.92.95-1.4,1.4a1.77,1.77,0,0,1-2.64,0q-2.46-2.44-4.9-4.91a1.68,1.68,0,0,1-.29-2.41c.19-.31.11-.44-.1-.64-1-1-2-2-3-3-.25-.26-.38-.24-.61,0-.37.4-.76.77-1.15,1.16S1057,63.56,1056.5,63.48Z"/><path class="cls-3" d="M1212,70.37c-.47-.37-1.08-.48-1.55-.89a4,4,0,0,1-1.52-3c0-3.46-.06-6.93,0-10.39a4,4,0,0,1,3.89-3.93c1.47-.07,2.95,0,4.42,0,.72,0,.66.49.67,1s-.06.88-.71.87c-1.33,0-2.67,0-4,0a2.26,2.26,0,0,0-2.48,2.49q0,4.84,0,9.69a2.23,2.23,0,0,0,2.44,2.44h3.58c1.16,0,1.39.29,1.13,1.44a3.91,3.91,0,0,1-.13.39Z"/><path class="cls-3" d="M1218.13,64.89c-.91,0-1.83,0-2.74,0-.73,0-1-.3-1-1q0-2.56,0-5.13c0-.86.26-1.14,1.12-1.14,1.78,0,3.56,0,5.34,0,.46,0,.59-.12.58-.58,0-1,0-2.06,0-3.09a1.23,1.23,0,0,1,.69-1.26c.52-.24.88.1,1.22.44l7.19,7.31c.63.64.63,1,0,1.67l-7.2,7.31c-.34.34-.68.69-1.22.44a1.23,1.23,0,0,1-.69-1.27c0-1,0-2,0-3,0-.59-.2-.69-.71-.66C1219.87,64.92,1219,64.89,1218.13,64.89Z"/><path class="cls-3" d="M1139.84,68.63c-3,0-6.08,0-9.12,0-.23,0-.69.3-.72-.3s.11-1.1.66-1.05c1.06.09.89-.55.89-1.17,0-2.44,0-4.88,0-7.32,0-.45.11-.59.56-.56a17.8,17.8,0,0,0,2.05,0c.41,0,.49.12.49.5,0,2.59,0,5.18,0,7.77,0,.53.16.68.64.6a.62.62,0,0,1,.19,0c.55.09.75-.08.74-.7,0-2.52,0-5.05,0-7.57,0-.46.08-.64.58-.6a13.44,13.44,0,0,0,1.86,0c.42,0,.53.1.53.52,0,2.59,0,5.18,0,7.77,0,.49.12.61.6.59,1,0,1,0,1-1,0-2.4,0-4.79,0-7.19,0-.61.19-.75.74-.71a10.07,10.07,0,0,0,1.6,0c.48,0,.65.09.64.61,0,2.55,0,5.09,0,7.64,0,.49.1.71.62.62a1.4,1.4,0,0,1,.45,0c.4.06.5-.09.49-.49,0-2.59,0-5.18,0-7.77,0-.52.14-.65.63-.62a14.14,14.14,0,0,0,1.92,0c.47,0,.55.14.55.57,0,2.61,0,5.22,0,7.83,0,.47.1.67.59.59a.91.91,0,0,1,.67.17,1,1,0,0,1,.29,1.05c-.06.39-.43.18-.63.18C1146,68.63,1142.94,68.63,1139.84,68.63Z"/><path class="cls-3" d="M1139.87,57.46h-8.66c-.5,0-.94-.07-1.17-.59-.16-.37-.49-.1-.73-.19s-.73.27-.83-.26c-.18-.91,0-1.25.58-1.49l10.41-4.12a1.06,1.06,0,0,1,.85,0L1150.86,55c.38.15.71,1.32.44,1.62s-.4.06-.61.08c-.42,0-.85-.11-1.1.46-.15.34-.61.32-1,.32Z"/><path class="cls-3" d="M1139.9,71.71c-3.61,0-7.23,0-10.84,0-.46,0-.68-.09-.6-.58a5.71,5.71,0,0,0,0-.7,1,1,0,0,1,1-1H1150a1.47,1.47,0,0,1,1.34,2.18c-.13.25-.38.12-.58.12Z"/><path d="M1191.33,55.77c-.2-.37-.45-.81-.86-.79s-.08.55-.25.8a.22.22,0,0,0,0,.06q-2,6.62-4,13.24a1.33,1.33,0,0,1-1.41,1h-12.93a2.3,2.3,0,0,1-1.24-.3,1,1,0,0,1-.58-1.07c.11-.53.59-.4,1-.4h11.35c1.91,0,2.33-.26,2.9-2.11q2-6.44,3.93-12.91c.5-1.68-.35-2.76-2.12-2.76-3.28,0-6.57,0-9.85,0a4.63,4.63,0,0,1-1.28.07,1.21,1.21,0,0,0-1.47.71,10.49,10.49,0,0,1-1.27,2.25.55.55,0,0,0-.11.38,4.56,4.56,0,0,1-1.29,3.46.8.8,0,0,0-.24.61,5.64,5.64,0,0,1-1.09,3.37c-.11.17-.27.32-.27.54a6.48,6.48,0,0,1-1.37,3.71c-.12.19-.29.39-.22.62a3.18,3.18,0,0,1-.09,1.55,2.67,2.67,0,0,0,0,1.28,3.88,3.88,0,0,0,3.7,2.8h12.24a3,3,0,0,0,3.23-2.37c.73-2.41,1.44-4.83,2.2-7.24.54-1.72,1-3.49,1.63-5.17V56C1191.36,56,1191.38,55.86,1191.33,55.77Zm-14.89-.52c.29-1,.39-1.13,1.44-1.13,2.39,0,4.78,0,7.17,0,.33,0,.86-.25.94.35a1.29,1.29,0,0,1-1.07,1.41h-4c-1.32,0-2.64,0-4,0C1176.41,55.92,1176.31,55.73,1176.45,55.25Zm-1.15,3.55c.33-1,.4-1.12,1.46-1.12,2.39,0,4.78,0,7.17,0,.32,0,.86-.27.9.37a1.26,1.26,0,0,1-1,1.39c-1.37,0-2.73,0-4.1,0s-2.64,0-4,0C1175.25,59.47,1175.14,59.29,1175.3,58.8Z"/></g></g></svg>