<svg xmlns="http://www.w3.org/2000/svg" viewBox="0 0 265.63 54"><defs><style>.cls-1{fill:#008375;}.cls-2{fill:#089e8e;}.cls-3,.cls-5{fill:#111;}.cls-4{fill:#1e1e1e;}.cls-5{opacity:0.44;}.cls-6{fill:#1e0900;}.cls-7{fill:#160600;opacity:0.4;}.cls-8{fill:#e2d1c9;}.cls-17,.cls-20,.cls-9{fill:none;}.cls-10{opacity:0.29;}.cls-11{fill:#fff;}.cls-12{fill:#0f0f0f;}.cls-13{fill:#2d2d38;}.cls-14{fill:#101010;}.cls-15{fill:#2d1200;}.cls-16{fill:#191919;}.cls-16,.cls-17{stroke:#fff;}.cls-16,.cls-17,.cls-20{stroke-miterlimit:10;}.cls-16,.cls-20{stroke-width:0.5px;}.cls-17{stroke-width:0.75px;}.cls-18{fill:#0c0c0c;opacity:0.25;}.cls-19{fill:#dfdfdf;}.cls-20{stroke:#dfdfdf;}</style></defs><title>Ativo 2aasd</title><g id="Camada_2" data-name="Camada 2"><g id="Camada_1-2" data-name="Camada 1"><circle class="cls-1" cx="26.5" cy="27" r="25"/><path class="cls-2" d="M1.5,27a25,25,0,0,1,50,0"/><path class="cls-3" d="M39.06,31C37,35.16,19.22,25.9,15,31V15.61c4.7-4.63,19.84,7.2,24,0Z"/><path class="cls-4" d="M18.73,15.71a13.35,13.35,0,0,0-3.68,1V15.61s1.73-2.8,10.8.58C26.55,16.46,21.18,15.47,18.73,15.71Z"/><path class="cls-4" d="M39.08,30.44a22.58,22.58,0,0,1-2.94.72c-2,.33-9.31-.72-9.31-.72s11.28,3.62,12.26.48Z"/><path class="cls-5" d="M22.6,29.5a2.51,2.51,0,0,1-.81-.14l-.25,0a2.71,2.71,0,0,1-.51.05,2.59,2.59,0,0,1-.33,0,2.66,2.66,0,0,1-.35,0,2.42,2.42,0,0,1-1-.23,2.64,2.64,0,0,1-.31,0l-.26,0h0a2.43,2.43,0,0,1-1.15.28h-.11a.51.51,0,0,1-.16.08,2,2,0,0,0-1.23.61c-.3.33-1.06.07-1-.38,0,0,0,0,0-.06a2.65,2.65,0,0,1,0-.61.86.86,0,0,1,0-.3.51.51,0,0,1-.06-.22c0-.5,0-1,.06-1.48a.55.55,0,0,1,0-.06H9.18a2.64,2.64,0,0,1-.29,0,5.47,5.47,0,0,0-.1.76L14.9,39.89c0-4.14,4.45-7.37,7.82-10.31Z"/><polygon class="cls-6" points="40.04 47.83 39 48.88 39 15.54 40.04 16.58 40.04 47.83"/><path class="cls-7" d="M30.6,31.35A5.22,5.22,0,0,1,29.07,31L39.21,48.8l.12-2.1Z"/><circle class="cls-8" cx="25.16" cy="23.76" r="1.19"/><circle class="cls-8" cx="20.4" cy="23.76" r="1.19"/><circle class="cls-8" cx="29.92" cy="23.76" r="1.19"/><circle class="cls-8" cx="34.68" cy="23.76" r="1.19"/><rect class="cls-9" y="0.5" width="53" height="53"/><circle class="cls-1" cx="79.62" cy="27" r="24"/><path class="cls-2" d="M55.63,27a24,24,0,0,1,48,0"/><path class="cls-10" d="M80.48,27.3s0,0,0-.06,0-.16,0-.24H60.63l4,5,17.22-1.81A2.4,2.4,0,0,1,80.48,27.3Z"/><path class="cls-10" d="M82.44,34.5a2.2,2.2,0,0,1-1.72.74,2.17,2.17,0,0,1-1.81-.86H78.8l-.31,0-.21,0h-.06A2.17,2.17,0,0,1,76,32.78a2.4,2.4,0,0,1-.23-.46L65.63,33,78,46H90.8Z"/><rect class="cls-11" x="80.62" y="18.52" width="8" height="9.28"/><rect class="cls-11" x="80.62" y="19.52" width="8" height="9.28"/><circle class="cls-12" cx="85" cy="13.69" r="3.69"/><path d="M86.31,18.46Z"/><path class="cls-13" d="M86.28,27.82H89V22.95h1v4.87h3.39c0-.57,0-1.12,0-1.68,0-.9,0-1.79,0-2.69a5.63,5.63,0,0,0-.69-2.78A4.26,4.26,0,0,0,91.37,19a2.82,2.82,0,0,0-1.58-.53c-1.14,0-2.34,0-3.48,0C86.31,21.56,86.28,24.71,86.28,27.82Z"/><path class="cls-13" d="M86.28,28.82H89V23.95h1v4.87h3.39c0-.57,0-1.12,0-1.68,0-.9,0-1.79,0-2.69a5.63,5.63,0,0,0-.69-2.78A4.26,4.26,0,0,0,91.37,20a2.82,2.82,0,0,0-1.58-.53c-1.14,0-2.34,0-3.48,0C86.31,22.56,86.28,25.71,86.28,28.82Z"/><path class="cls-13" d="M83.8,22V18.49a21.72,21.72,0,0,0-4-.82,4.68,4.68,0,0,0-1-.08c-.9,0-1.79,0-2.69,0H74.42V21h4.87l1,.07c0,.63,0,1.25,0,1.88h0v4.87h3.38L83.77,22Z"/><path class="cls-13" d="M83.8,23V19.49a21.72,21.72,0,0,0-4-.82,4.68,4.68,0,0,0-1-.08c-.9,0-1.79,0-2.69,0H74.42V22h4.87l1,.07c0,.63,0,1.25,0,1.88h0v4.87h3.38L83.77,23Z"/><polygon class="cls-14" points="83.75 18.46 84.55 19.68 84.16 25.55 84.94 26.38 85.71 25.55 85.39 19.68 86.11 18.46 83.75 18.46"/><rect class="cls-15" x="72.62" y="28.18" width="24.3" height="3.78"/><polygon class="cls-15" points="78.39 46 90.81 46 93.69 33 75.86 33 78.39 46"/><rect class="cls-16" x="63.63" y="15" width="12.23" height="7.95" rx="1.35" ry="1.35"/><polyline class="cls-17" points="75.19 15.56 69.55 20 64.14 15.48"/><path class="cls-11" d="M75.21,16a.5.5,0,0,0,0-1,.5.5,0,0,0,0,1Z"/><rect class="cls-9" x="53.12" y="0.5" width="53" height="53"/><polyline class="cls-9" points="106.63 0 106.63 54 52.63 54 52.63 0"/><circle class="cls-1" cx="238.62" cy="27" r="24"/><path class="cls-2" d="M214.63,27a24,24,0,0,1,48,0"/><path class="cls-10" d="M234.48,27.3s0,0,0-.06,0-.16,0-.24H214.63l4,5,17.22-1.81A2.4,2.4,0,0,1,234.48,27.3Z"/><path class="cls-10" d="M236.44,34.5a2.2,2.2,0,0,1-1.72.74,2.17,2.17,0,0,1-1.81-.86h-.11l-.31,0-.21,0h-.06a2.17,2.17,0,0,1-2.2-1.67,2.4,2.4,0,0,1-.23-.46L219.63,33,232,46H244.8Z"/><rect class="cls-11" x="234.62" y="18.52" width="8" height="9.28"/><rect class="cls-11" x="234.62" y="19.52" width="8" height="9.28"/><circle class="cls-12" cx="239" cy="13.69" r="3.69"/><path d="M240.31,18.46Z"/><path class="cls-13" d="M247.43,24.19c0-.25,0-.49,0-.74a5.63,5.63,0,0,0-.69-2.78A4.26,4.26,0,0,0,245.37,19a2.82,2.82,0,0,0-1.58-.53c-1.14,0-2.34,0-3.48,0,0,3.1,0,6.25,0,9.36h0c0,.33,0,.67,0,1H243V23.95h1v4.87h3.39c0-.57,0-1.12,0-1.68,0,0,0,0,0,0,0-.32,0-.64,0-1s0-.35,0-.53c0-.39,0-.78,0-1.16C247.45,24.36,247.43,24.28,247.43,24.19Z"/><path class="cls-13" d="M230.18,24.19c0-.25,0-.49,0-.74a5.63,5.63,0,0,1,.69-2.78A4.26,4.26,0,0,1,232.24,19a2.82,2.82,0,0,1,1.58-.53c1.14,0,2.34,0,3.48,0,0,3.1,0,6.25,0,9.36h0c0,.33,0,.67,0,1h-2.72V23.95h-1v4.87h-3.39c0-.57,0-1.12,0-1.68,0,0,0,0,0,0,0-.32,0-.64,0-1s0-.35,0-.53c0-.39,0-.78,0-1.16C230.17,24.36,230.18,24.28,230.18,24.19Z"/><polygon class="cls-14" points="237.75 18.46 238.55 19.68 238.16 25.55 238.94 26.38 239.71 25.55 239.39 19.68 240.12 18.46 237.75 18.46"/><rect class="cls-15" x="226.62" y="28.18" width="24.3" height="3.78"/><polygon class="cls-15" points="232.38 46 244.81 46 247.69 33 229.87 33 232.38 46"/><rect class="cls-9" x="212.12" y="0.5" width="53" height="53"/><polyline class="cls-9" points="265.63 0 265.63 54 211.63 54 211.63 0"/><rect class="cls-9" x="106.13" y="0.5" width="53" height="53"/><circle class="cls-1" cx="132.63" cy="27" r="24"/><polygon class="cls-18" points="148.63 37 134.63 41 120.63 27 137.63 27 148.63 37"/><path class="cls-2" d="M108.63,27a24,24,0,0,1,48,0"/><path class="cls-19" d="M138.65,29.47l-.31,0h-1.7c-1,0-2,0-3,0a11.61,11.61,0,0,0-1.7.19,1,1,0,0,0-.8,1c0,.07,0,.13,0,.2,0,.7.39,1,1.1,1,.45,0,.91,0,1.36,0a.3.3,0,0,1,.33.21.28.28,0,0,1-.3.39h-1.08a2.07,2.07,0,0,0-.42,0,.91.91,0,0,0-.71,1.05,2.8,2.8,0,0,0,.27.85,1.07,1.07,0,0,0,1,.59h1.6a.3.3,0,0,1,.28.31.27.27,0,0,1-.29.28l-1.36,0a.74.74,0,0,0-.77,1,4.56,4.56,0,0,0,.17.61,1.23,1.23,0,0,0,1.27.93l1.26,0c.23,0,.36.1.36.28s-.14.31-.36.31H134a.66.66,0,0,0-.67.9,1.17,1.17,0,0,0,1.32,1h3.22a17.33,17.33,0,0,0,4.05-.49l2.46-.59c.47-.12.59-.28.59-.76q0-4.2,0-8.4a.68.68,0,0,0-.48-.7,5.76,5.76,0,0,1-3.71-4.39,9.59,9.59,0,0,1-.17-1.48.66.66,0,0,0-1-.59,3.05,3.05,0,0,0-1.26,1.7,5.34,5.34,0,0,0-.18,2.05,7.82,7.82,0,0,0,.47,2.11Z"/><path class="cls-19" d="M148.7,40a.66.66,0,0,1-.73.75h-1.62c-.58,0-.81-.23-.81-.81q0-4.84,0-9.67c0-.56.24-.81.8-.81h1.54c.58,0,.82.24.82.83q0,2.41,0,4.82T148.7,40Zm-1.56.09a.91.91,0,0,0,.9-.94.9.9,0,0,0-.93-.89.88.88,0,0,0-.91.93A.9.9,0,0,0,147.14,40.11Z"/><path class="cls-19" d="M146.8,39.19a.32.32,0,1,0,.33-.32A.32.32,0,0,0,146.8,39.19Z"/><path class="cls-3" d="M134.67,23.84c-.68,3.7-16.69.56-18.76,5.54l-3.56-12.06c2.6-4.7,17.16,1.05,18.76-5.54Z"/><path class="cls-6" d="M136.51,29.45a4.47,4.47,0,0,1,.67.07l-5.08-17.2L131,11.74l5.23,17.73A.88.88,0,0,1,136.51,29.45Z"/><rect class="cls-20" x="120.63" y="17" width="7.2" height="8" transform="translate(-1.75 19.44) rotate(-8.89)"/><rect class="cls-19" x="121.1" y="18.41" width="3.2" height="0.8" transform="translate(-1.43 19.18) rotate(-8.89)"/><rect class="cls-19" x="121.26" y="19.6" width="3.2" height="0.8" transform="translate(-1.61 19.22) rotate(-8.89)"/><rect class="cls-19" x="121.42" y="20.79" width="3.2" height="0.8" transform="translate(-1.8 19.26) rotate(-8.89)"/><rect class="cls-19" x="121.57" y="21.79" width="5.65" height="0.8" transform="translate(-1.93 19.48) rotate(-8.89)"/><rect class="cls-19" x="121.73" y="22.98" width="5.67" height="0.8" transform="translate(-2.12 19.52) rotate(-8.89)"/><rect class="cls-19" x="124.4" y="18.34" width="2.8" height="2" transform="translate(126.12 146.61) rotate(-98.89)"/><rect class="cls-9" x="159.16" y="0.5" width="53" height="53"/><polyline class="cls-9" points="212.66 0 212.66 54 158.66 54 158.66 0"/><circle class="cls-1" cx="185.66" cy="27" r="24"/><path class="cls-2" d="M161.66,27a24,24,0,0,1,48,0"/><path class="cls-3" d="M199.66,34.82C197.38,40,174.82,29.91,170,36.55l-1.11-19c5.46-6.05,25,7.45,29.62-1.73Z"/><rect class="cls-20" x="179.77" y="20.97" width="10.92" height="12.13" transform="translate(2.49 -13.54) rotate(4.21)"/><rect class="cls-19" x="181.29" y="22.67" width="4.85" height="1.21" transform="translate(2.21 -13.43) rotate(4.21)"/><rect class="cls-19" x="181.12" y="24.48" width="4.85" height="1.21" transform="translate(2.34 -13.42) rotate(4.21)"/><rect class="cls-19" x="180.95" y="26.29" width="4.85" height="1.21" transform="translate(2.47 -13.4) rotate(4.21)"/><rect class="cls-19" x="180.77" y="28.24" width="8.57" height="1.21" transform="translate(2.62 -13.52) rotate(4.21)"/><rect class="cls-19" x="180.6" y="30.05" width="8.61" height="1.21" transform="translate(2.75 -13.5) rotate(4.21)"/><rect class="cls-19" x="185.98" y="23.6" width="4.25" height="3.03" transform="translate(149.23 210.87) rotate(-85.79)"/><line class="cls-20" x1="173.16" y1="18.5" x2="175.16" y2="20.5"/><line class="cls-20" x1="173.16" y1="20.5" x2="175.16" y2="18.5"/><line class="cls-20" x1="171.8" y1="22.12" x2="174.52" y2="22.88"/><line class="cls-20" x1="172.78" y1="23.86" x2="173.54" y2="21.14"/><line class="cls-20" x1="174.91" y1="23.83" x2="177.4" y2="25.17"/><line class="cls-20" x1="175.49" y1="25.75" x2="176.83" y2="23.25"/><line class="cls-20" x1="172.85" y1="26.97" x2="175.47" y2="28.03"/><line class="cls-20" x1="173.63" y1="28.81" x2="174.69" y2="26.19"/><line class="cls-20" x1="172.15" y1="31.51" x2="174.17" y2="33.49"/><line class="cls-20" x1="172.17" y1="33.51" x2="174.15" y2="31.49"/></g></g></svg>