<?xml version="1.0" encoding="utf-8"?>
<!-- Generator: Adobe Illustrator 22.0.0, SVG Export Plug-In . SVG Version: 6.00 Build 0)  -->
<svg version="1.1" id="Camada_1" xmlns="http://www.w3.org/2000/svg" xmlns:xlink="http://www.w3.org/1999/xlink" x="0px" y="0px"
	 viewBox="0 0 300 300" style="enable-background:new 0 0 300 300;" xml:space="preserve">
<style type="text/css">
	.st0{opacity:0.54;fill:#5CB9D3;}
	.st1{fill:#71C2E9;stroke:#3A70A2;stroke-width:4;stroke-miterlimit:10;}
	.st2{fill:#71C2E9;}
	.st3{fill:#3A70A2;}
	.st4{fill:#5CB9D3;}
</style>
<circle class="st0" cx="147" cy="147.5" r="136"/>
<g>
	<path class="st1" d="M147.1,224.4c13.9,0,25.2-12.5,25.1-27.9l-50.4,0.1C121.8,212,133.2,224.4,147.1,224.4z"/>
	<path class="st1" d="M147,70.6c-6.9,0-12.5,6.2-12.5,13.9l25-0.1C159.5,76.8,153.9,70.6,147,70.6z"/>
	<path class="st1" d="M218.7,179.2c-0.9-1.7-2.4-3.1-4.1-4c-6.3-3.5-15.7-14.1-14.2-45.8c0.4-7.7-1.3-14.7-4.2-21
		c-8-16.7-25.3-27-43.8-26.9l-11.2,0c-18.5,0.1-35.8,10.4-43.7,27.2c-2.9,6.3-4.5,13.3-4.1,21c1.7,31.7-7.7,42.3-14,45.8
		c-1.7,1-3.2,2.3-4,4c-4.1,8.5,2.2,14.7,9.9,16.8c37.9,10.1,84.9,11.1,123.6-0.4C216.5,193.7,222.9,187.6,218.7,179.2z"/>
	<path class="st1" d="M138.5,82C125,85.8,114,96.5,108,108.5c-7,16-4,32-6,49c-1,11-10,17-17,24c-5,7,3,15,10.1,16.8"/>
	<path class="st1" d="M129.8,84.4c-0.1,0-0.1,0-0.2,0c-0.4,0.1-0.9,0.1-1.3,0.3c-0.1,0.1-0.2,0.1-0.3,0.3c-0.6,0.2-1.1,0.4-1.6,0.7
		c0,0,0,0,0,0c0,0-0.1,0-0.1,0.1c-0.4,0.2-0.9,0.4-1.3,0.6c-0.2-0.2-0.5-0.3-0.7-0.1c-0.1,0.1-0.1,0.1-0.2,0.2c-0.1,0-0.1,0-0.2,0.1
		c-0.4,0.2-0.7,0.4-1.1,0.6c-0.1,0-0.2,0-0.4,0c0,0,0,0-0.1,0c0,0-0.1,0-0.1,0c-1.2,0.6-2.4,1.2-3.7,1.8c-0.1,0-0.2,0-0.3,0.1
		c-0.1,0-0.1,0.1-0.2,0.1c-0.1,0-0.1,0-0.2,0.1c-0.3,0.2-0.6,0.4-1,0.6c-0.2,0-0.4,0-0.6,0c-0.4,0-0.8,0.1-1.2,0.4
		c-0.3,0.2-0.6,0.4-0.9,0.6c0,0-0.1,0.1-0.1,0.1c-0.1,0.1-0.2,0.1-0.3,0.2c-0.3,0.2-0.6,0.5-0.7,0.7c-0.1,0.1-0.2,0.2-0.3,0.3
		c-0.3,0.1-0.5,0.3-0.8,0.5l-1.3,1.2c-0.2,0.1-0.4,0.2-0.6,0.4c-0.4,0.4-0.7,0.7-1,1.2c-0.4,0.3-0.8,0.7-1.1,1
		c-0.6,0-1.1,0.3-1.6,0.7c-0.8,0.8-1.6,1.7-2.2,2.6c-0.5,0.7-1.1,1.5-1.4,2.4c-0.1,0.1-0.1,0.2-0.2,0.3c-0.2,0.4-0.4,0.8-0.4,1.2
		c-0.9,1.1-1.6,2.3-2.2,3.5c-0.2,0.1-0.3,0.3-0.5,0.5c-0.9,1.2-1.5,2.6-1.9,4.1c-0.5,1.1-1,2.1-1.3,3.3c-0.4,0.3-0.8,0.7-1,1.2
		c-1.5,3.9-0.4,8-1.3,11.9c-0.2,0.7,0,1.5,0.4,2.1c0,0.2-0.1,0.5,0,0.7c0.1,1.3,0.1,2.8,0.5,4.1c-0.2,0.3-0.4,0.7-0.4,1.2
		c-0.3,2.4,0.1,4.7,0.1,7.1c-0.1,0.2-0.2,0.4-0.2,0.7c0,0.2,0,0.3-0.1,0.5c-0.1,0.7,0,1.4,0.3,1.9c-0.5,2-0.5,4.3-0.6,6.4
		c-0.4,0.3-0.8,0.7-0.9,1.4c-0.8,3.8-2.3,7.4-3.9,10.9c-0.2,0.4-0.2,0.9-0.2,1.3c-0.2,0.2-0.3,0.4-0.4,0.6c-0.6,1.2-1.3,2.3-2.1,3.3
		c-0.2,0.1-0.3,0.2-0.5,0.4c-1.2,1.2-2.2,2.5-3.1,4c-0.5,0.6-1,1.1-1.6,1.5c-0.1,0.1-0.2,0.2-0.4,0.3c-0.5-0.1-1.1-0.1-1.8,0.2
		c-2.7,1.3-4.2,4.4-4.7,7.2c-0.7,3.5,0.5,6.1,3.2,8.3c0.8,0.6,1.9,0.8,2.8,0.5c0.8,1.2,1.7,2.2,2.6,3.5c1.8,2.7,6.1,0.2,4.3-2.5
		c-1-1.5-2.5-2.7-3.2-4.3c-1-2.2-0.7-4.3-0.1-6.5c0.1-0.3,0.1-0.6,0.1-0.9c0,0,0.1,0,0.1-0.1c1.9-1.9,3.9-3.8,5.8-5.7
		c1.3-1.3,3.2-2.4,4-4.1c0,0,0,0,0-0.1c0.1-0.1,0.2-0.1,0.3-0.2c3.5-3.1,5.2-7.5,7.1-11.6c0.4-0.9,0.3-1.7-0.1-2.3
		c0.1-0.3,0.1-0.6,0.2-0.9c0.4-0.4,0.6-0.9,0.6-1.6c0-0.7,0-1.3,0-2c0-0.4-0.1-0.7-0.2-1c0.2-0.9,0.3-1.8,0.4-2.8
		c0.1-1.6,0.1-3.1,0.6-4.7c0.2-0.7,0.1-1.3-0.2-1.7c0.1-0.3,0.1-0.7,0.1-1.1c0-0.1,0-0.1,0.1-0.2c0.1-0.8,0-1.4-0.3-1.9
		c0-0.5,0-1.1,0-1.3c0.1-1.1,0.4-2.2,0.5-3.3c0.2-2,0.1-4,0.3-5.9c0-0.4,0-0.7-0.1-1c0.5-1.6,0.5-3.7,0.2-5.1c0,0,0-0.1,0-0.1
		c0.5-2.5,1.1-5,1.5-7.5c0.9-0.6,1.1-1.8,0.8-2.9c0.6-1.5,1.3-3,1.9-4.3c0.2-0.5,0.3-0.9,0.3-1.3c0.4-0.6,0.7-1.1,1.1-1.7
		c0.1-0.2,0.2-0.4,0.2-0.6c0.2-0.2,0.3-0.3,0.5-0.5c0.5-0.5,0.7-1.1,0.7-1.7c0.1-0.1,0.3-0.3,0.4-0.4c0.3-0.4,0.5-0.8,0.7-1.2
		c0.9-0.9,2.3-2.2,2.7-3.5c0.2-0.3,0.5-0.5,0.8-0.8c0.2-0.1,0.3-0.3,0.4-0.5c0.5-0.5,1-1,1.5-1.5c0.1,0,0.1-0.1,0.2-0.1
		c0.3-0.2,0.6-0.4,0.9-0.6c0,0,0,0,0,0c0,0,0,0,0,0c0.2-0.1,0.3-0.2,0.5-0.4c0.4-0.4,0.7-0.8,0.8-1.2c0.5-0.5,1-0.9,1.5-1.4
		c0.1,0,0.2,0,0.3-0.1c0.3-0.3,0.6-0.6,0.9-0.9c0.9-0.5,1.7-1.3,2.4-2c0.4-0.3,0.8-0.5,1.2-0.8c0.1,0,0.1,0,0.2-0.1
		c0.6-0.3,1.2-0.7,1.9-1c0.2-0.1,0.3-0.4,0.2-0.6c0.2-0.1,0.3-0.1,0.5-0.2c0.3-0.1,0.6-0.2,1-0.3c0.1,0,0.1-0.1,0.2-0.1
		c0.2,0,0.3-0.1,0.5-0.1C130.6,85.2,130.4,84.3,129.8,84.4z"/>
	<path class="st1" d="M218.7,179.2c-0.9-1.7-2.4-3.1-4.1-4c-6.3-3.5-15.7-14.1-14.2-45.8c0.4-7.7-1.3-14.7-4.2-21
		c-8-16.7-25.3-27-43.8-26.9l-11.2,0c-18.5,0.1-35.8,10.4-43.7,27.2c-2.9,6.3-4.5,13.3-4.1,21c1.7,31.7-7.7,42.3-14,45.8
		c-1.7,1-3.2,2.3-4,4c-4.1,8.5,2.2,14.7,9.9,16.8c37.9,10.1,84.9,11.1,123.6-0.4C216.5,193.7,222.9,187.6,218.7,179.2z"/>
	<g>
		<path class="st2" d="M113.5,120c0,0,13,12,26,0"/>
		<path class="st3" d="M113.5,120c2.3,0.9,4.5,1.7,6.7,2.3c2.2,0.6,4.3,0.9,6.4,1c0.5,0,1.1,0.1,1.6,0c0.5,0,1.1-0.1,1.6-0.1
			c0.5-0.1,1-0.2,1.6-0.3c0.3,0,0.5-0.1,0.8-0.2l0.8-0.2c1.1-0.2,2.1-0.7,3.2-1.1c0.6-0.1,1.1-0.5,1.6-0.7c0.6-0.2,1.1-0.5,1.7-0.7
			c-0.3,0.5-0.7,1.1-1,1.6c-0.2,0.3-0.4,0.5-0.6,0.8c-0.2,0.3-0.4,0.5-0.6,0.7c-0.9,0.8-1.9,1.8-3.1,2.3c-1.1,0.7-2.4,1.1-3.7,1.5
			c-1.3,0.3-2.6,0.5-4,0.4c-2.7-0.1-5.3-0.8-7.5-2.1C116.7,123.9,114.8,122.2,113.5,120z"/>
	</g>
	<g>
		<path class="st2" d="M159.5,120c0,0,13,12,26,0"/>
		<path class="st3" d="M159.5,120c2.3,0.9,4.5,1.7,6.7,2.3c2.2,0.6,4.3,0.9,6.4,1c0.5,0,1.1,0.1,1.6,0c0.5,0,1.1-0.1,1.6-0.1
			c0.5-0.1,1-0.2,1.6-0.3c0.3,0,0.5-0.1,0.8-0.2l0.8-0.2c1.1-0.2,2.1-0.7,3.2-1.1c0.6-0.1,1.1-0.5,1.6-0.7c0.6-0.2,1.1-0.5,1.7-0.7
			c-0.3,0.5-0.7,1.1-1,1.6c-0.2,0.3-0.4,0.5-0.6,0.8c-0.2,0.3-0.4,0.5-0.6,0.7c-0.9,0.8-1.9,1.8-3.1,2.3c-1.1,0.7-2.4,1.1-3.7,1.5
			c-1.3,0.3-2.6,0.5-4,0.4c-2.7-0.1-5.3-0.8-7.5-2.1C162.7,123.9,160.8,122.2,159.5,120z"/>
	</g>
	<ellipse class="st1" cx="154.7" cy="162.1" rx="8.8" ry="13.1"/>
</g>
<circle class="st4" cx="205.5" cy="98.5" r="4.5"/>
<circle class="st4" cx="209.5" cy="84.5" r="6.5"/>
<path class="st4" d="M208.6,60.5c0.3-0.8,0.4-1.6,0.4-2.5c0-3.4-2.2-6.3-5.2-7.5c-1.1-1.2-2.7-2.1-4.4-2.4c-0.8-2.1-2.5-3.8-4.6-4.6
	c-1.5-1.5-3.5-2.5-5.8-2.5c-2.4,0-4.6,1.1-6,2.7c-1.4-1.1-3.1-1.7-5-1.7c-3.4,0-6.2,2.1-7.4,5c-4.2,0.2-7.6,3.7-7.6,8
	c0,0.6,0.1,1.2,0.2,1.8c-0.8,1.2-1.2,2.7-1.2,4.2c0,0.9,0.1,1.7,0.4,2.5c-0.3,0.8-0.4,1.6-0.4,2.5c0,4.4,3.6,8,8,8
	c0.9,0,1.7-0.1,2.5-0.4c1.3,0.9,2.8,1.4,4.5,1.4c0.5,0,1-0.1,1.5-0.1c0.5,0.1,1,0.1,1.5,0.1c0.2,0,0.4,0,0.7-0.1
	c1.4,1.3,3.3,2.1,5.3,2.1c1.6,0,3.1-0.5,4.4-1.3c1.4,1.4,3.4,2.3,5.6,2.3c2.6,0,4.9-1.2,6.4-3.2c0.5,0.1,1.1,0.2,1.6,0.2
	c4.4,0,8-3.6,8-8C212,64.3,210.7,61.9,208.6,60.5z"/>
</svg>
