<?xml version="1.0" encoding="utf-8"?>
<!-- Generator: Adobe Illustrator 21.0.0, SVG Export Plug-In . SVG Version: 6.00 Build 0)  -->
<svg version="1.1" id="Camada_1" xmlns="http://www.w3.org/2000/svg" xmlns:xlink="http://www.w3.org/1999/xlink" x="0px" y="0px"
	 viewBox="0 0 300 300" style="enable-background:new 0 0 300 300;" xml:space="preserve">
<style type="text/css">
	.st0{opacity:0.85;fill:#004913;enable-background:new    ;}
	.st1{fill:#111934;}
	.st2{fill:#343535;}
	.st3{fill:#FFFFFF;}
</style>
<rect y="169.7" class="st0" width="300" height="130.3"/>
<rect class="st1" width="300" height="169.5"/>
<path d="M168.9,161c0-1.5,0-3.1-0.1-4.6c0-0.8,0-1.7,0-2.5c-0.5,0-0.8-0.1-0.8-0.7c-0.3,0-0.5,0-0.7,0c-1.2,0-2.3,0-3.5,0
	c-0.9,0-2.1,0.9-2,2.1c0.1,1.6,0,3.2,0,4.7c-0.5,0.2-0.6,0-0.6-0.4c0-1,0-2,0-3h-3.5v7.9c-0.1,0-0.2,0-0.3,0.1
	c-0.1-0.2-0.2-0.4-0.2-0.6c0-1.6,0-3.2,0-4.8c0-0.2-0.2-0.5-0.3-0.5c-1.2,0-2.5,0-3.8,0c0,1.3,0,2.5,0,3.7c0,0.2-0.2,0.4-0.2,0.6
	c-0.1-0.2-0.3-0.4-0.3-0.6c-0.1-2.1,0.3-4.3-0.6-6.2c-1-0.9-2.3-1.6-2.1-3.3c-0.2,0.7,0.1,1.4-0.6,1.9c-0.4,0.3-0.7,1-1.1,1.1
	c-0.8,0.1-0.6,0.6-0.6,1c0,0.1,0,0.2,0,0.3c-0.7,0.4-0.4,1.1-0.4,1.7c0,1.1,0,2.2,0,3.3v1.9h-0.8v-8.4c-0.6,0-1,0-1.5,0
	c-0.4,0-0.6,0.1-0.6,0.6c0,1.1,0,2.1,0,3.2c0,0.2-0.1,0.3-0.1,0.5c-0.4-0.3-0.7-0.5-1.2-0.8c0-0.1,0-0.3,0-0.5c0-2.1,0-4.3,0-6.4
	c0-0.2,0-0.6-0.1-0.6c-0.5-0.1-0.4-0.5-0.4-0.9c0.1-0.5-0.1-0.8-0.6-0.9c-0.2-0.1-0.4-0.3-0.7-0.3c-0.7-0.2-0.9-0.6-0.8-1.3
	c0.1-0.6,0-1.3,0-1.9c-0.1,0-0.2,0-0.3,0c0,0.6-0.1,1.3,0,1.9c0.1,0.7-0.2,1.1-0.8,1.3c-0.9,0.3-1.5,0.8-1.3,1.9c0,0,0,0.1-0.1,0.2
	c-0.6-0.1-0.5,0.3-0.5,0.7c0,3.6,0,7.2,0,10.8c0,0.5-0.1,0.7-0.7,0.5c0-0.3,0-0.5,0-0.8c0-1.5,0-3,0-4.6c0-0.2-0.2-0.5-0.3-0.5
	c-1,0-2.1,0-3.2,0c-0.1,1.1,0.3,2.2-0.7,3.1H132c-0.1-0.3-0.1-0.5-0.1-0.7c-0.3,0-0.6-0.1-0.9-0.1c0-0.2,0.1-0.4,0-0.5
	c-0.2-0.2-0.4-0.6-0.6-0.6c-0.4-0.1-0.6,0.2-0.6,0.6c0,0.4,0.2,1-0.5,1.2c-0.1,0,0,0.3-0.1,0.4c0,0.3,0,0.5,0,0.8
	c-0.1,0-0.2,0-0.3,0c-0.1-0.4-0.3-0.9-0.3-1.3c-0.1-0.8,0-1.6,0-2.4c0-0.3-0.2-0.6-0.3-0.9c-0.3-0.8-1-0.8-1.6-0.6
	c-0.7,0.2-1.1,0.8-1.1,1.6c0,1.3,0,2.7,0,4c-0.6,0-0.7,0.3-0.7,0.7c0,0.5,0,1,0,1.6H124c0-0.3,0-0.5,0-0.8c0-2.6,0-5.2,0-7.8
	c0-1.1-0.4-1.5-1.5-1.5c-0.7,0-1.4,0-2.1,0c-0.6,0-1,0.5-1,1.1c0,1.6,0,3.3,0,4.9c0,0.2,0,0.5-0.1,0.6c-0.4-0.2-0.7-0.3-1.2-0.5v9.3
	h50.8L168.9,161L168.9,161z"/>
<path d="M191.3,40.3c-0.1,0.5-0.1,1,0,1.4C191.4,41.3,191.4,40.8,191.3,40.3z"/>
<polygon class="st2" points="160.4,169.2 139.2,169.2 53.2,300 245.6,300 "/>
<polygon class="st3" points="60.6,300 58.9,300 139.2,171.2 139.6,171.2 "/>
<polygon class="st3" points="240.5,300 242.2,300 161.4,171.2 161.1,171.2 "/>
<path d="M0,170.9c0-6.5,0-12.9,0-19.7c1,0.4,1.7,0.7,2.7,1c0-0.3,0.1-0.8,0.1-1.3c0-3.5,0-6.9,0-10.4c0-1.3,1-2.3,2.4-2.3
	c1.6,0,3.2,0,4.9,0c2.5,0,3.4,0.9,3.4,3.2c0,5.5,0,11,0,16.6c0,0.5,0,1.1,0,1.6c0.7,0,1.3,0,2,0c0-1.2,0.1-2.3,0-3.4
	c-0.1-1,0.1-1.7,1.5-1.6c0-2.9,0-5.7,0-8.6c0-1.6,0.9-3,2.6-3.3c1.4-0.3,3-0.3,3.7,1.3c0.3,0.6,0.7,1.2,0.8,1.8
	c0.1,1.7,0,3.4,0.1,5.1c0.1,0.9,0.5,1.8,0.7,2.8c0.2,0,0.4-0.1,0.6-0.1c0-0.6,0-1.1,0-1.7c0-0.3,0-0.8,0.1-0.8c1.5-0.4,1-1.6,1-2.5
	s0.4-1.6,1.3-1.4c0.5,0.1,1,0.8,1.4,1.3c0.2,0.2,0,0.7,0,1.1c0.7,0.1,1.3,0.2,2,0.3c0.1,0.5,0.2,1,0.3,1.6c0.7,0,1.4,0,2,0
	c2.1-1.8,1.2-4.2,1.5-6.6c2.4,0,4.8,0,7.2,0.1c0.3,0,0.7,0.8,0.7,1.2c0.1,3.2,0,6.5,0,9.7c0,0.5,0,1.1,0,1.6c1.3,0.5,1.6,0,1.6-1.1
	c0-7.6,0-15.3,0-22.9c0-0.8-0.3-1.7,1.1-1.5c0.1-0.2,0.2-0.3,0.2-0.4c-0.5-2.3,0.7-3.4,2.9-4c1.5-0.4,2-1.3,1.8-2.7
	c-0.2-1.3,0-2.7,0-4c0.2,0,0.4,0,0.6,0c0,1.4,0.1,2.7,0,4.1c-0.2,1.4,0.3,2.3,1.8,2.7c0.5,0.2,1,0.5,1.5,0.7c1,0.3,1.4,1,1.3,2
	c-0.1,0.7-0.3,1.6,0.9,1.9c0.2,0.1,0.3,0.9,0.3,1.3c0,4.5,0,9.1,0,13.6c0,0.5,0,1,0,1.1c1,0.6,1.7,1.1,2.6,1.7c0-0.2,0.2-0.6,0.2-1
	c0-2.2,0.1-4.5,0-6.7c0-1,0.3-1.3,1.4-1.3c1,0.1,2.1,0,3.3,0c0,6,0,11.9,0,17.9c0.7,0,1.1,0,1.8,0c0-1.4,0-2.7,0-4.1
	c0-2.3-0.1-4.7,0-7c0.1-1.2-0.6-2.6,0.9-3.6c0.1-0.1,0.1-0.4,0.1-0.6c0-1-0.4-1.9,1.4-2.2c0.9-0.1,1.5-1.6,2.4-2.2
	c1.5-1.1,0.8-2.7,1.3-4.1c-0.4,3.6,2.4,5,4.8,6.9c2,4.1,1.1,8.7,1.3,13.3c0,0.4,0.5,0.9,0.7,1.3c0.2-0.4,0.6-0.8,0.6-1.3
	c0.1-2.5,0-5.1,0-7.8c2.9,0,5.8,0,8.6,0.1c0.3,0,0.7,0.7,0.7,1.2c0.1,3.4,0,6.7,0,10.1c0,0.4,0.2,0.9,0.4,1.3c0.2,0,0.4-0.1,0.6-0.1
	c0-5.6,0-11.2,0-16.9c2.7,0,5.3,0,8,0c0,2.2,0,4.3,0,6.5c0,0.8,0.2,1.3,1.3,0.9c0-3.3,0.2-6.7-0.1-10c-0.2-2.6,2.4-4.5,4.6-4.5
	c2.6,0,5.2,0,7.8,0c0.5,0,0.9,0,1.5,0c0,1.5,1.1,1.4,2.3,1.4c0,6.3,0,12.6,0,18.6c0.4-0.7,1-1.4,1.2-2.2c0.3-0.9,0.2-1.9,0.3-2.9
	c0.1-0.9-0.2-2,1.2-2.3c0.1,0,0.3-0.2,0.3-0.3c0.6-2.2,2.4-1.9,4.1-1.8c1.1,0.1,1.6-0.3,1.7-1.4c0.2-2.5,0.3-2.5,2.8-3.2
	c0.2-0.1,0.4-0.2,0.4-0.2c0-3.8,0-7.4,0-11.1c0-2,0.1-4.1,0-6.1c0-1,0.4-1.2,1.4-1.4c0.8-0.1,1.5-0.6,2.3-1c0-0.1-0.1-0.3-0.1-0.4
	c0.1,0.2,0.3,0.3,0.5,0.6c0.2-0.4,0.3-0.7,0.5-1.2c0.1,0.6,0.2,0.9,0.4,1.5c0.6-0.8,1.1-1.4,1.5-1.9c0.6,1.4,1.4,2.6,3.1,2.9
	c1.3,0.2,1.7,1,1.7,2.2c0,4.2,0,8.3,0.1,12.5c0,0.3,0.1,0.7,0.1,1.2c0.8,0,1.6,0,2.3,0c1.7,0,2.8,0.8,3,2.4c0.2,1.8,0.4,3.7,0.5,5.6
	c0,0.3,0.1,0.6,0.1,0.8c2.5-0.1,2.6-0.2,2.6-2.3c0.1-3.5,0.1-7,0.4-10.5c0.1-0.9,0.9-1.8,1.4-2.7c0.3-0.4,0.7-0.7,1-1.1
	c1.9-2.1,4.1-2.1,6.1,0c0.8,0.8,1.6,1.7,2.4,2.5c0.2,0.2,0.2,0.6,0.2,1c0.1,1.9,0.1,3.8,0.2,5.7c0,0.5,0.3,1,0.6,1.8
	c0.3-1.1,0.4-2.2,0.8-2.3c1.1-0.4,2.4-0.4,3.6-0.5c0.9-0.1,1.9,0,3,0c0-1.9,0-3.6,0-5.3c0-0.2-0.1-0.6-0.3-0.6c-1.6-0.9-1.5-2.5-2-4
	c2.4-1.1,4-2.7,3.5-4.9c-0.4,2.2,1.1,3.8,3.8,5.1c-0.9,1.3-1.7,2.5-2.4,3.8c-0.2,0.4-0.2,0.8-0.2,1.2c0,0.8,0,1.7,0,2.5
	c0,2.4,0,2.3,2.5,2.4c1.3,0.1,2.5,0.7,3.7,1.1c0.2-0.7,0.5-1.5,0.5-2.2c-0.1-1.4,0.4-2.3,1.4-3.3c0.5-0.4,0.3-1.5,0.5-2.2
	c0,0.5-0.1,1,0,1.5s0.4,0.9,0.6,1.3c0.4-0.3,0.7-0.6,0.8-0.7c0.7,0.3,1.3,0.6,2,0.8c0.4,0.1,0.8,0.1,1.2,0.1
	c1.4-0.1,2.6,0.1,2.4,2.2c0.7-0.3,1.2-0.6,1.6-0.8c1.4,0.8,1.1,2.1,1.1,3.3c0,2,0,4,0,6c0,1.1,0.3,2.1,1.5,2.7
	c0.3,0.2,0.5,0.7,0.7,1.1c0.2,0.6,0.2,1.2,0.3,1.9c0.1,0.8,0.2,1.7,1.4,1.5c1-0.2,2.1-0.3,2.1-1.8c-0.1-2.8,0-5.5,0-8.7
	c0.2,1.2,0.4,2.1,0.6,3c0.1,0,0.2,0,0.3,0c0-0.6-0.1-1.3,0-1.8c0.1-0.5,0.5-1,0.8-1.5c0.2-0.4,0.4-0.8,0.4-1.2c0-1.3,0-2.7,0-4
	c0.2,0,0.3,0,0.5,0c0.1,1.3,0.2,2.6,0.2,3.9c0,1.6,1.3,2.2,2.3,3.2c1,0.9,1.8,2.3,3.7,1.8c0-0.7,0-1.5,0-2.2c0-1.8,0-3.5,0-5.3
	c0.1-2.8,0.1-2.7,2.9-3.6c0.5-0.2,0.9-0.6,1.4-1c0.2-0.1,0.3-0.5,0.5-0.5c2.4-0.5,4.6-1.7,7.3-1.3c4.9,0.9,4.9,0.8,9-1.9
	c0.9-0.6,2-0.8,3-1.2c0.2,1,0.7,2,0.7,3c0.1,2.6,0,5.2,0,7.8c2.2-0.5,2.6-2,2.5-4.3c0-0.7-0.5-1.5,0.8-1.6c0.1,0,0.3-0.2,0.3-0.3
	c0.3-1.9,1.7-2.9,3.2-3.8c0.2-0.1,0.2-0.7,0.2-1.1c0.2-2.1,0.3-4.1,0.5-6.2c0.1,1,0.3,2,0.3,3c0.1,3.8,0.1,3.8,3.2,6.5
	c0.2,0.2,0.1,0.5,0.3,0.8c0.2,0.4,0.6,0.8,0.8,1.3c0.2,0.5,0.4,1,0.4,1.4c0.2,2.8,0.3,5.6,0.5,8.4c0.7,0.2,2.2-0.9,2.5,0.9
	c0-0.8,0.1-1.6,0.2-2.7c1,0.4,1.9,0.8,3,1.2c0-2.4,0-4.7,0-7.3c2.9,0,5.7,0,8.4,0c0.3,0,0.8,0.7,0.8,1.1c0.1,1.5,0,3,0,4.7
	c1.5,0,2.9,0,4.5,0c0,2.2,0,4.3,0,6.7c0.9-0.1,1.6-0.3,2.3-0.3c2.2,0.1,4.4,0.2,6.5,0.4c0.3,0,0.7,0.6,0.7,1c0,1.1-0.1,2.1-0.1,3.2
	c0.2,0.1,0.4,0.1,0.5,0.2c0.2-0.4,0.6-0.7,0.6-1.1c0.1-0.9,0.2-1.6,1.3-1.6c1.2,0,1.3,0.8,1.3,1.7c0,0.8-0.6,1.8,0.9,2.1
	c0.2,0,0.2,0.7,0.3,1c0.1,0.5,0.2,1,0.2,1.5c0.2,0,0.3,0,0.5,0c0.2-0.8,0.5-1.7,0.5-2.5c0.1-1.5,0-3,0-4.5c0-3.2,2.7-4.9,5.7-3.3
	c0.7,0.4,1.3,1.5,1.4,2.4c0.2,2.9,0.1,5.8,0.1,8.7c0,0.1,0,0.2,0.1,0.4c0.4,0.1,0.8,0.2,1.4,0.4c0,1.5,0,3,0,4.6c0.7,0,1.2,0,2,0
	c0-0.5,0-1.1,0-1.6c0-5.7,0-11.3,0-17c0-1.6,1.1-2.7,2.8-2.8c1.9-0.1,3.9-0.1,5.8,0c1.2,0.1,2.1,0.8,2.1,2.1c0,3.6,0,7.1,0,10.7
	c0,0.5,0.1,1,0.1,1.3c0.9-0.4,1.6-0.8,2.6-1.3c0.1,0.8,0.1,1.2,0.1,1.6c0,4.5,0,9.1,0,13.7C200.2,170.9,100.1,170.9,0,170.9z"/>
<polygon class="st3" points="151.9,262.4 151.4,239.1 147.5,239.1 146.9,262.4 "/>
<polygon class="st3" points="148,218.1 147.5,236.9 151.3,236.9 150.9,218.1 "/>
<polygon class="st3" points="148.7,188.6 148.5,197.6 150.4,197.6 150.2,188.6 "/>
<polygon class="st3" points="148.4,199.9 148,215.9 150.8,215.9 150.5,199.9 "/>
<polygon class="st3" points="146.9,264.6 146.1,299.5 152.8,299.5 152,264.6 "/>
<g>
	<polygon class="st3" points="150,177.8 149.8,171.7 149.1,171.7 148.9,177.8 	"/>
	<polygon class="st3" points="148.9,178.7 148.7,186.4 150.2,186.4 150,178.7 	"/>
</g>
</svg>
