<?xml version="1.0" encoding="utf-8"?>
<!-- Generator: Adobe Illustrator 22.0.0, SVG Export Plug-In . SVG Version: 6.00 Build 0)  -->
<svg version="1.1" id="Camada_1" xmlns="http://www.w3.org/2000/svg" xmlns:xlink="http://www.w3.org/1999/xlink" x="0px" y="0px"
	 viewBox="0 0 300 300" style="enable-background:new 0 0 300 300;" xml:space="preserve">
<style type="text/css">
	.st0{fill:#3A70A2;}
	.st1{fill:#5CB9D3;}
</style>
<g>
	<path class="st0" d="M173,195.7c-3.6-13.3-7.3-26.6-11-39.9c-0.2-0.6-0.5-1.2-0.5-1.7c-0.1-0.4-0.2-0.8-0.2-1.2
		c-0.2-0.9-0.4-1.7-0.7-2.6c0,0,0,0,0,0c0,0,0-0.1,0-0.1c0-0.1,0-0.1-0.1-0.2c0,0,0,0,0-0.1c-1.7-6.1-3.4-12.2-5.1-18.4
		c0,0,0.1,0,0.1,0c-0.2-0.4-0.3-0.8-0.4-1.3c-0.1-0.4-0.2-0.8-0.3-1.1c-0.1,0-0.1,0-0.2,0c-3-11-6-21.8-9-32.6
		c-0.9-3.2-1.7-6.4-2.6-9.6c-0.7-2.6-2.5-4-4.9-3.9c-2.3,0.1-3.9,1.6-4.4,4.2c-0.1,0.6-0.3,1.3-0.7,1.9c-3.9,7.2-7.8,14.3-11.9,21.4
		c-9.4,16.3-23.4,26.3-41.6,30.7c-0.1,0-0.2,0-0.5,0c-0.1-0.3-0.3-0.6-0.4-0.9c-1.1-3.4-1.8-3.8-5.2-2.9c-8.7,2.4-17.4,4.8-26.1,7.2
		c-3,0.8-3.3,1.4-2.9,4.6c0.1,0.5-0.5,1.3-1,1.5c-4.3,2.2-6.9,5.6-7.4,10.3c-0.2,1.7-0.1,3.5,0.3,5.1c1.3,5.3,2.8,10.6,4.3,15.8
		c1.7,6,7.1,9.7,13.5,9.4c1.4-0.1,2.1,0.1,2.5,1.6c0.4,1.7,1.8,2.3,3.6,1.8c1.5-0.4,3.1-0.8,4.7-1.3c0.3,0.6,0.5,1.1,0.7,1.6
		c3.8,9.8,7.6,19.6,11.4,29.3c1.9,4.9,6.9,7.2,11.7,5.4c4.7-1.7,6.9-7,5-11.8c-3.7-9.5-7.4-19.1-11.2-28.6c0-0.1,0-0.2-0.1-0.7
		c1.4-0.4,2.7-0.8,4.1-1.1c4-1.1,4.2-1.4,3.6-5.9c3.8-0.8,7.5-1.9,11.4-2.5c15.3-2.3,29.5,0.8,42.7,8.8c6,3.6,12.1,7,18.1,10.6
		c1.1,0.6,2,1.3,3,2.1c1.8,1.3,3.8,1.4,5.5,0.2C172.8,199.6,173.6,197.7,173,195.7z M53,189.1c-4.3,0-8.5-3-9.9-7.3
		c-1.7-5.6-3.3-11.2-4.7-16.8c-0.4-1.5-0.3-3.3,0-4.9c0.7-3.7,3.8-6.9,6.7-7.3c3.3,12,6.5,23.9,9.8,36.1C54,189,53.5,189.1,53,189.1
		z M92,219.3c1.6,4.4-1.8,9-6.4,8.9c-2.8,0-5.2-1.7-6.3-4.5c-3.6-9.3-7.3-18.6-10.9-27.9c-1.1-2.8-1.1-2.8,2-3.1
		c0.5-0.1,1.1-0.2,1.6-0.4c2.5-0.6,5-1.3,7.5-1.9c0.5-0.1,1.5,0.3,1.6,0.8C84.7,200.5,88.5,209.8,92,219.3z M87,185.2
		c-4.3,1.1-8.6,2.4-12.9,3.6c-4.7,1.3-9.5,2.6-14.7,4c-0.3-0.5-0.8-1-1-1.7c-3.9-14.1-7.8-28.2-11.7-42.3c-0.4-1.5,0-1.9,1.4-2.3
		c8.8-2.4,17.6-4.8,26.4-7.3c1.5-0.4,1.9,0,2.3,1.4c3.8,14.1,7.7,28.2,11.6,42.3C88.7,184.3,88.5,184.8,87,185.2z M161.6,195.3
		c-6-3.5-12-7-18-10.5c-9.7-5.6-20.2-8.5-31.4-8.7c-6.9-0.1-13.7,0.9-20.3,2.9c-1.2,0.4-2,0.5-2.4-1.1c-2.9-10.7-5.9-21.3-8.9-31.9
		c-0.7-2.7-0.7-2.7,2-3.4c16-4.3,28.8-13.2,38-27c2.7-4.1,5-8.6,7.4-12.9c2.1-3.7,4.1-7.4,6.2-11.1c0.2,0,0.3,0,0.5,0
		c9.6,34.7,19.1,69.5,28.9,104.7C162.5,195.7,162,195.5,161.6,195.3z M168.4,199.4c-1.2,0-2-0.8-2.5-2.3c-0.7-2.3-1.3-4.6-1.9-6.9
		c-7.7-27.8-15.3-55.5-23-83.3c-1.7-6.1-3.4-12.2-5-18.3c-0.5-1.8,0.2-3.1,1.7-3.5c1.5-0.4,2.7,0.4,3.2,2.2c0.1,0.5,0.3,0.9,0.4,1.4
		c8.1,29.3,16.2,58.6,24.3,87.9c1.8,6.4,3.5,12.8,5.2,19.2C171.4,197.8,170.3,199.4,168.4,199.4z"/>
	<path class="st1" d="M134.1,91.6c-2,3.7-4.1,7.4-6.2,11.1c-2.4,4.3-4.7,8.8-7.4,12.9c-9.2,13.8-22,22.7-38,27
		c-2.7,0.7-2.8,0.8-2,3.4c3,10.6,6,21.3,8.9,31.9c0.4,1.6,1.2,1.5,2.4,1.1c6.6-2,13.4-3,20.3-2.9c11.2,0.2,21.7,3.1,31.4,8.7
		c6,3.5,12,7,18,10.5c0.4,0.2,0.8,0.5,1.8,1c-9.7-35.2-19.3-70-28.9-104.7C134.4,91.6,134.3,91.6,134.1,91.6z"/>
	<path class="st1" d="M59.4,192.8c5.2-1.4,10-2.7,14.7-4c4.3-1.2,8.6-2.4,12.9-3.6c1.4-0.4,1.7-0.9,1.3-2.3
		c-3.9-14.1-7.8-28.2-11.6-42.3c-0.4-1.3-0.8-1.8-2.3-1.4c-8.8,2.5-17.6,4.9-26.4,7.3c-1.4,0.4-1.8,0.8-1.4,2.3
		c3.9,14.1,7.8,28.2,11.7,42.3C58.5,191.7,59.1,192.3,59.4,192.8z"/>
	<path class="st1" d="M168.4,199.4c1.8,0.1,2.9-1.6,2.4-3.6c-1.7-6.4-3.5-12.8-5.2-19.2c-8.1-29.3-16.2-58.6-24.3-87.9
		c-0.1-0.5-0.3-0.9-0.4-1.4c-0.5-1.8-1.8-2.6-3.2-2.2c-1.5,0.4-2.2,1.7-1.7,3.5c1.7,6.1,3.4,12.2,5,18.3c7.7,27.8,15.3,55.5,23,83.3
		c0.6,2.3,1.3,4.6,1.9,6.9C166.4,198.6,167.2,199.3,168.4,199.4z"/>
	<path class="st1" d="M85.6,228.2c4.6,0,8.1-4.6,6.4-8.9c-3.5-9.4-7.3-18.8-11-28.1c-0.2-0.4-1.1-0.9-1.6-0.8
		c-2.5,0.5-5,1.2-7.5,1.9c-0.5,0.1-1.1,0.3-1.6,0.4c-3,0.3-3,0.3-2,3.1c3.6,9.3,7.3,18.6,10.9,27.9
		C80.3,226.4,82.8,228.2,85.6,228.2z"/>
	<path class="st1" d="M55,188.9c-3.3-12.2-6.6-24.2-9.8-36.1c-3,0.4-6,3.7-6.7,7.3c-0.3,1.6-0.4,3.4,0,4.9c1.4,5.6,3,11.3,4.7,16.8
		c1.3,4.3,5.6,7.3,9.9,7.3C53.5,189.1,54,189,55,188.9z"/>
	<g>
		<polygon class="st0" points="156.3,103.6 224,37.3 157.7,105 		"/>
	</g>
	<g>
		<polygon class="st0" points="168.4,131.6 252.2,103.1 169.1,133.5 		"/>
	</g>
	<g>
		<polygon class="st0" points="180.7,166.8 271,183.1 180.3,168.8 		"/>
	</g>
</g>
</svg>
