<?xml version="1.0" encoding="utf-8"?>
<!-- Generator: Adobe Illustrator 22.0.0, SVG Export Plug-In . SVG Version: 6.00 Build 0)  -->
<svg version="1.1" id="Camada_1" xmlns="http://www.w3.org/2000/svg" xmlns:xlink="http://www.w3.org/1999/xlink" x="0px" y="0px"
	 viewBox="0 0 300 300" style="enable-background:new 0 0 300 300;" xml:space="preserve">
<style type="text/css">
	.st0{fill:#71C2E9;}
	.st1{fill:#3A70A2;}
</style>
<g>
	<polygon class="st0" points="153.5,26 192.7,105.5 280.5,118.3 217,180.2 232,267.6 153.5,226.3 75,267.6 90,180.2 26.5,118.3 
		114.2,105.5 	"/>
	<path class="st1" d="M153.5,25.8l39.7,79.5l-0.4-0.3l87.8,12.4l1.7,0.2l-1.2,1.2L217.8,181l0.3-1l15.2,87.4l0.5,2.7l-2.4-1.3
		l-78.6-41.1h1.5l-39.1,20.9l-39.2,20.8l-3.7,1.9l0.7-4.1l7.4-43.7l7.6-43.7l0.6,1.8l-31.7-31l-31.6-31.1l-2.6-2.5l3.6-0.5l43.9-6.2
		l43.9-6l-0.9,0.7c6.7-13.3,13.5-26.7,20.3-39.9C140.2,51.9,146.9,38.8,153.5,25.8z M153.5,26.2c-6.5,13.5-12.9,26.9-19.2,40.2
		c-6.3,13.3-12.6,26.5-19,39.6l-0.3,0.6l-0.6,0.1l-43.8,6.7L26.7,120l1-3l31.9,30.8l31.8,30.9l0.8,0.8l-0.2,1.1l-7.4,43.7L77,268
		l-3-2.2l39.3-20.5l39.4-20.4l0.8-0.4l0.7,0.4l78.4,41.5l-2,1.4l-14.8-87.5l-0.1-0.6l0.4-0.4l63.7-61.7l0.5,1.4L192.7,106l-0.3,0
		l-0.1-0.2L153.5,26.2z"/>
</g>
<path class="st1" d="M166.3,109.1c0.4-2,0.8-4.6,1.5-7.2c0.3-1.2,1-2.3,1.8-3.2c1.5-1.8,3.4-1.7,4.8,0.1c1.6,1.9,2.2,4.2,2.6,6.6
	c0.7,4.5,0.5,8.9-1.2,13.1c-0.3,0.8-0.8,1.6-1.3,2.3c-1.6,2-3.8,2.1-5.2-0.1c-1.1-1.8-1.8-3.9-2.4-5.9
	C166.6,113.2,166.6,111.5,166.3,109.1z"/>
<path class="st1" d="M129.5,108.9c0.5-2.4,1-4.9,1.7-7.2c0.4-1.2,1.1-2.3,2-3.2c1.2-1.4,2.9-1.4,4.2,0c0.7,0.8,1.4,1.8,1.8,2.8
	c2.2,5.8,2.2,11.6,0,17.3c-0.4,1-1,2-1.8,2.8c-1.3,1.4-2.9,1.5-4.2,0c-0.8-0.9-1.5-2-1.9-3.1C130.1,115.6,129.6,111.7,129.5,108.9z"
	/>
<path class="st1" d="M133.5,152.7c0.2-1.3,1.2-2,2.2-2.4c2.7-1,5.3-2.2,8.1-2.8c7.6-1.7,15.3-3,23.2-2.6c2.2,0.1,4.4,0.4,6.6,0.5
	c0,0.1,0,0.3,0,0.4c-1,0.1-2.1,0.4-3.1,0.4c-6.6,0.5-13.2,0.9-19.8,1.6c-4.3,0.5-8.6,1.4-12.9,2.3
	C136.1,150.5,134.5,151.2,133.5,152.7z"/>
</svg>
